IBM Plex Mono-Regular.ufo
<glyph name="exclam" format="2">
  <advance width="600"/>
  <unicode hex="0021"/>
  <outline>
    <contour>
      <point x="316" y="233" type="line" identifier="UE1fOIfKMw"/>
      <point x="344" y="495" type="line" identifier="0fn4No7IGD"/>
      <point x="344" y="698" type="line" identifier="VdOlsduvYo"/>
      <point x="256" y="698" type="line" identifier="sL9sGeEcvb"/>
      <point x="256" y="495" type="line" identifier="KpzKhBsA3n"/>
      <point x="284" y="233" type="line" identifier="pRl0AhnBd2"/>
    </contour>
    <contour>
      <point x="300" y="-9" type="curve" smooth="yes" identifier="LSczUXMZNG"/>
      <point x="354" y="-9" identifier="aYzQcpiY0k"/>
      <point x="374" y="17" identifier="DdZWG2RWZY"/>
      <point x="374" y="51" type="curve" smooth="yes" identifier="8zlPssQu5z"/>
      <point x="374" y="69" type="line" smooth="yes" identifier="yFwvdEpObK"/>
      <point x="374" y="103" identifier="lISHticbM1"/>
      <point x="354" y="129" identifier="HItAm0cJQ0"/>
      <point x="300" y="129" type="curve" smooth="yes" identifier="oWr7fDZgH3"/>
      <point x="246" y="129" identifier="YPrQX561YA"/>
      <point x="226" y="103" identifier="8y5I0xTnli"/>
      <point x="226" y="69" type="curve" smooth="yes" identifier="bvoKjaaP93"/>
      <point x="226" y="51" type="line" smooth="yes" identifier="ZchE3kdigC"/>
      <point x="226" y="17" identifier="REDV5YGwln"/>
      <point x="246" y="-9" identifier="m1CCPXT8IY"/>
    </contour>
  </outline>
</glyph>
<glyph name="numbersign" format="2">
  <advance width="600"/>
  <unicode hex="0023"/>
  <outline>
    <contour>
      <point x="110" y="0" type="line" identifier="ZEhT4PgPbQ"/>
      <point x="183" y="0" type="line" identifier="tEm3zPw6W6"/>
      <point x="306" y="698" type="line" identifier="P1RdrAoNfv"/>
      <point x="233" y="698" type="line" identifier="uz2IojPaT1"/>
      <point x="195" y="482" type="line" identifier="bLIrnAuMnA"/>
      <point x="52" y="482" type="line" identifier="YnVZF6ciSU"/>
      <point x="52" y="416" type="line" identifier="SeRONLhucS"/>
      <point x="183" y="416" type="line" identifier="hSLLdNAExR"/>
      <point x="160" y="282" type="line" identifier="dRvICcLgEb"/>
      <point x="16" y="282" type="line" identifier="ovdNOYTDOR"/>
      <point x="16" y="216" type="line" identifier="y1SletdFnq"/>
      <point x="148" y="216" type="line" identifier="ybPhQ5amPv"/>
    </contour>
    <contour>
      <point x="294" y="0" type="line" identifier="FXbvJM3y7h"/>
      <point x="367" y="0" type="line" identifier="jgjLwYhbtK"/>
      <point x="405" y="216" type="line" identifier="W3pNsIkPW0"/>
      <point x="548" y="216" type="line" identifier="VTaqpaMDYA"/>
      <point x="548" y="282" type="line" identifier="W7iA5Li32k"/>
      <point x="417" y="282" type="line" identifier="sQ8pak98EF"/>
      <point x="440" y="416" type="line" identifier="qhHGMasT5C"/>
      <point x="584" y="416" type="line" identifier="IFHx8csCMp"/>
      <point x="584" y="482" type="line" identifier="M3LdX47ALG"/>
      <point x="452" y="482" type="line" identifier="bppOsWt0K4"/>
      <point x="490" y="698" type="line" identifier="E2GQlu5E8l"/>
      <point x="417" y="698" type="line" identifier="8uf8KCm06h"/>
    </contour>
  </outline>
</glyph>
<glyph name="dollar" format="2">
  <advance width="600"/>
  <unicode hex="0024"/>
  <outline>
    <contour>
      <point x="279" y="-113" type="line" identifier="9lZHP5KYnf"/>
      <point x="341" y="-113" type="line" identifier="goOzwBZfhF"/>
      <point x="341" y="-11" type="line" identifier="ZMS4OykHpT"/>
      <point x="476" y="0" identifier="e0CcaNMLSA"/>
      <point x="552" y="75" identifier="SIgSLBRn5f"/>
      <point x="552" y="191" type="curve" smooth="yes" identifier="scTX0sPn3T"/>
      <point x="552" y="285" identifier="lg9SK02dP1"/>
      <point x="507" y="363" identifier="cnXMncWj04"/>
      <point x="370" y="386" type="curve" smooth="yes" identifier="gIXkexLAoM"/>
      <point x="340" y="391" type="line" identifier="rfA567Qgo3"/>
      <point x="340" y="636" type="line" identifier="9McEJnazij"/>
      <point x="406" y="629" identifier="oLnnqAdZXa"/>
      <point x="450" y="599" identifier="AUfeXoy0x8"/>
      <point x="486" y="551" type="curve" identifier="hZ6ldOvmxJ"/>
      <point x="549" y="596" type="line" identifier="MTY5Hel5MX"/>
      <point x="499" y="664" identifier="XFiZNiSOSy"/>
      <point x="433" y="702" identifier="tbI6m1Wsrv"/>
      <point x="341" y="709" type="curve" identifier="zcxXjRpzYU"/>
      <point x="341" y="811" type="line" identifier="ZGalKtJPoy"/>
      <point x="279" y="811" type="line" identifier="Wxhy7ecpN3"/>
      <point x="279" y="709" type="line" identifier="r6tq17Zw97"/>
      <point x="153" y="700" identifier="JgqlewOYrX"/>
      <point x="75" y="632" identifier="7oct1mJt3U"/>
      <point x="75" y="520" type="curve" smooth="yes" identifier="i5i36IKTVa"/>
      <point x="75" y="429" identifier="Aw0CUj493l"/>
      <point x="119" y="349" identifier="mfNXj7mQV8"/>
      <point x="257" y="326" type="curve" smooth="yes" identifier="njWy761DVQ"/>
      <point x="280" y="322" type="line" identifier="KYvD7cleHx"/>
      <point x="280" y="61" type="line" identifier="OmbOceaND2"/>
      <point x="210" y="68" identifier="prpjFetYgh"/>
      <point x="159" y="101" identifier="R6nn2H0U8k"/>
      <point x="111" y="161" type="curve" identifier="d7UBrTB8E7"/>
      <point x="50" y="111" type="line" identifier="gkMxAzQYnC"/>
      <point x="98" y="44" identifier="T5g1NJ7vVP"/>
      <point x="168" y="-4" identifier="gmKkOLD4OC"/>
      <point x="279" y="-11" type="curve" identifier="XBvwPyUJRT"/>
    </contour>
    <contour>
      <point x="156" y="520" type="curve" smooth="yes" identifier="sU5BnV9QZm"/>
      <point x="156" y="589" identifier="V1AvhPmqO1"/>
      <point x="201" y="629" identifier="Vvn5yXZ2i6"/>
      <point x="280" y="637" type="curve" identifier="S7TcvfzLAk"/>
      <point x="280" y="401" type="line" identifier="43a3KHvuJ4"/>
      <point x="191" y="419" identifier="Ae1XI5fiDq"/>
      <point x="156" y="455" identifier="8atGFJ1Kel"/>
    </contour>
    <contour>
      <point x="471" y="190" type="curve" smooth="yes" identifier="fPqmjNZpNi"/>
      <point x="471" y="117" identifier="aYgT8QS32m"/>
      <point x="424" y="71" identifier="JKR9pYHX1L"/>
      <point x="340" y="62" type="curve" identifier="oZ8c9YUZ7S"/>
      <point x="340" y="312" type="line" identifier="qYbTyyr69z"/>
      <point x="433" y="296" identifier="pGSoB0ngBv"/>
      <point x="471" y="261" identifier="Mtuwz5A7EH"/>
    </contour>
  </outline>
</glyph>
<glyph name="percent" format="2">
  <advance width="600"/>
  <unicode hex="0025"/>
  <outline>
    <contour>
      <point x="169" y="356" type="curve" smooth="yes" identifier="Y4gXtsO8T4"/>
      <point x="256" y="356" identifier="K2k8filzyR"/>
      <point x="318" y="416" identifier="1f7S57AjIB"/>
      <point x="318" y="533" type="curve" smooth="yes" identifier="u3GDKkVQqw"/>
      <point x="318" y="650" identifier="4QDbxj0PEi"/>
      <point x="256" y="710" identifier="trm0oRGlS9"/>
      <point x="169" y="710" type="curve" smooth="yes" identifier="pc3Mu76GVC"/>
      <point x="82" y="710" identifier="TNgsPHJVPE"/>
      <point x="20" y="650" identifier="sfvpcxWQbC"/>
      <point x="20" y="533" type="curve" smooth="yes" identifier="909I8IYAZ1"/>
      <point x="20" y="416" identifier="qQscyyCk37"/>
      <point x="82" y="356" identifier="H0xOujbnGH"/>
    </contour>
    <contour>
      <point x="169" y="410" type="curve" smooth="yes" identifier="pSwClnOrTr"/>
      <point x="121" y="410" identifier="mqzO322ywY"/>
      <point x="88" y="445" identifier="ncHsET880Q"/>
      <point x="88" y="508" type="curve" smooth="yes" identifier="7SfSyOAIoT"/>
      <point x="88" y="558" type="line" smooth="yes" identifier="TGTgklxXUT"/>
      <point x="88" y="621" identifier="zyoGJpuKe6"/>
      <point x="121" y="656" identifier="hDhJ1KKsrD"/>
      <point x="169" y="656" type="curve" smooth="yes" identifier="lr8Gsz1Ya6"/>
      <point x="217" y="656" identifier="GGDlm8EYWe"/>
      <point x="250" y="621" identifier="kEEKGh0yOd"/>
      <point x="250" y="558" type="curve" smooth="yes" identifier="3GWyM9LSFn"/>
      <point x="250" y="508" type="line" smooth="yes" identifier="WMOEb1oCTX"/>
      <point x="250" y="445" identifier="9tTKqURfCy"/>
      <point x="217" y="410" identifier="Ko6646Aieh"/>
    </contour>
    <contour>
      <point x="350" y="398" type="line" identifier="27nc6q4wed"/>
      <point x="422" y="398" type="line" identifier="CoBlIu1NXC"/>
      <point x="582" y="698" type="line" identifier="KV2YzKeeNx"/>
      <point x="510" y="698" type="line" identifier="PmzKXIlnYh"/>
    </contour>
    <contour>
      <point x="18" y="0" type="line" identifier="P1HbGnUxK7"/>
      <point x="90" y="0" type="line" identifier="GdKTz2OiJx"/>
      <point x="250" y="300" type="line" identifier="2zCRgFi5WG"/>
      <point x="178" y="300" type="line" identifier="zv0UUhz2eL"/>
    </contour>
    <contour>
      <point x="431" y="-12" type="curve" smooth="yes" identifier="5kqIhl2kRw"/>
      <point x="518" y="-12" identifier="gfuKN4P18Y"/>
      <point x="580" y="48" identifier="MmawgpFkOC"/>
      <point x="580" y="165" type="curve" smooth="yes" identifier="PgvmEGy1y5"/>
      <point x="580" y="282" identifier="XQ7AH8qDgI"/>
      <point x="518" y="342" identifier="tlxrl7Scam"/>
      <point x="431" y="342" type="curve" smooth="yes" identifier="A0ZQHryDJv"/>
      <point x="344" y="342" identifier="dttXa6ChvP"/>
      <point x="282" y="282" identifier="QqdeWQUkeP"/>
      <point x="282" y="165" type="curve" smooth="yes" identifier="6ixkGMqIF0"/>
      <point x="282" y="48" identifier="gKuKfiZcQA"/>
      <point x="344" y="-12" identifier="kXj7Xmg7GM"/>
    </contour>
    <contour>
      <point x="431" y="42" type="curve" smooth="yes" identifier="nEUE4S7pWM"/>
      <point x="383" y="42" identifier="whMqKnOYDI"/>
      <point x="350" y="77" identifier="KI4nXn4BBE"/>
      <point x="350" y="140" type="curve" smooth="yes" identifier="GV7KJPFf4m"/>
      <point x="350" y="190" type="line" smooth="yes" identifier="N42KFI2DFY"/>
      <point x="350" y="253" identifier="DBZosWwiTV"/>
      <point x="383" y="288" identifier="BLzfKpqQeb"/>
      <point x="431" y="288" type="curve" smooth="yes" identifier="J6bmjdeFDz"/>
      <point x="479" y="288" identifier="APlo5TfNEJ"/>
      <point x="512" y="253" identifier="FbsXs7l321"/>
      <point x="512" y="190" type="curve" smooth="yes" identifier="afXfaRwUCN"/>
      <point x="512" y="140" type="line" smooth="yes" identifier="N9stu4NWp0"/>
      <point x="512" y="77" identifier="9WX50i7OuB"/>
      <point x="479" y="42" identifier="aTKpeCa9k1"/>
    </contour>
  </outline>
</glyph>
<glyph name="ampersand" format="2">
  <advance width="600"/>
  <unicode hex="0026"/>
  <outline>
    <contour>
      <point x="217" y="-12" type="curve" smooth="yes" identifier="jvZSmPLpHL"/>
      <point x="307" y="-12" identifier="2C5hSt1hHZ"/>
      <point x="366" y="34" identifier="gTny6kda6X"/>
      <point x="385" y="103" type="curve" identifier="EOpKhSotYu"/>
      <point x="390" y="103" type="line" identifier="pfnPaRPJ6G"/>
      <point x="477" y="0" type="line" identifier="jM5ywBHqea"/>
      <point x="572" y="0" type="line" identifier="KNPMUcnIVa"/>
      <point x="450" y="144" type="line" identifier="4pbGlgFTrM"/>
      <point x="473" y="206" identifier="8GsnSrhrBF"/>
      <point x="477" y="250" identifier="XRXzWSa9n2"/>
      <point x="486" y="314" type="curve" identifier="Fy8SlqhA7x"/>
      <point x="561" y="314" type="line" identifier="SNfw8cQLkJ"/>
      <point x="561" y="381" type="line" identifier="BrIHoGxAHy"/>
      <point x="420" y="381" type="line" identifier="vBE0dK5JkD"/>
      <point x="417" y="317" identifier="4v1zaSbe60"/>
      <point x="416" y="246" identifier="N6qWOhTzyG"/>
      <point x="407" y="194" type="curve" identifier="ORINdGuPZ2"/>
      <point x="402" y="194" type="line" identifier="GiFjTOGcCF"/>
      <point x="329" y="284" type="line" identifier="z6hXKPeTgi"/>
      <point x="239" y="395" type="line" smooth="yes" identifier="AFwrJwkHlL"/>
      <point x="188" y="459" identifier="ordHOuLYEJ"/>
      <point x="168" y="494" identifier="Sor3gKBTFq"/>
      <point x="168" y="536" type="curve" smooth="yes" identifier="fCeM89dGcS"/>
      <point x="168" y="544" type="line" smooth="yes" identifier="OKnsTB5diw"/>
      <point x="168" y="601" identifier="AkpG4wPEet"/>
      <point x="206" y="642" identifier="2XEkxXOQ2B"/>
      <point x="266" y="642" type="curve" smooth="yes" identifier="0V4ncJ1ft6"/>
      <point x="318" y="642" identifier="z9RJgoxriV"/>
      <point x="353" y="611" identifier="9Cvvj2cBX8"/>
      <point x="370" y="570" type="curve" identifier="28uY0H4oPX"/>
      <point x="436" y="604" type="line" identifier="KPl2k8NDv3"/>
      <point x="417" y="655" identifier="4WnIO34bXh"/>
      <point x="359" y="710" identifier="UqIQETtdam"/>
      <point x="270" y="710" type="curve" smooth="yes" identifier="3rJud4NUlB"/>
      <point x="171" y="710" identifier="nW0MexYPyl"/>
      <point x="89" y="642" identifier="W85w2MuAN7"/>
      <point x="89" y="541" type="curve" smooth="yes" identifier="VVG9NtwO3o"/>
      <point x="89" y="482" identifier="QfEA0sCjwF"/>
      <point x="117" y="432" identifier="b94mcLMhBO"/>
      <point x="154" y="384" type="curve" identifier="bjeFHxbtCJ"/>
      <point x="54" y="333" identifier="TJwveOMtGM"/>
      <point x="25" y="251" identifier="do53Sii5mi"/>
      <point x="25" y="181" type="curve" smooth="yes" identifier="RQUWi3uPyK"/>
      <point x="25" y="74" identifier="Au58KC6J9o"/>
      <point x="95" y="-12" identifier="M1SUdWfXy0"/>
    </contour>
    <contour>
      <point x="238" y="59" type="curve" smooth="yes" identifier="ztiS1UFDfi"/>
      <point x="161" y="59" identifier="IBLozw91Q9"/>
      <point x="108" y="105" identifier="Jn388RiIKb"/>
      <point x="108" y="177" type="curve" smooth="yes" identifier="vayYprnWIz"/>
      <point x="108" y="192" type="line" smooth="yes" identifier="SOyA1wfqyO"/>
      <point x="108" y="249" identifier="Cfj9vez9ne"/>
      <point x="131" y="299" identifier="ALp5HeMmMw"/>
      <point x="192" y="337" type="curve" identifier="Hmb8Wzpvuz"/>
      <point x="366" y="127" type="line" identifier="MKx6ylzbvd"/>
      <point x="341" y="84" identifier="SRiXBIL56l"/>
      <point x="295" y="59" identifier="gjVjDrFZZF"/>
    </contour>
  </outline>
</glyph>
<glyph name="quotesingle" format="2">
  <advance width="600"/>
  <unicode hex="0027"/>
  <outline>
    <contour>
      <point x="338" y="463" type="line" identifier="OB3vmIRtRI"/>
      <point x="338" y="740" type="line" identifier="NtpPIKwqQi"/>
      <point x="262" y="740" type="line" identifier="6bhvXbhFbV"/>
      <point x="262" y="463" type="line" identifier="49ImidSsmZ"/>
    </contour>
  </outline>
</glyph>
<glyph name="parenleft" format="2">
  <advance width="600"/>
  <unicode hex="0028"/>
  <outline>
    <contour>
      <point x="205" y="311" type="curve" smooth="yes" identifier="GSuT8tChBe"/>
      <point x="205" y="116" identifier="YGlP79rQC4"/>
      <point x="300" y="-54" identifier="i1VxTFDByS"/>
      <point x="413" y="-138" type="curve" identifier="P5v8iDrzep"/>
      <point x="494" y="-138" type="line" identifier="5mJmTBw3wg"/>
      <point x="378" y="-51" identifier="wTi3GVekgd"/>
      <point x="280" y="97" identifier="h8UYSmfKGv"/>
      <point x="280" y="268" type="curve" smooth="yes" identifier="Ka7TDVguuq"/>
      <point x="280" y="354" type="line" smooth="yes" identifier="kHFyortFgx"/>
      <point x="280" y="525" identifier="SOpOOPKHKG"/>
      <point x="378" y="673" identifier="F4uBumMYss"/>
      <point x="494" y="760" type="curve" identifier="VRcA1Cxqtd"/>
      <point x="413" y="760" type="line" identifier="N5BPCJ27E5"/>
      <point x="300" y="676" identifier="k29ymPDHLe"/>
      <point x="205" y="506" identifier="K2hNG8IbsM"/>
    </contour>
  </outline>
</glyph>
<glyph name="parenright" format="2">
  <advance width="600"/>
  <unicode hex="0029"/>
  <outline>
    <contour>
      <point x="395" y="311" type="curve" smooth="yes" identifier="IbNF02g4KI"/>
      <point x="395" y="506" identifier="xprRYznjRS"/>
      <point x="300" y="676" identifier="feK8DGjcaO"/>
      <point x="187" y="760" type="curve" identifier="gaOXqAGEAU"/>
      <point x="106" y="760" type="line" identifier="rgVUwtLATx"/>
      <point x="222" y="673" identifier="X76DIXZrR7"/>
      <point x="320" y="525" identifier="QbMQp47lfg"/>
      <point x="320" y="354" type="curve" smooth="yes" identifier="0fzuKWflBe"/>
      <point x="320" y="268" type="line" smooth="yes" identifier="QZADFvcQlM"/>
      <point x="320" y="97" identifier="N9tuKdjgRX"/>
      <point x="222" y="-51" identifier="pKIw2HTwMd"/>
      <point x="106" y="-138" type="curve" identifier="UUmlnJbHn9"/>
      <point x="187" y="-138" type="line" identifier="7vKSgdYkQh"/>
      <point x="300" y="-54" identifier="nQZMQiQeBt"/>
      <point x="395" y="116" identifier="fv5wm4yhBS"/>
    </contour>
  </outline>
</glyph>
<glyph name="asterisk" format="2">
  <advance width="600"/>
  <unicode hex="002A"/>
  <outline>
    <contour>
      <point x="300" y="224" type="line" identifier="PEhOpSTsRM"/>
      <point x="425" y="52" type="line" identifier="aoYttlkNtg"/>
      <point x="482" y="94" type="line" identifier="lVrTAHZhUd"/>
      <point x="358" y="264" type="line" identifier="pYgf1CKAvf"/>
      <point x="557" y="330" type="line" identifier="ZSRUyyHTqJ"/>
      <point x="536" y="396" type="line" identifier="TBRKHhiHCp"/>
      <point x="337" y="332" type="line" identifier="jth32TkyFg"/>
      <point x="337" y="548" type="line" identifier="e7sp5mbVjv"/>
      <point x="263" y="548" type="line" identifier="VnEaO7PHXv"/>
      <point x="263" y="332" type="line" identifier="a3okorN6xj"/>
      <point x="64" y="396" type="line" identifier="r5hobX3HCY"/>
      <point x="43" y="330" type="line" identifier="SrI9MVnPrU"/>
      <point x="242" y="264" type="line" identifier="BKRPrlBsaM"/>
      <point x="118" y="94" type="line" identifier="g3J2kflubg"/>
      <point x="175" y="52" type="line" identifier="uu3en6kIdK"/>
    </contour>
  </outline>
</glyph>
<glyph name="plus" format="2">
  <advance width="600"/>
  <unicode hex="002B"/>
  <outline>
    <contour>
      <point x="338" y="62" type="line" identifier="yLSByJ8keW"/>
      <point x="338" y="271" type="line" identifier="BwiSgBKSQT"/>
      <point x="538" y="271" type="line" identifier="x0QQPC7zer"/>
      <point x="538" y="339" type="line" identifier="XOv80sSFN8"/>
      <point x="338" y="339" type="line" identifier="kdCernQhJ5"/>
      <point x="338" y="548" type="line" identifier="VSgukcQG0Q"/>
      <point x="262" y="548" type="line" identifier="bnxvpK3k4c"/>
      <point x="262" y="339" type="line" identifier="pPY2L1P0dt"/>
      <point x="62" y="339" type="line" identifier="mVRupcZb7L"/>
      <point x="62" y="271" type="line" identifier="McQMBP9nIZ"/>
      <point x="262" y="271" type="line" identifier="HieUrOYLJT"/>
      <point x="262" y="62" type="line" identifier="5pt9OkrMI9"/>
    </contour>
  </outline>
</glyph>
<glyph name="comma" format="2">
  <advance width="600"/>
  <unicode hex="002C"/>
  <outline>
    <contour>
      <point x="204" y="-141" type="line" identifier="lDDtTZreek"/>
      <point x="271" y="-141" type="line" identifier="7hfhV4i3su"/>
      <point x="386" y="136" type="line" identifier="k9hvIvz6ZU"/>
      <point x="257" y="136" type="line" identifier="zZCOF7SVjB"/>
    </contour>
  </outline>
</glyph>
<glyph name="hyphen" format="2">
  <advance width="600"/>
  <unicode hex="002D"/>
  <outline>
    <contour>
      <point x="445" y="262" type="line" identifier="7FYpeCW7CY"/>
      <point x="445" y="346" type="line" identifier="7xkDDH0wSy"/>
      <point x="155" y="346" type="line" identifier="SYtKRFB9Pc"/>
      <point x="155" y="262" type="line" identifier="Z6GKuoOuCb"/>
    </contour>
  </outline>
</glyph>
<glyph name="period" format="2">
  <advance width="600"/>
  <unicode hex="002E"/>
  <outline>
    <contour>
      <point x="300" y="-9" type="curve" smooth="yes" identifier="v8DQMyvYvO"/>
      <point x="354" y="-9" identifier="7BRxFjf9Iu"/>
      <point x="374" y="17" identifier="9J1KLaYlPb"/>
      <point x="374" y="51" type="curve" smooth="yes" identifier="7DYuCpgnPl"/>
      <point x="374" y="69" type="line" smooth="yes" identifier="2golDV8NtG"/>
      <point x="374" y="103" identifier="vo5iJAPEGp"/>
      <point x="354" y="129" identifier="Rgu8tQG0kR"/>
      <point x="300" y="129" type="curve" smooth="yes" identifier="rBUBvkGOQ1"/>
      <point x="246" y="129" identifier="Ihs2OPHsqB"/>
      <point x="226" y="103" identifier="m5sKJBkTrk"/>
      <point x="226" y="69" type="curve" smooth="yes" identifier="V3dSEpqlf8"/>
      <point x="226" y="51" type="line" smooth="yes" identifier="3tU4Cw9utf"/>
      <point x="226" y="17" identifier="gdxnxETWIn"/>
      <point x="246" y="-9" identifier="fZT9vMBQd0"/>
    </contour>
  </outline>
</glyph>
<glyph name="slash" format="2">
  <advance width="600"/>
  <unicode hex="002F"/>
  <outline>
    <contour>
      <point x="162" y="-138" type="line" identifier="lsceUjtWws"/>
      <point x="510" y="760" type="line" identifier="PmMr2L6cze"/>
      <point x="438" y="760" type="line" identifier="ZO7zYxN9k8"/>
      <point x="90" y="-138" type="line" identifier="SHU3JsVOWf"/>
    </contour>
  </outline>
</glyph>
<glyph name="zero" format="2">
  <advance width="600"/>
  <unicode hex="0030"/>
  <outline>
    <contour>
      <point x="300" y="-12" type="curve" smooth="yes" identifier="VUozrIMhEo"/>
      <point x="470" y="-12" identifier="n2nB1T2DUU"/>
      <point x="544" y="121" identifier="kVhCI4TjU0"/>
      <point x="544" y="349" type="curve" smooth="yes" identifier="6wlOjTa8G4"/>
      <point x="544" y="577" identifier="NJAaX103rO"/>
      <point x="470" y="710" identifier="41X2jlLTf1"/>
      <point x="300" y="710" type="curve" smooth="yes" identifier="PRvfg1YaC6"/>
      <point x="130" y="710" identifier="4zSrEDIN64"/>
      <point x="56" y="577" identifier="Q8OVSWKvHI"/>
      <point x="56" y="349" type="curve" smooth="yes" identifier="XfsxckFCP8"/>
      <point x="56" y="121" identifier="4QorLJKnaB"/>
      <point x="130" y="-12" identifier="a4t6e02Zpk"/>
    </contour>
    <contour>
      <point x="300" y="61" type="curve" smooth="yes" identifier="vqgQEJCeAR"/>
      <point x="188" y="61" identifier="3LKh3Vb8VI"/>
      <point x="143" y="152" identifier="D1wmZkVccy"/>
      <point x="143" y="292" type="curve" smooth="yes" identifier="7bfxn2esNB"/>
      <point x="143" y="406" type="line" smooth="yes" identifier="XnWKHc90So"/>
      <point x="143" y="546" identifier="R05xotERfO"/>
      <point x="188" y="637" identifier="Empm2kdH5Z"/>
      <point x="300" y="637" type="curve" smooth="yes" identifier="UG5HQajG6T"/>
      <point x="412" y="637" identifier="8hNYvbpZIW"/>
      <point x="457" y="546" identifier="0iS13ChWID"/>
      <point x="457" y="406" type="curve" smooth="yes" identifier="RTpaLYv8rj"/>
      <point x="457" y="292" type="line" identifier="rMxpDbzIQN"/>
      <point x="457" y="152" identifier="UX1nnWTiaC"/>
      <point x="412" y="61" identifier="KGac1B0xWp"/>
    </contour>
    <contour>
      <point x="300" y="290" type="curve" smooth="yes" identifier="hgogjZ1h8u"/>
      <point x="346" y="290" identifier="nz2Cf117WW"/>
      <point x="362" y="311" identifier="IKH9JxFmwa"/>
      <point x="362" y="338" type="curve" smooth="yes" identifier="HdZkV6H5Sk"/>
      <point x="362" y="360" type="line" smooth="yes" identifier="Zzoztycfwb"/>
      <point x="362" y="387" identifier="DSjvhYPgIp"/>
      <point x="346" y="408" identifier="xI8IvaGZW1"/>
      <point x="300" y="408" type="curve" smooth="yes" identifier="nrhERMn4jL"/>
      <point x="254" y="408" identifier="iUrRjOst77"/>
      <point x="238" y="387" identifier="ZtWEx2iFd9"/>
      <point x="238" y="360" type="curve" smooth="yes" identifier="S2MSSW9FMl"/>
      <point x="238" y="338" type="line" smooth="yes" identifier="0bUj6oR1YU"/>
      <point x="238" y="311" identifier="YtlhN2N9f3"/>
      <point x="254" y="290" identifier="oOPqlR8F5F"/>
    </contour>
  </outline>
</glyph>
<glyph name="one" format="2">
  <advance width="600"/>
  <unicode hex="0031"/>
  <outline>
    <contour>
      <point x="553" y="0" type="line" identifier="d7Xnz45MTW"/>
      <point x="553" y="73" type="line" identifier="lxUQZrzXgj"/>
      <point x="369" y="73" type="line" identifier="2kFbgQ5o0J"/>
      <point x="369" y="698" type="line" identifier="FLKpgFpfD6"/>
      <point x="238" y="698" type="line" identifier="OuNzo6hpX0"/>
      <point x="53" y="525" type="line" identifier="HDLasOKmoP"/>
      <point x="102" y="472" type="line" identifier="l2MKZuyK7T"/>
      <point x="278" y="636" type="line" identifier="hqasGDK0P8"/>
      <point x="285" y="636" type="line" identifier="ovp4kwiV7E"/>
      <point x="285" y="73" type="line" identifier="4OHUvuhoJ0"/>
      <point x="85" y="73" type="line" identifier="ViFCFG5jZI"/>
      <point x="85" y="0" type="line" identifier="nFkvgr7Qln"/>
    </contour>
  </outline>
</glyph>
<glyph name="two" format="2">
  <advance width="600"/>
  <unicode hex="0032"/>
  <outline>
    <contour>
      <point x="537" y="73" type="line" identifier="J77eAvGBcs"/>
      <point x="158" y="73" type="line" identifier="8iMr0uEKi2"/>
      <point x="353" y="243" type="line" smooth="yes" identifier="kJ7Eb700k7"/>
      <point x="446" y="324" identifier="n8pet7h1hl"/>
      <point x="509" y="402" identifier="fXPp64rbiH"/>
      <point x="509" y="508" type="curve" smooth="yes" identifier="359fbctQBj"/>
      <point x="509" y="626" identifier="trEnUSNlGg"/>
      <point x="431" y="710" identifier="pGD0HXV2jv"/>
      <point x="292" y="710" type="curve" smooth="yes" identifier="0cjnFt0TIH"/>
      <point x="155" y="710" identifier="FXZyNMRbq4"/>
      <point x="92" y="628" identifier="bYj97TJvHo"/>
      <point x="65" y="546" type="curve" identifier="Mk6DfJb9xS"/>
      <point x="140" y="518" type="line" identifier="hvRNNPluuu"/>
      <point x="162" y="590" identifier="LTWfl7uC5r"/>
      <point x="205" y="637" identifier="16rsGFh7vH"/>
      <point x="290" y="637" type="curve" smooth="yes" identifier="ATxAptgiBy"/>
      <point x="376" y="637" identifier="HWejT9kzkM"/>
      <point x="421" y="589" identifier="NP0DEAou2h"/>
      <point x="421" y="505" type="curve" smooth="yes" identifier="nzfKb8jfwT"/>
      <point x="421" y="493" type="line" smooth="yes" identifier="epbWKxNhi4"/>
      <point x="421" y="422" identifier="F6H3irv6Mc"/>
      <point x="372" y="357" identifier="2mbUaWGKkD"/>
      <point x="304" y="296" type="curve" smooth="yes" identifier="CwzITuTh63"/>
      <point x="71" y="86" type="line" identifier="kykeF3AZO1"/>
      <point x="71" y="0" type="line" identifier="UBcbVn8vrK"/>
      <point x="537" y="0" type="line" identifier="Z6bMrIj46U"/>
    </contour>
  </outline>
</glyph>
<glyph name="three" format="2">
  <advance width="600"/>
  <unicode hex="0033"/>
  <outline>
    <contour>
      <point x="193" y="402" type="line" identifier="2MJpjF0ktr"/>
      <point x="193" y="330" type="line" identifier="WrQcRcPkwB"/>
      <point x="276" y="330" type="line" smooth="yes" identifier="5LGDuCGkYH"/>
      <point x="378" y="330" identifier="cqzdErSAeE"/>
      <point x="430" y="282" identifier="nYfcP3hDBw"/>
      <point x="430" y="200" type="curve" smooth="yes" identifier="RsfeYIfYwb"/>
      <point x="430" y="192" type="line" smooth="yes" identifier="fIXhhwoeKh"/>
      <point x="430" y="109" identifier="T6EhFgJ5OW"/>
      <point x="375" y="61" identifier="OA97sI2nAh"/>
      <point x="277" y="61" type="curve" smooth="yes" identifier="FLomVbmZ73"/>
      <point x="189" y="61" identifier="GhzYfSUdy8"/>
      <point x="148" y="100" identifier="GtgX5pSaAz"/>
      <point x="111" y="155" type="curve" identifier="67ESTs7lT5"/>
      <point x="48" y="107" type="line" identifier="McOPNudS0U"/>
      <point x="91" y="47" identifier="BilgCTxNn6"/>
      <point x="154" y="-12" identifier="DJHq1FCUW1"/>
      <point x="277" y="-12" type="curve" smooth="yes" identifier="8ViywNG9Y2"/>
      <point x="422" y="-12" identifier="CSOEBcQcJX"/>
      <point x="518" y="71" identifier="eeqTq4f3gR"/>
      <point x="518" y="191" type="curve" smooth="yes" identifier="bE4Otar0wt"/>
      <point x="518" y="296" identifier="nzNxskYoOj"/>
      <point x="445" y="352" identifier="XjZ6armSmw"/>
      <point x="368" y="367" type="curve" identifier="ZTgbIrC2NG"/>
      <point x="368" y="371" type="line" identifier="ZhnBFmXKuL"/>
      <point x="444" y="390" identifier="VhY4SgnErn"/>
      <point x="504" y="444" identifier="i5eGCZE8pf"/>
      <point x="504" y="534" type="curve" smooth="yes" identifier="WPX9lcNAmw"/>
      <point x="504" y="647" identifier="PEcDRznIOB"/>
      <point x="409" y="710" identifier="NPRapN1ruC"/>
      <point x="290" y="710" type="curve" smooth="yes" identifier="W8DSWu7DAj"/>
      <point x="176" y="710" identifier="d59rOW5zMt"/>
      <point x="114" y="652" identifier="zTrNmpGxMp"/>
      <point x="78" y="596" type="curve" identifier="3uNiBXDVhe"/>
      <point x="141" y="548" type="line" identifier="M4irI91sTt"/>
      <point x="170" y="601" identifier="rcxtLEp3e7"/>
      <point x="214" y="637" identifier="tmq7IJACcn"/>
      <point x="288" y="637" type="curve" smooth="yes" identifier="7Tl8Vf26ik"/>
      <point x="364" y="637" identifier="Fikub4Q7ef"/>
      <point x="416" y="599" identifier="RDW4UnJxtQ"/>
      <point x="416" y="525" type="curve" smooth="yes" identifier="blxnHex2if"/>
      <point x="416" y="518" type="line" smooth="yes" identifier="lKjH28wN2M"/>
      <point x="416" y="451" identifier="Aza5Qkn1Dl"/>
      <point x="367" y="402" identifier="2H4djBGtxo"/>
      <point x="270" y="402" type="curve" smooth="yes" identifier="DASEWuYuFs"/>
    </contour>
  </outline>
</glyph>
<glyph name="four" format="2">
  <advance width="600"/>
  <unicode hex="0034"/>
  <outline>
    <contour>
      <point x="458" y="0" type="line" identifier="QrTsIXoM85"/>
      <point x="458" y="137" type="line" identifier="B9CB8kjrJM"/>
      <point x="562" y="137" type="line" identifier="j3aeN7dEso"/>
      <point x="562" y="206" type="line" identifier="3u7U0bbzg1"/>
      <point x="458" y="206" type="line" identifier="CUTRNfXunp"/>
      <point x="458" y="698" type="line" identifier="r3am72IfF7"/>
      <point x="336" y="698" type="line" identifier="G4Hz0ihAFU"/>
      <point x="34" y="211" type="line" identifier="gz9OHVp86y"/>
      <point x="34" y="137" type="line" identifier="J0JeEvfLTn"/>
      <point x="378" y="137" type="line" identifier="mtLibMQruC"/>
      <point x="378" y="0" type="line" identifier="9vu3qqKXmR"/>
    </contour>
    <contour>
      <point x="374" y="633" type="line" identifier="uTV8IzKXux"/>
      <point x="378" y="633" type="line" identifier="oME6N2PPzf"/>
      <point x="378" y="206" type="line" identifier="5IFQT5LxJD"/>
      <point x="109" y="206" type="line" identifier="jI9qY6O64V"/>
    </contour>
  </outline>
</glyph>
<glyph name="five" format="2">
  <advance width="600"/>
  <unicode hex="0035"/>
  <outline>
    <contour>
      <point x="501" y="698" type="line" identifier="FK8cEwWFhl"/>
      <point x="121" y="698" type="line" identifier="bCBkwj93jW"/>
      <point x="96" y="314" type="line" identifier="FY1xLgurpj"/>
      <point x="167" y="304" type="line" identifier="ZksAfUebE8"/>
      <point x="197" y="337" identifier="tzCoYxAv5N"/>
      <point x="229" y="363" identifier="UlcZvl7YVl"/>
      <point x="295" y="363" type="curve" smooth="yes" identifier="KrqPGiIC6d"/>
      <point x="392" y="363" identifier="AL8e9ltGbM"/>
      <point x="446" y="308" identifier="84GRSzktmv"/>
      <point x="446" y="216" type="curve" smooth="yes" identifier="A5jSASIzjA"/>
      <point x="446" y="208" type="line" smooth="yes" identifier="taf5oySfCZ"/>
      <point x="446" y="117" identifier="1zh6DfOa6S"/>
      <point x="393" y="61" identifier="o0lE14FFhm"/>
      <point x="297" y="61" type="curve" identifier="tYQNHauylt"/>
      <point x="211" y="61" identifier="WuUBSluCsX"/>
      <point x="173" y="100" identifier="xZ8zWGYgbt"/>
      <point x="136" y="155" type="curve" identifier="axMvt25fhP"/>
      <point x="73" y="107" type="line" identifier="4UjbkEQQ4R"/>
      <point x="116" y="47" identifier="8ZQx2UvKFZ"/>
      <point x="177" y="-12" identifier="kVC6PWbyN4"/>
      <point x="295" y="-12" type="curve" smooth="yes" identifier="BgAy9urnRM"/>
      <point x="444" y="-12" identifier="ZN87bdw5Di"/>
      <point x="533" y="83" identifier="t3eCVoJWfG"/>
      <point x="533" y="219" type="curve" smooth="yes" identifier="sTCWFilMzx"/>
      <point x="533" y="354" identifier="9LlvCTTO4c"/>
      <point x="444" y="434" identifier="1OgoYKqKPQ"/>
      <point x="322" y="434" type="curve" smooth="yes" identifier="7wM8cRlHFe"/>
      <point x="248" y="434" identifier="NcrlbH6B5X"/>
      <point x="210" y="405" identifier="3ldr7dJsyL"/>
      <point x="176" y="358" type="curve" identifier="r9X4EkE7g1"/>
      <point x="169" y="358" type="line" identifier="d8vSsMzOR7"/>
      <point x="189" y="625" type="line" identifier="CLTkYcrUTa"/>
      <point x="501" y="625" type="line" identifier="8641gl36Mq"/>
    </contour>
  </outline>
</glyph>
<glyph name="six" format="2">
  <advance width="600"/>
  <unicode hex="0036"/>
  <outline>
    <contour>
      <point x="301" y="-12" type="curve" smooth="yes" identifier="2L3VY8dQhU"/>
      <point x="443" y="-12" identifier="Ch4uRFHzZw"/>
      <point x="536" y="82" identifier="Sypfwogxpf"/>
      <point x="536" y="219" type="curve" smooth="yes" identifier="bSSiBEzCtE"/>
      <point x="536" y="351" identifier="IclxnAZZuu"/>
      <point x="449" y="434" identifier="sqAvauYP9N"/>
      <point x="327" y="434" type="curve" smooth="yes" identifier="VxRdmT0ycl"/>
      <point x="240" y="434" identifier="A2dRtL3U1Y"/>
      <point x="189" y="391" identifier="R29q7Xy3U7"/>
      <point x="155" y="334" type="curve" identifier="aFbRxfUVU8"/>
      <point x="150" y="336" type="line" identifier="NwZKl4iClj"/>
      <point x="189" y="498" identifier="OE9NWfasnF"/>
      <point x="273" y="589" identifier="4ERC7xtLjm"/>
      <point x="425" y="698" type="curve" identifier="fTQniNTmzx"/>
      <point x="317" y="698" type="line" identifier="NypuCN7uLL"/>
      <point x="203" y="625" identifier="8K4YltlQ4k"/>
      <point x="64" y="463" identifier="yvwNuVpA8i"/>
      <point x="64" y="256" type="curve" smooth="yes" identifier="8UzzEvpKKd"/>
      <point x="64" y="90" identifier="ZDyfKIlWsz"/>
      <point x="154" y="-12" identifier="tz5AhJhrdF"/>
    </contour>
    <contour>
      <point x="300" y="59" type="curve" identifier="CbXWr0gEho"/>
      <point x="205" y="59" identifier="ltakygZGMe"/>
      <point x="149" y="114" identifier="Bt9QrQtJr9"/>
      <point x="149" y="208" type="curve" smooth="yes" identifier="QaEaCghAr7"/>
      <point x="149" y="216" type="line" smooth="yes" identifier="XVe2mUTxDt"/>
      <point x="149" y="310" identifier="GaqXUEvTAU"/>
      <point x="205" y="365" identifier="cABPdS0NWN"/>
      <point x="300" y="365" type="curve" smooth="yes" identifier="LhAnJRGW3W"/>
      <point x="395" y="365" identifier="UCg5NsJiIE"/>
      <point x="451" y="310" identifier="7MktPO4LaN"/>
      <point x="451" y="216" type="curve" smooth="yes" identifier="Jq0lucJyQE"/>
      <point x="451" y="208" type="line" smooth="yes" identifier="tBSdt6TuL4"/>
      <point x="451" y="114" identifier="e0AIttEvQS"/>
      <point x="395" y="59" identifier="VOdDqkqhiv"/>
    </contour>
  </outline>
</glyph>
<glyph name="seven" format="2">
  <advance width="600"/>
  <unicode hex="0037"/>
  <outline>
    <contour>
      <point x="263" y="0" type="line" identifier="nSnjRRNG0A"/>
      <point x="531" y="624" type="line" identifier="gNoufiG9To"/>
      <point x="531" y="698" type="line" identifier="45Ton6EFqG"/>
      <point x="65" y="698" type="line" identifier="CA9W5FW5Zk"/>
      <point x="65" y="496" type="line" identifier="ONXVxp4XfD"/>
      <point x="140" y="496" type="line" identifier="QTjVW9dYdG"/>
      <point x="140" y="626" type="line" identifier="wJ6veX5BLj"/>
      <point x="446" y="626" type="line" identifier="xi4yeSKk6n"/>
      <point x="173" y="0" type="line" identifier="S572rSH5uQ"/>
    </contour>
  </outline>
</glyph>
<glyph name="eight" format="2">
  <advance width="600"/>
  <unicode hex="0038"/>
  <outline>
    <contour>
      <point x="300" y="-12" type="curve" smooth="yes" identifier="ztzMKYRPaP"/>
      <point x="462" y="-12" identifier="jVhSHUMt3z"/>
      <point x="545" y="75" identifier="yQfWynosVP"/>
      <point x="545" y="190" type="curve" smooth="yes" identifier="PoE81cg6y8"/>
      <point x="545" y="285" identifier="EMqtkIMa9F"/>
      <point x="488" y="340" identifier="uckNkA4o0A"/>
      <point x="403" y="363" type="curve" identifier="hdMIY6aZns"/>
      <point x="403" y="371" type="line" identifier="Fo9NyOe9Yy"/>
      <point x="477" y="396" identifier="rObNYA74SG"/>
      <point x="524" y="455" identifier="ALcIzJc82X"/>
      <point x="524" y="535" type="curve" smooth="yes" identifier="agPVA8oQhm"/>
      <point x="524" y="641" identifier="GrOZ4cA7Vx"/>
      <point x="441" y="710" identifier="emQ0EjG9nk"/>
      <point x="300" y="710" type="curve" smooth="yes" identifier="0IHPO95QxG"/>
      <point x="159" y="710" identifier="C3Al3qQXsw"/>
      <point x="76" y="641" identifier="JBvNegz9Mq"/>
      <point x="76" y="535" type="curve" smooth="yes" identifier="egUxvu4Xp4"/>
      <point x="76" y="455" identifier="JXdlK47P57"/>
      <point x="123" y="396" identifier="AmtDJVAXgF"/>
      <point x="197" y="371" type="curve" identifier="FV3ssAqpNk"/>
      <point x="197" y="363" type="line" identifier="79OHqwshO7"/>
      <point x="112" y="340" identifier="cwV5sZ8mKw"/>
      <point x="55" y="285" identifier="Nd8vmhwfbS"/>
      <point x="55" y="190" type="curve" smooth="yes" identifier="qboiOXLkxK"/>
      <point x="55" y="75" identifier="CUDGtL1BOu"/>
      <point x="138" y="-12" identifier="nPXbTuHd7n"/>
    </contour>
    <contour>
      <point x="300" y="59" type="curve" smooth="yes" identifier="4NCT0yoOrn"/>
      <point x="202" y="59" identifier="Dx19OqQolj"/>
      <point x="142" y="106" identifier="c4SipK4ktt"/>
      <point x="142" y="185" type="curve" smooth="yes" identifier="YH3AaXJXns"/>
      <point x="142" y="207" type="line" smooth="yes" identifier="onufTSgPzX"/>
      <point x="142" y="287" identifier="4g8rhMNo6f"/>
      <point x="200" y="333" identifier="gRKC0KbWk9"/>
      <point x="300" y="333" type="curve" smooth="yes" identifier="maDRtFmCvA"/>
      <point x="400" y="333" identifier="zKEJTQpzQ6"/>
      <point x="458" y="287" identifier="a9sfVl90me"/>
      <point x="458" y="207" type="curve" smooth="yes" identifier="GL5iY7va8b"/>
      <point x="458" y="185" type="line" smooth="yes" identifier="3oEUXCLOa1"/>
      <point x="458" y="106" identifier="8naTvxs0xG"/>
      <point x="398" y="59" identifier="cG0Tv4JSLE"/>
    </contour>
    <contour>
      <point x="300" y="401" type="curve" smooth="yes" identifier="URMuUkFPp4"/>
      <point x="210" y="401" identifier="UBDE0OOJpw"/>
      <point x="161" y="442" identifier="KzjF44nYsI"/>
      <point x="161" y="513" type="curve" smooth="yes" identifier="iZFJhafs6q"/>
      <point x="161" y="527" type="line" smooth="yes" identifier="02vjkUaBiZ"/>
      <point x="161" y="598" identifier="8OIE3lmWSB"/>
      <point x="212" y="639" identifier="u3d9Kr0ZCo"/>
      <point x="300" y="639" type="curve" smooth="yes" identifier="cdpZaOa1CA"/>
      <point x="388" y="639" identifier="ZFc86LXEjC"/>
      <point x="439" y="598" identifier="OjcJYkg8YC"/>
      <point x="439" y="527" type="curve" smooth="yes" identifier="VHjSlI8iPt"/>
      <point x="439" y="513" type="line" smooth="yes" identifier="AOwpS7rGg4"/>
      <point x="439" y="442" identifier="nXu2KWkDoy"/>
      <point x="390" y="401" identifier="47uypaIIJb"/>
    </contour>
  </outline>
</glyph>
<glyph name="nine" format="2">
  <advance width="600"/>
  <unicode hex="0039"/>
  <outline>
    <contour>
      <point x="536" y="442" type="curve" smooth="yes" identifier="eBRzxENEtz"/>
      <point x="536" y="608" identifier="r9MFCmJRGa"/>
      <point x="446" y="710" identifier="RpMQKdpZc6"/>
      <point x="299" y="710" type="curve" smooth="yes" identifier="d0kqIlSq1D"/>
      <point x="157" y="710" identifier="AwzkqHxub8"/>
      <point x="64" y="616" identifier="g0YJP52A6i"/>
      <point x="64" y="479" type="curve" smooth="yes" identifier="LCxZYf0gqs"/>
      <point x="64" y="347" identifier="jQTr5A9izQ"/>
      <point x="151" y="264" identifier="OwWX1sXYb1"/>
      <point x="273" y="264" type="curve" smooth="yes" identifier="tVEpvGWFHW"/>
      <point x="360" y="264" identifier="5hQLD7URAj"/>
      <point x="411" y="307" identifier="BInSPRMsK0"/>
      <point x="445" y="364" type="curve" identifier="pjP0gcsDem"/>
      <point x="450" y="362" type="line" identifier="LXbMpO4sXx"/>
      <point x="411" y="200" identifier="jyGafOCRSN"/>
      <point x="327" y="109" identifier="s7WilyUECM"/>
      <point x="175" y="0" type="curve" identifier="yqxrDnm2dF"/>
      <point x="283" y="0" type="line" identifier="lF9zbHY62x"/>
      <point x="397" y="73" identifier="miiFiczrPp"/>
      <point x="536" y="235" identifier="SBopFklOaL"/>
    </contour>
    <contour>
      <point x="300" y="333" type="curve" smooth="yes" identifier="IYxNBgKT4w"/>
      <point x="205" y="333" identifier="r7OXjvQc4O"/>
      <point x="149" y="388" identifier="vYrrwEcdBS"/>
      <point x="149" y="482" type="curve" smooth="yes" identifier="eA00ENRAdV"/>
      <point x="149" y="490" type="line" smooth="yes" identifier="DcggxQFXiw"/>
      <point x="149" y="584" identifier="BBB9WAVymW"/>
      <point x="205" y="639" identifier="K63fJGhVqJ"/>
      <point x="300" y="639" type="curve" smooth="yes" identifier="rudf6zG6Bq"/>
      <point x="395" y="639" identifier="RUrrdWfWvR"/>
      <point x="451" y="584" identifier="7QsZaRX0k9"/>
      <point x="451" y="490" type="curve" smooth="yes" identifier="RrwVlRhdPy"/>
      <point x="451" y="482" type="line" smooth="yes" identifier="l9oiIv3JpF"/>
      <point x="451" y="388" identifier="S0UXDucMqq"/>
      <point x="395" y="333" identifier="sLESxfUWOj"/>
    </contour>
  </outline>
</glyph>
<glyph name="less" format="2">
  <advance width="600"/>
  <unicode hex="003C"/>
  <outline>
    <contour>
      <point x="515" y="16" type="line" identifier="fFnNqta8FJ"/>
      <point x="515" y="101" type="line" identifier="khGCMgZFW0"/>
      <point x="160" y="302" type="line" identifier="ZoP87z2X6c"/>
      <point x="160" y="310" type="line" identifier="fnXkJT8T38"/>
      <point x="515" y="511" type="line" identifier="1XZRFMPeC0"/>
      <point x="515" y="594" type="line" identifier="2WWJv23eVa"/>
      <point x="85" y="345" type="line" identifier="vcmfiW7Ovh"/>
      <point x="85" y="265" type="line" identifier="F77w1VJANO"/>
    </contour>
  </outline>
</glyph>
<glyph name="equal" format="2">
  <advance width="600"/>
  <unicode hex="003D"/>
  <outline>
    <contour>
      <point x="538" y="372" type="line" identifier="b2MUPmVSpF"/>
      <point x="538" y="440" type="line" identifier="WKAhpB2y8O"/>
      <point x="62" y="440" type="line" identifier="3tQiNrSPLp"/>
      <point x="62" y="372" type="line" identifier="46mVIhHHPo"/>
    </contour>
    <contour>
      <point x="538" y="172" type="line" identifier="tKCByTgpct"/>
      <point x="538" y="240" type="line" identifier="W01X9aLcBR"/>
      <point x="62" y="240" type="line" identifier="ju6z2kxZWv"/>
      <point x="62" y="172" type="line" identifier="FqnENBKred"/>
    </contour>
  </outline>
</glyph>
<glyph name="greater" format="2">
  <advance width="600"/>
  <unicode hex="003E"/>
  <outline>
    <contour>
      <point x="85" y="16" type="line" identifier="DpqRU8JjHd"/>
      <point x="515" y="265" type="line" identifier="cBy2pb38Uw"/>
      <point x="515" y="345" type="line" identifier="rv3fjdT650"/>
      <point x="85" y="594" type="line" identifier="TPwYdPGZkY"/>
      <point x="85" y="509" type="line" identifier="1EnTDnjzWr"/>
      <point x="440" y="308" type="line" identifier="6NBW1f2ldr"/>
      <point x="440" y="300" type="line" identifier="SYxAK35fy1"/>
      <point x="85" y="99" type="line" identifier="PzHorsJdYk"/>
    </contour>
  </outline>
</glyph>
<glyph name="question" format="2">
  <advance width="600"/>
  <unicode hex="003F"/>
  <outline>
    <contour>
      <point x="318" y="215" type="line" identifier="zwxjfEBCJh"/>
      <point x="318" y="316" type="line" identifier="CmFqyb7b9k"/>
      <point x="412" y="333" identifier="JM6CQeZ21g"/>
      <point x="510" y="395" identifier="Sp98lVRciF"/>
      <point x="510" y="521" type="curve" smooth="yes" identifier="eFYpFIIDQn"/>
      <point x="510" y="636" identifier="o7OhT1rBE8"/>
      <point x="428" y="710" identifier="MaDcY5ZaHC"/>
      <point x="301" y="710" type="curve" smooth="yes" identifier="nEi3QGNkic"/>
      <point x="173" y="710" identifier="RQQM3xGXXs"/>
      <point x="103" y="636" identifier="hrLDnMACEV"/>
      <point x="77" y="548" type="curve" identifier="X7YC9ZMzqL"/>
      <point x="152" y="520" type="line" identifier="Ueg9IpIcTa"/>
      <point x="170" y="587" identifier="IY4tAGY9Wg"/>
      <point x="218" y="637" identifier="cioIJFqtf9"/>
      <point x="298" y="637" type="curve" smooth="yes" identifier="1iPkMCLQl3"/>
      <point x="375" y="637" identifier="xJ3Om16HGG"/>
      <point x="423" y="599" identifier="qGhMooHO7b"/>
      <point x="423" y="525" type="curve" smooth="yes" identifier="QydQ93yfQr"/>
      <point x="423" y="511" type="line" smooth="yes" identifier="CQWXmNMJ90"/>
      <point x="423" y="421" identifier="MVNH3bRjWh"/>
      <point x="353" y="377" identifier="TAzNe1LkNv"/>
      <point x="239" y="372" type="curve" identifier="jGMRbYZHn2"/>
      <point x="239" y="215" type="line" identifier="S5k4rTL5oU"/>
    </contour>
    <contour>
      <point x="282" y="-9" type="curve" smooth="yes" identifier="ivJgQJmhtX"/>
      <point x="336" y="-9" identifier="nXEE5QpRqq"/>
      <point x="356" y="17" identifier="A2jHVC4f09"/>
      <point x="356" y="51" type="curve" smooth="yes" identifier="hpbdRGPKFA"/>
      <point x="356" y="69" type="line" smooth="yes" identifier="TbDkvOKIVB"/>
      <point x="356" y="103" identifier="12rDumDP1G"/>
      <point x="336" y="129" identifier="cTX2koEDUx"/>
      <point x="282" y="129" type="curve" smooth="yes" identifier="wUByerO9KR"/>
      <point x="228" y="129" identifier="VM3tW01zCZ"/>
      <point x="208" y="103" identifier="ctEiMcxi5c"/>
      <point x="208" y="69" type="curve" smooth="yes" identifier="nITbDpHr00"/>
      <point x="208" y="51" type="line" smooth="yes" identifier="a4A7VPtpCK"/>
      <point x="208" y="17" identifier="EkMxWcEY8A"/>
      <point x="228" y="-9" identifier="u8DV66ZNrs"/>
    </contour>
  </outline>
</glyph>
<glyph name="at" format="2">
  <advance width="600"/>
  <unicode hex="0040"/>
  <outline>
    <contour>
      <point x="454" y="-48" type="line" identifier="AEWkFYomIX"/>
      <point x="331" y="-48" type="line" smooth="yes" identifier="zpuKy4rhUj"/>
      <point x="172" y="-48" identifier="F18wvkK8j8"/>
      <point x="137" y="74" identifier="dVutKCmdyJ"/>
      <point x="137" y="229" type="curve" smooth="yes" identifier="zrKAF3gfof"/>
      <point x="137" y="358" type="line" smooth="yes" identifier="bmgGcgq8Ww"/>
      <point x="137" y="559" identifier="NVYA9RZt85"/>
      <point x="184" y="646" identifier="TAGh2wYpl3"/>
      <point x="303" y="646" type="curve" smooth="yes" identifier="6fcPricT1C"/>
      <point x="410" y="646" identifier="PqFYrutWWF"/>
      <point x="454" y="576" identifier="2cSXm2Fpg0"/>
      <point x="454" y="463" type="curve" smooth="yes" identifier="NC5cXIYPN9"/>
      <point x="454" y="439" type="line" identifier="miCjDdcFEF"/>
      <point x="449" y="439" type="line" identifier="5KsJftxMSw"/>
      <point x="436" y="473" identifier="NxPK45wNDI"/>
      <point x="408" y="508" identifier="dkIf5p9K0W"/>
      <point x="349" y="508" type="curve" smooth="yes" identifier="WT9cZUHvPc"/>
      <point x="268" y="508" identifier="9nk509vpL9"/>
      <point x="216" y="441" identifier="6qD1KVDlsY"/>
      <point x="216" y="293" type="curve" smooth="yes" identifier="Z3vvLSZSJO"/>
      <point x="216" y="146" identifier="sBJIvhYq7p"/>
      <point x="268" y="79" identifier="jOHAMIVAeH"/>
      <point x="349" y="79" type="curve" smooth="yes" identifier="uplcOsdabb"/>
      <point x="408" y="79" identifier="FanCY7gWiQ"/>
      <point x="436" y="114" identifier="zkxuGkxRw7"/>
      <point x="449" y="148" type="curve" identifier="wQYtkl117h"/>
      <point x="454" y="148" type="line" identifier="bIH1V7Caby"/>
      <point x="454" y="91" type="line" identifier="fbpe42ygUI"/>
      <point x="525" y="91" type="line" identifier="8VHOw3WL6V"/>
      <point x="525" y="463" type="line" smooth="yes" identifier="hZ0LZhSvw9"/>
      <point x="525" y="603" identifier="ZtbF21ncaZ"/>
      <point x="461" y="710" identifier="UucNTL2q8q"/>
      <point x="301" y="710" type="curve" smooth="yes" identifier="5DMlodOLNF"/>
      <point x="145" y="710" identifier="jE0L3DD8ku"/>
      <point x="62" y="609" identifier="l1qUPfK8py"/>
      <point x="62" y="300" type="curve" smooth="yes" identifier="xjFRadJuq9"/>
      <point x="62" y="24" identifier="PQd34JFbbb"/>
      <point x="128" y="-112" identifier="G5npbH1YNS"/>
      <point x="331" y="-112" type="curve" smooth="yes" identifier="4b2xj8ixMB"/>
      <point x="454" y="-112" type="line" identifier="P8iUjwhES6"/>
    </contour>
    <contour>
      <point x="375" y="139" type="curve" smooth="yes" identifier="zaVu2rY5SU"/>
      <point x="320" y="139" identifier="wKdiKsGAbd"/>
      <point x="290" y="174" identifier="6nAdYeacam"/>
      <point x="290" y="263" type="curve" identifier="LGTyuypw1g"/>
      <point x="290" y="324" type="line" smooth="yes" identifier="LqwyGd3Mww"/>
      <point x="290" y="413" identifier="g6d41xhbsy"/>
      <point x="320" y="448" identifier="UMP9JSls5T"/>
      <point x="375" y="448" type="curve" smooth="yes" identifier="DHNgxaiIlm"/>
      <point x="423" y="448" identifier="0nrYQUxx3F"/>
      <point x="454" y="421" identifier="2F4DI8YAEA"/>
      <point x="454" y="370" type="curve" smooth="yes" identifier="8tJKdKdwnl"/>
      <point x="454" y="217" type="line" smooth="yes" identifier="5F4kC0Lx70"/>
      <point x="454" y="166" identifier="fcT52cYMkS"/>
      <point x="423" y="139" identifier="klbR6trPsg"/>
    </contour>
  </outline>
</glyph>
<glyph name="A" format="2">
  <advance width="600"/>
  <unicode hex="0041"/>
  <anchor x="300.0" y="0.0" name="bottom"/>
  <anchor x="570.0" y="0.0" name="bottomright"/>
  <anchor x="300.0" y="698.0" name="top"/>
  <outline>
    <contour>
      <point x="570" y="0" type="line" identifier="jiZziAEfvN"/>
      <point x="356" y="698" type="line" identifier="36KcDoXcMk"/>
      <point x="245" y="698" type="line" identifier="H6eviR2NbN"/>
      <point x="31" y="0" type="line" identifier="3ZxokrrTlj"/>
      <point x="118" y="0" type="line" identifier="qSUO5gFitV"/>
      <point x="177" y="199" type="line" identifier="ymgSBSMZXL"/>
      <point x="422" y="199" type="line" identifier="67eonKuP7C"/>
      <point x="481" y="0" type="line" identifier="79YlUMoYnq"/>
    </contour>
    <contour>
      <point x="402" y="272" type="line" identifier="hmW0Y51ZTR"/>
      <point x="197" y="272" type="line" identifier="LBcUVY58ZV"/>
      <point x="295" y="609" type="line" identifier="pbSBd3B0fj"/>
      <point x="304" y="609" type="line" identifier="GqyOwp5cum"/>
    </contour>
  </outline>
</glyph>
<glyph name="B" format="2">
  <advance width="600"/>
  <unicode hex="0042"/>
  <anchor x="315.0" y="0.0" name="bottom"/>
  <anchor x="295.0" y="698.0" name="top"/>
  <outline>
    <contour>
      <point x="88" y="0" type="line" identifier="MLg6FIQgQ9"/>
      <point x="355" y="0" type="line" smooth="yes" identifier="UvSCXb02XG"/>
      <point x="463" y="0" identifier="ICVC98P2bC"/>
      <point x="543" y="88" identifier="bGI2MRFEMy"/>
      <point x="543" y="201" type="curve" smooth="yes" identifier="G5ym39hmdH"/>
      <point x="543" y="298" identifier="XYyxvwgq04"/>
      <point x="486" y="347" identifier="ddzOXeIeBX"/>
      <point x="408" y="365" type="curve" identifier="lfrVLOEIPS"/>
      <point x="408" y="368" type="line" identifier="lhpAVDfoEc"/>
      <point x="472" y="388" identifier="YZPC6x3iBi"/>
      <point x="517" y="435" identifier="Oqee7LYOy1"/>
      <point x="517" y="518" type="curve" smooth="yes" identifier="WBWdxToWVN"/>
      <point x="517" y="627" identifier="DGXnb0TPOf"/>
      <point x="444" y="698" identifier="8X5erz5LPF"/>
      <point x="325" y="698" type="curve" smooth="yes" identifier="xQmqZ5o0bW"/>
      <point x="88" y="698" type="line" identifier="YwDadU2k8Y"/>
    </contour>
    <contour>
      <point x="172" y="73" type="line" identifier="B2kW6uiviO"/>
      <point x="172" y="326" type="line" identifier="gnSjY57bpv"/>
      <point x="330" y="326" type="line" smooth="yes" identifier="rIOgebuYKp"/>
      <point x="407" y="326" identifier="mCLxJddAzi"/>
      <point x="454" y="290" identifier="WoD9R4pyOH"/>
      <point x="454" y="220" type="curve" smooth="yes" identifier="ssVcjT1OS3"/>
      <point x="454" y="179" type="line" smooth="yes" identifier="18b0GJiTbu"/>
      <point x="454" y="108" identifier="7z0UriyUhd"/>
      <point x="407" y="73" identifier="Lx5HE8ftmz"/>
      <point x="330" y="73" type="curve" smooth="yes" identifier="C0uCRprfrp"/>
    </contour>
    <contour>
      <point x="172" y="395" type="line" identifier="2yLhY4fU3x"/>
      <point x="172" y="625" type="line" identifier="0Ol6mOsPBg"/>
      <point x="316" y="625" type="line" smooth="yes" identifier="eFHBoTvG5I"/>
      <point x="386" y="625" identifier="MKogp9ztMQ"/>
      <point x="429" y="593" identifier="pCHaKrRrPo"/>
      <point x="429" y="529" type="curve" smooth="yes" identifier="X6cVbKx43i"/>
      <point x="429" y="490" type="line" smooth="yes" identifier="flpRZF6XcK"/>
      <point x="429" y="426" identifier="12r07iuYeL"/>
      <point x="386" y="395" identifier="nHDfp22ByF"/>
      <point x="316" y="395" type="curve" smooth="yes" identifier="gFoMaYzBq0"/>
    </contour>
  </outline>
</glyph>
<glyph name="C" format="2">
  <advance width="600"/>
  <unicode hex="0043"/>
  <anchor x="308.0" y="0.0" name="bottom"/>
  <anchor x="328.0" y="698.0" name="top"/>
  <outline>
    <contour>
      <point x="323" y="-12" type="curve" smooth="yes" identifier="ChE95OoRU4"/>
      <point x="451" y="-12" identifier="IheZvZO3Wm"/>
      <point x="504" y="65" identifier="booQAPh5TX"/>
      <point x="538" y="141" type="curve" identifier="oZHNjzEzh4"/>
      <point x="466" y="174" type="line" identifier="tckQzHmT1J"/>
      <point x="441" y="112" identifier="9NKFTShqLh"/>
      <point x="408" y="61" identifier="glsTk1Rcjp"/>
      <point x="323" y="61" type="curve" smooth="yes" identifier="zTcld373iD"/>
      <point x="212" y="61" identifier="ENiUfHVEBf"/>
      <point x="159" y="152" identifier="VETgfvLp4I"/>
      <point x="159" y="292" type="curve" smooth="yes" identifier="zb8invkAxs"/>
      <point x="159" y="406" type="line" smooth="yes" identifier="xQxommkhsz"/>
      <point x="159" y="546" identifier="trfeK5vOXX"/>
      <point x="212" y="637" identifier="99zWQ2fHSc"/>
      <point x="323" y="637" type="curve" smooth="yes" identifier="kIHssapL2P"/>
      <point x="408" y="637" identifier="YWbRepzQWC"/>
      <point x="441" y="586" identifier="ii0EH9ucTR"/>
      <point x="466" y="524" type="curve" identifier="Nkb0e1ac2M"/>
      <point x="538" y="557" type="line" identifier="ppAAEK3gxY"/>
      <point x="504" y="633" identifier="WewOrcEwZb"/>
      <point x="451" y="710" identifier="92ZvLgxB4B"/>
      <point x="323" y="710" type="curve" smooth="yes" identifier="M0HfdRt6aD"/>
      <point x="153" y="710" identifier="aFfJvpyEZx"/>
      <point x="70" y="581" identifier="MLn3aYPbt1"/>
      <point x="70" y="349" type="curve" smooth="yes" identifier="DDJpsTyTo7"/>
      <point x="70" y="117" identifier="jDNd2lpWTM"/>
      <point x="153" y="-12" identifier="zFVdFfZUPQ"/>
    </contour>
  </outline>
</glyph>
<glyph name="D" format="2">
  <advance width="600"/>
  <unicode hex="0044"/>
  <anchor x="277.0" y="0.0" name="bottom"/>
  <anchor x="277.0" y="698.0" name="top"/>
  <outline>
    <contour>
      <point x="95" y="0" type="line" identifier="Pkuy0KkO0U"/>
      <point x="290" y="0" type="line" identifier="GI7djvlEku"/>
      <point x="460" y="0" identifier="nBYAkOYWJl"/>
      <point x="544" y="120" identifier="AJ5VpfjRyc"/>
      <point x="544" y="349" type="curve" smooth="yes" identifier="dtKe9OuSfy"/>
      <point x="544" y="578" identifier="fcoqhqKaBa"/>
      <point x="460" y="698" identifier="RvBcRyqKuz"/>
      <point x="290" y="698" type="curve" smooth="yes" identifier="f5u1XSTkCb"/>
      <point x="95" y="698" type="line" identifier="byd4eP4k0y"/>
    </contour>
    <contour>
      <point x="179" y="73" type="line" identifier="jm6l2ZxLeh"/>
      <point x="179" y="625" type="line" identifier="ncZvqFkXwz"/>
      <point x="286" y="625" type="line" smooth="yes" identifier="23Ir05FwWg"/>
      <point x="397" y="625" identifier="HJcoTXIYa6"/>
      <point x="455" y="543" identifier="YE69xy9Pzb"/>
      <point x="455" y="403" type="curve" smooth="yes" identifier="WzL6w2fDj3"/>
      <point x="455" y="295" type="line" identifier="uJTxuHwxQF"/>
      <point x="455" y="155" identifier="n8iGU17Sq8"/>
      <point x="397" y="73" identifier="mOsZxos8sa"/>
      <point x="286" y="73" type="curve" smooth="yes" identifier="XHZtf9rmZt"/>
    </contour>
  </outline>
</glyph>
<glyph name="E" format="2">
  <advance width="600"/>
  <unicode hex="0045"/>
  <anchor x="305.0" y="0.0" name="bottom"/>
  <anchor x="520.0" y="0.0" name="bottomright"/>
  <anchor x="305.0" y="698.0" name="top"/>
  <outline>
    <contour>
      <point x="520" y="0" type="line" identifier="YNCf7E4yYi"/>
      <point x="520" y="73" type="line" identifier="kVjCpmOOen"/>
      <point x="174" y="73" type="line" identifier="F9qLSnk7eD"/>
      <point x="174" y="317" type="line" identifier="qDS2Ague53"/>
      <point x="508" y="317" type="line" identifier="qTbqyUkSDT"/>
      <point x="508" y="390" type="line" identifier="SqeRp6jV73"/>
      <point x="174" y="390" type="line" identifier="dRmYJYaySJ"/>
      <point x="174" y="625" type="line" identifier="lnUFRLBEbW"/>
      <point x="520" y="625" type="line" identifier="v247KReHh5"/>
      <point x="520" y="698" type="line" identifier="23WBN3k9BO"/>
      <point x="90" y="698" type="line" identifier="VwW2lMJ0rA"/>
      <point x="90" y="0" type="line" identifier="4QjUUje1zH"/>
    </contour>
  </outline>
</glyph>
<glyph name="F" format="2">
  <advance width="600"/>
  <unicode hex="0046"/>
  <anchor x="132.0" y="0.0" name="bottom"/>
  <anchor x="310.0" y="698.0" name="top"/>
  <outline>
    <contour>
      <point x="174" y="0" type="line" identifier="YmF0D6J5uA"/>
      <point x="174" y="317" type="line" identifier="70gpviH6y8"/>
      <point x="500" y="317" type="line" identifier="WTQ3NaZmNC"/>
      <point x="500" y="390" type="line" identifier="cVp2rg9F8d"/>
      <point x="174" y="390" type="line" identifier="Mqo2TdDDZv"/>
      <point x="174" y="625" type="line" identifier="Xb4OsUAwO4"/>
      <point x="530" y="625" type="line" identifier="OwuqN6yOOq"/>
      <point x="530" y="698" type="line" identifier="6wEFTkUs0t"/>
      <point x="90" y="698" type="line" identifier="BhHbLvONHb"/>
      <point x="90" y="0" type="line" identifier="OOdQny9SvK"/>
    </contour>
  </outline>
</glyph>
<glyph name="G" format="2">
  <advance width="600"/>
  <unicode hex="0047"/>
  <anchor x="300.0" y="0.0" name="bottom"/>
  <anchor x="306.0" y="698.0" name="top"/>
  <outline>
    <contour>
      <point x="444" y="0" type="line" identifier="R5HzSHXvGt"/>
      <point x="522" y="0" type="line" identifier="tlOq1MCFh2"/>
      <point x="522" y="345" type="line" identifier="SxeEemd1Le"/>
      <point x="297" y="345" type="line" identifier="MDfdSlbuSp"/>
      <point x="297" y="278" type="line" identifier="LsISwzFUs5"/>
      <point x="444" y="278" type="line" identifier="mtkh0PeE8u"/>
      <point x="444" y="206" type="line" smooth="yes" identifier="MGJqN2pWy4"/>
      <point x="444" y="120" identifier="CFqtIZbldI"/>
      <point x="390" y="59" identifier="qokt4WP9o7"/>
      <point x="300" y="59" type="curve" smooth="yes" identifier="SpkGbgBfm1"/>
      <point x="186" y="59" identifier="0rVi2W5fY1"/>
      <point x="145" y="158" identifier="zMDoGipcMF"/>
      <point x="145" y="298" type="curve" smooth="yes" identifier="iCH2LC9GLe"/>
      <point x="145" y="406" type="line" smooth="yes" identifier="8RHNENhbU7"/>
      <point x="145" y="546" identifier="sJgfG9qFod"/>
      <point x="196" y="637" identifier="zngnA7ddOU"/>
      <point x="308" y="637" type="curve" smooth="yes" identifier="e73QpZ6Rey"/>
      <point x="392" y="637" identifier="TFaA2IMd2N"/>
      <point x="425" y="586" identifier="oALh6fSPrm"/>
      <point x="450" y="524" type="curve" identifier="RtWEyPq4ik"/>
      <point x="522" y="557" type="line" identifier="4OHyqVLbAD"/>
      <point x="492" y="633" identifier="qfNFwlTxqu"/>
      <point x="436" y="710" identifier="oPq0MgYNK6"/>
      <point x="305" y="710" type="curve" smooth="yes" identifier="oXI2YXNL1O"/>
      <point x="137" y="710" identifier="3hn1Xcadt1"/>
      <point x="56" y="582" identifier="vGoL31E8Nq"/>
      <point x="56" y="344" type="curve" smooth="yes" identifier="dTUvFt9YMf"/>
      <point x="56" y="116" identifier="D9LfgBsr72"/>
      <point x="130" y="-12" identifier="QLM4GHLNJi"/>
      <point x="281" y="-12" type="curve" smooth="yes" identifier="ksqftXwCzp"/>
      <point x="377" y="-12" identifier="rZ9CKHgO42"/>
      <point x="416" y="39" identifier="Ye7L5Dom8Z"/>
      <point x="439" y="93" type="curve" identifier="fagElxcHeB"/>
      <point x="444" y="93" type="line" identifier="Mo2pFNN3uh"/>
    </contour>
  </outline>
</glyph>
<glyph name="H" format="2">
  <advance width="600"/>
  <unicode hex="0048"/>
  <anchor x="300.0" y="0.0" name="bottom"/>
  <anchor x="300.0" y="698.0" name="top"/>
  <outline>
    <contour>
      <point x="436" y="0" type="line" identifier="HPz3K0Pb3f"/>
      <point x="520" y="0" type="line" identifier="JNRVYKNyl1"/>
      <point x="520" y="698" type="line" identifier="pOZZMpc6yr"/>
      <point x="436" y="698" type="line" identifier="RAZsvswUi3"/>
      <point x="436" y="390" type="line" identifier="7nPZgcD9Z9"/>
      <point x="164" y="390" type="line" identifier="d2If1irMag"/>
      <point x="164" y="698" type="line" identifier="Gs6fIXRKAV"/>
      <point x="80" y="698" type="line" identifier="xSnyx5riGc"/>
      <point x="80" y="0" type="line" identifier="QMHRhbcFUQ"/>
      <point x="164" y="0" type="line" identifier="GRaHnd6WUL"/>
      <point x="164" y="317" type="line" identifier="tMpAYnNN0f"/>
      <point x="436" y="317" type="line" identifier="HAFxV9Cmjg"/>
    </contour>
  </outline>
</glyph>
<glyph name="I" format="2">
  <advance width="600"/>
  <unicode hex="0049"/>
  <anchor x="300.0" y="0.0" name="bottom"/>
  <anchor x="516.0" y="0.0" name="bottomright"/>
  <anchor x="300.0" y="698.0" name="top"/>
  <outline>
    <contour>
      <point x="516" y="0" type="line" identifier="HB1Saume8Y"/>
      <point x="516" y="67" type="line" identifier="4p1W7XOKP1"/>
      <point x="342" y="67" type="line" identifier="G1pg5tYpBm"/>
      <point x="342" y="631" type="line" identifier="MpbrlYsDjw"/>
      <point x="516" y="631" type="line" identifier="i6ZvPK4Gyz"/>
      <point x="516" y="698" type="line" identifier="bpHRuL76LC"/>
      <point x="84" y="698" type="line" identifier="kndUuG57dk"/>
      <point x="84" y="631" type="line" identifier="PcX34Yfv17"/>
      <point x="258" y="631" type="line" identifier="ne4pviyOen"/>
      <point x="258" y="67" type="line" identifier="OhTWGUpCMY"/>
      <point x="84" y="67" type="line" identifier="M1RYvyrlA3"/>
      <point x="84" y="0" type="line" identifier="t8v72NiehV"/>
    </contour>
  </outline>
</glyph>
<glyph name="J" format="2">
  <advance width="600"/>
  <unicode hex="004A"/>
  <anchor x="277.0" y="0.0" name="bottom"/>
  <anchor x="313.0" y="698.0" name="top"/>
  <outline>
    <contour>
      <point x="144" y="698" type="line" identifier="imvKqeWZIf"/>
      <point x="144" y="625" type="line" identifier="ZFVyLtAt56"/>
      <point x="396" y="625" type="line" identifier="8TMH59qZ9j"/>
      <point x="396" y="196" type="line" smooth="yes" identifier="wLaohqQ3MA"/>
      <point x="396" y="105" identifier="wtCQZBbKH4"/>
      <point x="352" y="62" identifier="lM6yWwGqDv"/>
      <point x="276" y="62" type="curve" smooth="yes" identifier="iiKrqho1Hd"/>
      <point x="198" y="62" identifier="pPMFiSVcs7"/>
      <point x="167" y="107" identifier="LixTnmanrQ"/>
      <point x="154" y="163" type="curve" identifier="L9491BvHzg"/>
      <point x="74" y="146" type="line" identifier="iGxuZNjDD3"/>
      <point x="95" y="46" identifier="OEbnqKHUwA"/>
      <point x="168" y="-12" identifier="tXNo2ZoRpX"/>
      <point x="274" y="-12" type="curve" smooth="yes" identifier="M5Qm4uVvZM"/>
      <point x="395" y="-12" identifier="1VpYK8Sh8k"/>
      <point x="480" y="63" identifier="xSxiETWNma"/>
      <point x="480" y="181" type="curve" identifier="zi5mPflEAT"/>
      <point x="480" y="698" type="line" identifier="AjI1nuMGLu"/>
    </contour>
  </outline>
</glyph>
<glyph name="K" format="2">
  <advance width="600"/>
  <unicode hex="004B"/>
  <anchor x="322.0" y="0.0" name="bottom"/>
  <anchor x="313.0" y="698.0" name="top"/>
  <outline>
    <contour>
      <point x="480" y="0" type="line" identifier="8AjcfWbfr0"/>
      <point x="578" y="0" type="line" identifier="6LC0cdr6Hz"/>
      <point x="326" y="404" type="line" identifier="FYECtFDBVz"/>
      <point x="571" y="698" type="line" identifier="upA92PBkMB"/>
      <point x="470" y="698" type="line" identifier="EdOH2OLqKo"/>
      <point x="264" y="450" type="line" identifier="E93TksRyWR"/>
      <point x="172" y="334" type="line" identifier="rYI1R9LQBf"/>
      <point x="169" y="334" type="line" identifier="QUj5iGfomW"/>
      <point x="169" y="698" type="line" identifier="FkY6yZRt46"/>
      <point x="85" y="698" type="line" identifier="PRuTQEfpww"/>
      <point x="85" y="0" type="line" identifier="BzSL1NqRqO"/>
      <point x="169" y="0" type="line" identifier="yZkRBpZaoS"/>
      <point x="169" y="224" type="line" identifier="R3RoKEEOnk"/>
      <point x="269" y="342" type="line" identifier="4EvZnT5h9G"/>
    </contour>
  </outline>
</glyph>
<glyph name="L" format="2">
  <advance width="600"/>
  <unicode hex="004C"/>
  <anchor x="327.0" y="0.0" name="bottom"/>
  <anchor x="162.0" y="698.0" name="top"/>
  <anchor x="290.0" y="740.0" name="topright"/>
  <outline>
    <contour>
      <point x="535" y="0" type="line" identifier="zLwUpDuhXD"/>
      <point x="535" y="73" type="line" identifier="Zb4Fe1bQXP"/>
      <point x="204" y="73" type="line" identifier="sd85M21cho"/>
      <point x="204" y="698" type="line" identifier="Rqv3gbfe6S"/>
      <point x="120" y="698" type="line" identifier="iVt1c030QW"/>
      <point x="120" y="0" type="line" identifier="OFeuQEt5eb"/>
    </contour>
  </outline>
</glyph>
<glyph name="M" format="2">
  <advance width="600"/>
  <unicode hex="004D"/>
  <anchor x="300.0" y="0.0" name="bottom"/>
  <anchor x="300.0" y="698.0" name="top"/>
  <outline>
    <contour>
      <point x="455" y="0" type="line" identifier="FNGlyBA3ja"/>
      <point x="532" y="0" type="line" identifier="lUZBC21os5"/>
      <point x="532" y="698" type="line" identifier="Jd1ICj22Ch"/>
      <point x="428" y="698" type="line" identifier="FKS6oQ2vaZ"/>
      <point x="305" y="390" type="line" identifier="iRC6FKIgIY"/>
      <point x="299" y="390" type="line" identifier="sMx2CTkjEM"/>
      <point x="176" y="698" type="line" identifier="spZlOlBM0U"/>
      <point x="68" y="698" type="line" identifier="mPdh89VREZ"/>
      <point x="68" y="0" type="line" identifier="vOGcB8Eood"/>
      <point x="145" y="0" type="line" identifier="cPjgAuOxNV"/>
      <point x="145" y="350" type="line" identifier="YSLynwgDkv"/>
      <point x="145" y="571" type="line" identifier="MRr77Yg9Ot"/>
      <point x="153" y="571" type="line" identifier="oeU8oJ7KFE"/>
      <point x="300" y="212" type="line" identifier="XYCHpqVi4C"/>
      <point x="447" y="571" type="line" identifier="3ioOqD3tSS"/>
      <point x="455" y="571" type="line" identifier="FZDarqYo4k"/>
      <point x="455" y="350" type="line" identifier="UhyN8mdrUV"/>
    </contour>
  </outline>
</glyph>
<glyph name="N" format="2">
  <advance width="600"/>
  <unicode hex="004E"/>
  <anchor x="300.0" y="0.0" name="bottom"/>
  <anchor x="300.0" y="698.0" name="top"/>
  <outline>
    <contour>
      <point x="401" y="0" type="line" identifier="5GCXidyZCY"/>
      <point x="520" y="0" type="line" identifier="3RxejYxyQn"/>
      <point x="520" y="698" type="line" identifier="tqweoOplJd"/>
      <point x="444" y="698" type="line" identifier="4fPiaOJItS"/>
      <point x="444" y="110" type="line" identifier="xDv7wlHlrb"/>
      <point x="437" y="110" type="line" identifier="bKCTVizRSx"/>
      <point x="199" y="698" type="line" identifier="QU65r1s5Be"/>
      <point x="80" y="698" type="line" identifier="CL9hztICXo"/>
      <point x="80" y="0" type="line" identifier="9n56GQmhZ8"/>
      <point x="156" y="0" type="line" identifier="vNL52Q5eEG"/>
      <point x="156" y="588" type="line" identifier="SjM29xdd1h"/>
      <point x="163" y="588" type="line" identifier="WvRD52KCJk"/>
    </contour>
  </outline>
</glyph>
<glyph name="O" format="2">
  <advance width="600"/>
  <unicode hex="004F"/>
  <anchor x="300.0" y="0.0" name="bottom"/>
  <anchor x="300.0" y="698.0" name="top"/>
  <outline>
    <contour>
      <point x="300" y="-12" type="curve" smooth="yes" identifier="UgZxIS6dKg"/>
      <point x="470" y="-12" identifier="wQxFivKoGD"/>
      <point x="544" y="121" identifier="qZLp4djsnJ"/>
      <point x="544" y="349" type="curve" smooth="yes" identifier="YsZBJKuhSz"/>
      <point x="544" y="577" identifier="T2GfEBMjFE"/>
      <point x="470" y="710" identifier="V19q2jqFI7"/>
      <point x="300" y="710" type="curve" smooth="yes" identifier="Qd1pe2CiLe"/>
      <point x="130" y="710" identifier="cOMJwJ58ql"/>
      <point x="56" y="577" identifier="xnuwvXWHWt"/>
      <point x="56" y="349" type="curve" smooth="yes" identifier="RnKs7URVvO"/>
      <point x="56" y="121" identifier="VFuRshhkO5"/>
      <point x="130" y="-12" identifier="n9372Y14u9"/>
    </contour>
    <contour>
      <point x="300" y="61" type="curve" smooth="yes" identifier="ZJkfj39slz"/>
      <point x="189" y="61" identifier="NKrG8dmdGI"/>
      <point x="145" y="152" identifier="LAkBi8K53n"/>
      <point x="145" y="292" type="curve" smooth="yes" identifier="a5iqlCKcJa"/>
      <point x="145" y="406" type="line" smooth="yes" identifier="3KKJMEBHNR"/>
      <point x="145" y="546" identifier="HUiUakws96"/>
      <point x="189" y="637" identifier="QDQNCA6ZSx"/>
      <point x="300" y="637" type="curve" smooth="yes" identifier="eCVUza6ep0"/>
      <point x="411" y="637" identifier="loDaw6a4Zc"/>
      <point x="455" y="546" identifier="Fc2YoeYgzC"/>
      <point x="455" y="406" type="curve" smooth="yes" identifier="oCa1BU6n7X"/>
      <point x="455" y="292" type="line" identifier="U9ewb9O7YO"/>
      <point x="455" y="152" identifier="NLw48RTBXe"/>
      <point x="411" y="61" identifier="Coedj6OgM3"/>
    </contour>
  </outline>
</glyph>
<glyph name="P" format="2">
  <advance width="600"/>
  <unicode hex="0050"/>
  <anchor x="132.0" y="0.0" name="bottom"/>
  <anchor x="300.0" y="698.0" name="top"/>
  <outline>
    <contour>
      <point x="174" y="0" type="line" identifier="CtBvylXf1r"/>
      <point x="174" y="296" type="line" identifier="wVowRvBNQX"/>
      <point x="344" y="296" type="line" smooth="yes" identifier="eWurGgVlrA"/>
      <point x="473" y="296" identifier="aBpvM4s8Ik"/>
      <point x="543" y="371" identifier="auFX1lDuIv"/>
      <point x="543" y="497" type="curve" smooth="yes" identifier="DTUrhwiK4y"/>
      <point x="543" y="623" identifier="FtSbLSfPpP"/>
      <point x="473" y="698" identifier="RrtHzqMURQ"/>
      <point x="344" y="698" type="curve" smooth="yes" identifier="eHeRpqGxh3"/>
      <point x="90" y="698" type="line" identifier="mN4VeAksLk"/>
      <point x="90" y="0" type="line" identifier="af3Dy9i54R"/>
    </contour>
    <contour>
      <point x="174" y="625" type="line" identifier="I2T9cHssJe"/>
      <point x="342" y="625" type="line" smooth="yes" identifier="WD0QsHsTas"/>
      <point x="412" y="625" identifier="uVh2LxwgM1"/>
      <point x="454" y="588" identifier="EpqOtLM9eK"/>
      <point x="454" y="523" type="curve" smooth="yes" identifier="U8Gxnv9nZU"/>
      <point x="454" y="471" type="line" smooth="yes" identifier="m7CUSYAFeu"/>
      <point x="454" y="406" identifier="QyzivHobl6"/>
      <point x="412" y="369" identifier="4jLVtW7J8a"/>
      <point x="342" y="369" type="curve" smooth="yes" identifier="z5gUTNghDE"/>
      <point x="174" y="369" type="line" identifier="4uQTFw5kMw"/>
    </contour>
  </outline>
</glyph>
<glyph name="Q" format="2">
  <advance width="600"/>
  <unicode hex="0051"/>
  <anchor x="300.0" y="698.0" name="top"/>
  <outline>
    <contour>
      <point x="491" y="-96" type="line" identifier="kxt0RYqBfV"/>
      <point x="340" y="-96" type="line" identifier="Ana1ip5dX2"/>
      <point x="340" y="-9" type="line" identifier="r2dHW5gxIh"/>
      <point x="481" y="10" identifier="pQ19SswWje"/>
      <point x="544" y="140" identifier="LBBJ6nANe6"/>
      <point x="544" y="349" type="curve" smooth="yes" identifier="x3pVJQIYMR"/>
      <point x="544" y="577" identifier="3eXkdhvzGG"/>
      <point x="470" y="710" identifier="44FORVrJpr"/>
      <point x="300" y="710" type="curve" smooth="yes" identifier="bOgmQoVwV6"/>
      <point x="130" y="710" identifier="VYkOm8jhQt"/>
      <point x="56" y="577" identifier="xl132GGrUt"/>
      <point x="56" y="349" type="curve" smooth="yes" identifier="IE8LwdmZOl"/>
      <point x="56" y="140" identifier="RqVsr0TFsF"/>
      <point x="118" y="10" identifier="Kxi51JlSY5"/>
      <point x="260" y="-9" type="curve" identifier="YI086rY7O8"/>
      <point x="260" y="-46" type="line" smooth="yes" identifier="0zlzEX4FwS"/>
      <point x="260" y="-115" identifier="552Xu5zZwe"/>
      <point x="296" y="-164" identifier="zJ0Xm34AnS"/>
      <point x="374" y="-164" type="curve" smooth="yes" identifier="z7c4HAwki0"/>
      <point x="491" y="-164" type="line" identifier="9XZXpucMZ3"/>
    </contour>
    <contour>
      <point x="300" y="61" type="curve" smooth="yes" identifier="mfnWgx3yUN"/>
      <point x="189" y="61" identifier="2qwbYtMSlp"/>
      <point x="145" y="152" identifier="ct4Plh5bWb"/>
      <point x="145" y="292" type="curve" smooth="yes" identifier="LNqBMloVON"/>
      <point x="145" y="406" type="line" smooth="yes" identifier="QuvP3xpUMi"/>
      <point x="145" y="546" identifier="vv3dIDU3vL"/>
      <point x="189" y="637" identifier="CDjj59qFEz"/>
      <point x="300" y="637" type="curve" smooth="yes" identifier="mKe7P2Nqzh"/>
      <point x="411" y="637" identifier="x5dcQ3KEwZ"/>
      <point x="455" y="546" identifier="43WTdZvMnr"/>
      <point x="455" y="406" type="curve" smooth="yes" identifier="3FbofpYGmF"/>
      <point x="455" y="292" type="line" smooth="yes" identifier="OyMccPkw8e"/>
      <point x="455" y="152" identifier="azGiEUSoeC"/>
      <point x="411" y="61" identifier="6n6lJxE5wA"/>
    </contour>
  </outline>
</glyph>
<glyph name="R" format="2">
  <advance width="600"/>
  <unicode hex="0052"/>
  <anchor x="308.0" y="0.0" name="bottom"/>
  <anchor x="308.0" y="698.0" name="top"/>
  <outline>
    <contour>
      <point x="174" y="298" type="line" identifier="DYCW8HZnNe"/>
      <point x="285" y="298" type="line" identifier="w52C7Wr09s"/>
      <point x="455" y="0" type="line" identifier="imhAJwj31Y"/>
      <point x="549" y="0" type="line" identifier="GexUFNRI7V"/>
      <point x="371" y="302" type="line" identifier="5pJYNotvzX"/>
      <point x="482" y="313" identifier="X81MMfCoJD"/>
      <point x="543" y="385" identifier="DwTwB6fNWI"/>
      <point x="543" y="497" type="curve" smooth="yes" identifier="JLOM2xun81"/>
      <point x="543" y="623" identifier="vZ4a8iCGkR"/>
      <point x="473" y="698" identifier="1XhoXMfIS4"/>
      <point x="344" y="698" type="curve" smooth="yes" identifier="yFdNrEQQLG"/>
      <point x="90" y="698" type="line" identifier="9KAvt0ackn"/>
      <point x="90" y="0" type="line" identifier="0BoqJ8HddK"/>
      <point x="174" y="0" type="line" identifier="8uK6LwbFx9"/>
    </contour>
    <contour>
      <point x="174" y="369" type="line" identifier="k1zKhPepJI"/>
      <point x="174" y="625" type="line" identifier="ZGx8vZtnQk"/>
      <point x="342" y="625" type="line" smooth="yes" identifier="xVkVVMaqR8"/>
      <point x="412" y="625" identifier="g9SXHjIGuN"/>
      <point x="454" y="588" identifier="r9HqLlp4E0"/>
      <point x="454" y="523" type="curve" smooth="yes" identifier="7Vir9yreZP"/>
      <point x="454" y="471" type="line" smooth="yes" identifier="iNpvXsnQWY"/>
      <point x="454" y="406" identifier="hbF92PgXnN"/>
      <point x="412" y="369" identifier="abGUOlNVbw"/>
      <point x="342" y="369" type="curve" smooth="yes" identifier="zw4qSA5063"/>
    </contour>
  </outline>
</glyph>
<glyph name="S" format="2">
  <advance width="600"/>
  <unicode hex="0053"/>
  <anchor x="297.0" y="0.0" name="bottom"/>
  <anchor x="298.0" y="698.0" name="top"/>
  <outline>
    <contour>
      <point x="298" y="-12" type="curve" smooth="yes" identifier="Vp4r74sV09"/>
      <point x="453" y="-12" identifier="1MPPMUxq6p"/>
      <point x="542" y="66" identifier="8KAKbJ4bOl"/>
      <point x="542" y="195" type="curve" smooth="yes" identifier="s6qEgFtbIu"/>
      <point x="542" y="286" identifier="8xUBBETcjj"/>
      <point x="497" y="362" identifier="Uzbpx6xC4Y"/>
      <point x="360" y="386" type="curve" smooth="yes" identifier="drDgkUT6Hz"/>
      <point x="285" y="399" type="line" smooth="yes" identifier="qdtgAzq3p8"/>
      <point x="186" y="416" identifier="DSjKnRk8Yq"/>
      <point x="154" y="456" identifier="TwIdeBnEkI"/>
      <point x="154" y="518" type="curve" smooth="yes" identifier="wguaFu4xCL"/>
      <point x="154" y="597" identifier="dgToUyfJhX"/>
      <point x="207" y="638" identifier="wypZL8gcqE"/>
      <point x="301" y="638" type="curve" smooth="yes" identifier="hdq1U6VBqA"/>
      <point x="388" y="638" identifier="9a42ApzCPV"/>
      <point x="438" y="603" identifier="SecX82hzpn"/>
      <point x="477" y="552" type="curve" identifier="Jmx9nPQAtI"/>
      <point x="536" y="603" type="line" identifier="YsefJVFGBh"/>
      <point x="489" y="670" identifier="JAgEbpt67q"/>
      <point x="413" y="710" identifier="1kdiOs8ffl"/>
      <point x="302" y="710" type="curve" smooth="yes" identifier="X9TrRfK7gG"/>
      <point x="160" y="710" identifier="eEsuYau9Zv"/>
      <point x="69" y="644" identifier="6aNCbDS8FF"/>
      <point x="69" y="516" type="curve" smooth="yes" identifier="B8AQMnzxtr"/>
      <point x="69" y="428" identifier="gzP3tYOk9l"/>
      <point x="112" y="349" identifier="SHnOhUGvZB"/>
      <point x="249" y="326" type="curve" smooth="yes" identifier="Nce1cg36He"/>
      <point x="327" y="313" type="line" smooth="yes" identifier="H4rOS57CeP"/>
      <point x="422" y="297" identifier="WSyuNipy5R"/>
      <point x="457" y="261" identifier="SnExDZ0Lyw"/>
      <point x="457" y="193" type="curve" smooth="yes" identifier="56Qj047o50"/>
      <point x="457" y="109" identifier="9ovRjws1by"/>
      <point x="402" y="60" identifier="IZhbEe131o"/>
      <point x="301" y="60" type="curve" smooth="yes" identifier="2MHizUtVp3"/>
      <point x="217" y="60" identifier="XQNNVrcIXj"/>
      <point x="160" y="93" identifier="qJ1mwIGqSu"/>
      <point x="106" y="161" type="curve" identifier="ZILKhcLr1n"/>
      <point x="45" y="111" type="line" identifier="JwCj8dOvOD"/>
      <point x="97" y="39" identifier="JDCLBwyqA2"/>
      <point x="173" y="-12" identifier="THVKeRJfpV"/>
    </contour>
  </outline>
</glyph>
<glyph name="T" format="2">
  <advance width="600"/>
  <unicode hex="0054"/>
  <anchor x="300.0" y="0.0" name="bottom"/>
  <anchor x="300.0" y="698.0" name="top"/>
  <outline>
    <contour>
      <point x="575" y="625" type="line" identifier="KUPpVaHyuh"/>
      <point x="575" y="698" type="line" identifier="qQQ8ZUoW1Y"/>
      <point x="25" y="698" type="line" identifier="YUa7fnC58Z"/>
      <point x="25" y="625" type="line" identifier="mePZivzs6P"/>
      <point x="258" y="625" type="line" identifier="g3I65CfdJF"/>
      <point x="258" y="0" type="line" identifier="yKZfiUTTfD"/>
      <point x="342" y="0" type="line" identifier="6R2sqX2xvk"/>
      <point x="342" y="625" type="line" identifier="ktLTTEJSP6"/>
    </contour>
  </outline>
</glyph>
<glyph name="U" format="2">
  <advance width="600"/>
  <unicode hex="0055"/>
  <anchor x="300.0" y="0.0" name="bottom"/>
  <anchor x="394.0" y="0.0" name="bottomright"/>
  <anchor x="300.0" y="698.0" name="top"/>
  <outline>
    <contour>
      <point x="80" y="698" type="line" identifier="HpirWWuOI8"/>
      <point x="80" y="299" type="line" smooth="yes" identifier="giKlQNqKjW"/>
      <point x="80" y="92" identifier="Y0Ol4bcPgd"/>
      <point x="110" y="-12" identifier="l49bmxFgpF"/>
      <point x="300" y="-12" type="curve" smooth="yes" identifier="vzOHouI9JA"/>
      <point x="490" y="-12" identifier="pukuNeOmbW"/>
      <point x="520" y="92" identifier="ZI4QLz28fU"/>
      <point x="520" y="299" type="curve" smooth="yes" identifier="7CtujfnUU3"/>
      <point x="520" y="698" type="line" identifier="W0Eo4kr9Am"/>
      <point x="436" y="698" type="line" identifier="yyJwR8kJah"/>
      <point x="436" y="279" type="line" smooth="yes" identifier="7a0DwKKTwl"/>
      <point x="436" y="144" identifier="l3MYAt9rN0"/>
      <point x="431" y="61" identifier="4X8siwGf5I"/>
      <point x="300" y="61" type="curve" smooth="yes" identifier="6dN8w0pBKv"/>
      <point x="169" y="61" identifier="qQwutb8FbE"/>
      <point x="164" y="144" identifier="W4v6RtN8Hm"/>
      <point x="164" y="279" type="curve" smooth="yes" identifier="ryjqUVznob"/>
      <point x="164" y="698" type="line" identifier="LgSrpOm1mV"/>
    </contour>
  </outline>
</glyph>
<glyph name="V" format="2">
  <advance width="600"/>
  <unicode hex="0056"/>
  <anchor x="300.0" y="0.0" name="bottom"/>
  <anchor x="300.0" y="698.0" name="top"/>
  <outline>
    <contour>
      <point x="357" y="0" type="line" identifier="H3H7wOrwDr"/>
      <point x="564" y="698" type="line" identifier="RxJeDVOgMb"/>
      <point x="478" y="698" type="line" identifier="B95UKbG5p6"/>
      <point x="379" y="349" type="line" identifier="F97yq4G8MI"/>
      <point x="304" y="85" type="line" identifier="vVPSVgWV09"/>
      <point x="299" y="85" type="line" identifier="PkPUULVVEN"/>
      <point x="224" y="349" type="line" identifier="D5G2w9E9kB"/>
      <point x="125" y="698" type="line" identifier="l4MP0AqRGs"/>
      <point x="36" y="698" type="line" identifier="Q955oF0SVw"/>
      <point x="243" y="0" type="line" identifier="eKHugmnBlq"/>
    </contour>
  </outline>
</glyph>
<glyph name="W" format="2">
  <advance width="600"/>
  <unicode hex="0057"/>
  <anchor x="300.0" y="0.0" name="bottom"/>
  <anchor x="300.0" y="698.0" name="top"/>
  <outline>
    <contour>
      <point x="211" y="0" type="line" identifier="g5HWWedSPM"/>
      <point x="296" y="417" type="line" identifier="VvhU0tIwV6"/>
      <point x="304" y="417" type="line" identifier="QJZcpK1JQL"/>
      <point x="389" y="0" type="line" identifier="StxsXHWYnI"/>
      <point x="510" y="0" type="line" identifier="EX2nVPcG9R"/>
      <point x="565" y="698" type="line" identifier="n4XtIOkaMA"/>
      <point x="492" y="698" type="line" identifier="tlNsHw2nvV"/>
      <point x="463" y="298" type="line" identifier="nQea5RCeLH"/>
      <point x="448" y="87" type="line" identifier="qZw2T5u88s"/>
      <point x="440" y="87" type="line" identifier="ulJwdF6gQH"/>
      <point x="348" y="516" type="line" identifier="vbUbwszOvb"/>
      <point x="254" y="516" type="line" identifier="uXRfFJOQwp"/>
      <point x="162" y="87" type="line" identifier="8aSpSuRsDZ"/>
      <point x="154" y="87" type="line" identifier="O6YRlRpUFm"/>
      <point x="139" y="298" type="line" identifier="3B7dldrKIn"/>
      <point x="110" y="698" type="line" identifier="EKr6vjhoeQ"/>
      <point x="35" y="698" type="line" identifier="hfTJKo96Ll"/>
      <point x="90" y="0" type="line" identifier="eVBYNHe9i1"/>
    </contour>
  </outline>
</glyph>
<glyph name="X" format="2">
  <advance width="600"/>
  <unicode hex="0058"/>
  <anchor x="300.0" y="0.0" name="bottom"/>
  <anchor x="300.0" y="698.0" name="top"/>
  <outline>
    <contour>
      <point x="352" y="357" type="line" identifier="STPB9p9hHt"/>
      <point x="568" y="698" type="line" identifier="4T4O16XIfl"/>
      <point x="476" y="698" type="line" identifier="sOMHudfNmQ"/>
      <point x="392" y="563" type="line" identifier="X4o3n0BGNd"/>
      <point x="306" y="422" type="line" identifier="b2R9sX4FnR"/>
      <point x="302" y="422" type="line" identifier="t4rhgAXGmN"/>
      <point x="215" y="563" type="line" identifier="ecwAGzCgXI"/>
      <point x="134" y="698" type="line" identifier="OANgsA9TpH"/>
      <point x="39" y="698" type="line" identifier="8ap4WMHJdL"/>
      <point x="254" y="356" type="line" identifier="FsPjYPINlU"/>
      <point x="26" y="0" type="line" identifier="PoC8vyrap2"/>
      <point x="118" y="0" type="line" identifier="3KaWDPCrFT"/>
      <point x="206" y="139" type="line" identifier="avYt4bA14m"/>
      <point x="301" y="291" type="line" identifier="nVinhCFFnh"/>
      <point x="305" y="291" type="line" identifier="0qS8QdpbKM"/>
      <point x="397" y="139" type="line" identifier="7yQLeBhKQu"/>
      <point x="480" y="0" type="line" identifier="G4pR9qmwnk"/>
      <point x="575" y="0" type="line" identifier="V22a4A5vJg"/>
    </contour>
  </outline>
</glyph>
<glyph name="Y" format="2">
  <advance width="600"/>
  <unicode hex="0059"/>
  <anchor x="300.0" y="0.0" name="bottom"/>
  <anchor x="300.0" y="698.0" name="top"/>
  <outline>
    <contour>
      <point x="342" y="0" type="line" identifier="cfFfRpB6tz"/>
      <point x="342" y="274" type="line" identifier="6FGsicmE0E"/>
      <point x="583" y="698" type="line" identifier="2ehZQ4ylX7"/>
      <point x="489" y="698" type="line" identifier="nK7wv6cYCf"/>
      <point x="389" y="516" type="line" identifier="SJPdWDbYrB"/>
      <point x="302" y="357" type="line" identifier="2HyPAUik5G"/>
      <point x="298" y="357" type="line" identifier="a5rwac8881"/>
      <point x="213" y="516" type="line" identifier="lrRWB4s585"/>
      <point x="113" y="698" type="line" identifier="lOoXqihAlG"/>
      <point x="17" y="698" type="line" identifier="zhwXFcjj1O"/>
      <point x="258" y="274" type="line" identifier="ofLKD6wCOJ"/>
      <point x="258" y="0" type="line" identifier="4eE6o0lFaK"/>
    </contour>
  </outline>
</glyph>
<glyph name="Z" format="2">
  <advance width="600"/>
  <unicode hex="005A"/>
  <anchor x="300.0" y="0.0" name="bottom"/>
  <anchor x="300.0" y="698.0" name="top"/>
  <outline>
    <contour>
      <point x="552" y="73" type="line" identifier="sXzf4wtxkL"/>
      <point x="139" y="73" type="line" identifier="CpO9eixdOD"/>
      <point x="535" y="623" type="line" identifier="ZNuHC1cmue"/>
      <point x="535" y="698" type="line" identifier="AUMmtT7Yrt"/>
      <point x="65" y="698" type="line" identifier="ONOqdFFsjf"/>
      <point x="65" y="625" type="line" identifier="5va8PxWMFv"/>
      <point x="443" y="625" type="line" identifier="xhXoSZvvP7"/>
      <point x="48" y="75" type="line" identifier="j906Z1a0Vn"/>
      <point x="48" y="0" type="line" identifier="Wd4MArUG3u"/>
      <point x="552" y="0" type="line" identifier="mMO4MYgel2"/>
    </contour>
  </outline>
</glyph>
<glyph name="bracketleft" format="2">
  <advance width="600"/>
  <unicode hex="005B"/>
  <outline>
    <contour>
      <point x="505" y="-138" type="line" identifier="J1SRX7x2cr"/>
      <point x="505" y="-76" type="line" identifier="6zbcCoAbLz"/>
      <point x="294" y="-76" type="line" identifier="ApvqzshAgl"/>
      <point x="294" y="698" type="line" identifier="dPYgIsyJxB"/>
      <point x="505" y="698" type="line" identifier="9ZMXLHGTCK"/>
      <point x="505" y="760" type="line" identifier="WZFfitE9SM"/>
      <point x="225" y="760" type="line" identifier="ZVDDen348j"/>
      <point x="225" y="-138" type="line" identifier="r03mtHVLWm"/>
    </contour>
  </outline>
</glyph>
<glyph name="backslash" format="2">
  <advance width="600"/>
  <unicode hex="005C"/>
  <outline>
    <contour>
      <point x="510" y="-138" type="line" identifier="pQnRhrO7HE"/>
      <point x="162" y="760" type="line" identifier="DCRZm3yXwe"/>
      <point x="90" y="760" type="line" identifier="wGjqoSIifB"/>
      <point x="438" y="-138" type="line" identifier="xm9yFrXVr4"/>
    </contour>
  </outline>
</glyph>
<glyph name="bracketright" format="2">
  <advance width="600"/>
  <unicode hex="005D"/>
  <outline>
    <contour>
      <point x="95" y="760" type="line" identifier="Z5809LWeBm"/>
      <point x="95" y="698" type="line" identifier="Le57QafG1V"/>
      <point x="306" y="698" type="line" identifier="72wVfozKoG"/>
      <point x="306" y="-76" type="line" identifier="nNMAQaJQow"/>
      <point x="95" y="-76" type="line" identifier="xlmPxTnu7f"/>
      <point x="95" y="-138" type="line" identifier="TVvwAO0B55"/>
      <point x="375" y="-138" type="line" identifier="wmHZDATlMG"/>
      <point x="375" y="760" type="line" identifier="ORTjtPewit"/>
    </contour>
  </outline>
</glyph>
<glyph name="asciicircum" format="2">
  <advance width="600"/>
  <unicode hex="005E"/>
  <outline>
    <contour>
      <point x="555" y="318" type="line" identifier="dR2tU2Owcb"/>
      <point x="345" y="698" type="line" identifier="1QF7bNPyXB"/>
      <point x="255" y="698" type="line" identifier="e4XGauGMZo"/>
      <point x="45" y="318" type="line" identifier="ygUnhxUd7H"/>
      <point x="107" y="287" type="line" identifier="liJUQ25tJU"/>
      <point x="296" y="629" type="line" identifier="XnLVPBEZp6"/>
      <point x="300" y="629" type="line" identifier="780xCsQHwh"/>
      <point x="489" y="287" type="line" identifier="b7y8mAHRKb"/>
    </contour>
  </outline>
</glyph>
<glyph name="underscore" format="2">
  <advance width="600"/>
  <unicode hex="005F"/>
  <outline>
    <contour>
      <point x="540" y="-169" type="line" identifier="87aiwR3VUw"/>
      <point x="540" y="-95" type="line" identifier="Todlt5jMWZ"/>
      <point x="60" y="-95" type="line" identifier="0xBilzX8kQ"/>
      <point x="60" y="-169" type="line" identifier="QpzDmCyV3L"/>
    </contour>
  </outline>
</glyph>
<glyph name="grave" format="2">
  <advance width="600"/>
  <unicode hex="0060"/>
  <anchor x="300.0" y="516.0" name="_top"/>
  <outline>
    <contour>
      <point x="293" y="585" type="line" identifier="nKXjHR8Ewn"/>
      <point x="345" y="609" type="line" identifier="TN1D7ICm71"/>
      <point x="260" y="779" type="line" identifier="807RKxlZ9F"/>
      <point x="187" y="744" type="line" identifier="DQTQDu8BId"/>
    </contour>
  </outline>
</glyph>
<glyph name="a" format="2">
  <advance width="600"/>
  <unicode hex="0061"/>
  <anchor x="283.0" y="0.0" name="bottom"/>
  <anchor x="550.0" y="0.0" name="bottomright"/>
  <anchor x="283.0" y="516.0" name="top"/>
  <outline>
    <contour>
      <point x="550" y="0" type="line" identifier="C8YONy4G2x"/>
      <point x="550" y="70" type="line" identifier="Mp7BiS2YRc"/>
      <point x="478" y="70" type="line" identifier="xBLOG1SqDe"/>
      <point x="478" y="354" type="line" smooth="yes" identifier="xTD6d0Pwrx"/>
      <point x="478" y="463" identifier="qoND60yLj6"/>
      <point x="401" y="528" identifier="gFBjGipxRb"/>
      <point x="280" y="528" type="curve" smooth="yes" identifier="gI2QD4RtT3"/>
      <point x="175" y="528" identifier="GiwblAx6Li"/>
      <point x="109" y="478" identifier="9dq8KANZIv"/>
      <point x="83" y="424" type="curve" identifier="ykCwbwQxcI"/>
      <point x="137" y="384" type="line" identifier="YwFx4d4Wn1"/>
      <point x="164" y="431" identifier="h842XT3qIA"/>
      <point x="206" y="460" identifier="00FHVvagQZ"/>
      <point x="275" y="460" type="curve" smooth="yes" identifier="lpZ8XMJkjf"/>
      <point x="353" y="460" identifier="Thdq69VsB4"/>
      <point x="398" y="421" identifier="jwOyFXy4zE"/>
      <point x="398" y="346" type="curve" smooth="yes" identifier="UPCHYGiM5i"/>
      <point x="398" y="295" type="line" identifier="Bf7zqjnDGz"/>
      <point x="288" y="295" type="line" smooth="yes" identifier="UzRWGnXaM6"/>
      <point x="133" y="295" identifier="6OsmVxOXE3"/>
      <point x="66" y="240" identifier="UJvT4Lde8v"/>
      <point x="66" y="145" type="curve" smooth="yes" identifier="4t2jC7Q1po"/>
      <point x="66" y="48" identifier="lisOBtjPQw"/>
      <point x="135" y="-12" identifier="vtp0FYrARd"/>
      <point x="243" y="-12" type="curve" smooth="yes" identifier="pVKxISRq2q"/>
      <point x="327" y="-12" identifier="x14XzMDorC"/>
      <point x="376" y="25" identifier="cetncFsAJ7"/>
      <point x="398" y="84" type="curve" identifier="36ev83J59L"/>
      <point x="403" y="84" type="line" identifier="J9WaFq6JEA"/>
      <point x="409" y="36" identifier="uRz0DGLibM"/>
      <point x="433" y="0" identifier="fWLtyw0JfV"/>
      <point x="495" y="0" type="curve" smooth="yes" identifier="RivFCzq5Uw"/>
    </contour>
    <contour>
      <point x="257" y="55" type="curve" smooth="yes" identifier="DBdAwxW5Qg"/>
      <point x="191" y="55" identifier="L25dB2IYoH"/>
      <point x="150" y="83" identifier="93wstrMmYM"/>
      <point x="150" y="136" type="curve" smooth="yes" identifier="V4jpBy7SpJ"/>
      <point x="150" y="157" type="line" smooth="yes" identifier="N2OtJyhA7b"/>
      <point x="150" y="207" identifier="GYcW27jPuQ"/>
      <point x="193" y="235" identifier="Bd68E6NUJW"/>
      <point x="288" y="235" type="curve" smooth="yes" identifier="oytVAgO89b"/>
      <point x="398" y="235" type="line" identifier="MUXRjvQIGU"/>
      <point x="398" y="150" type="line" smooth="yes" identifier="iplbbQG3El"/>
      <point x="398" y="97" identifier="NuPedzMP6n"/>
      <point x="339" y="55" identifier="1BEmeJxHud"/>
    </contour>
  </outline>
</glyph>
<glyph name="b" format="2">
  <advance width="600"/>
  <unicode hex="0062"/>
  <anchor x="317.0" y="0.0" name="bottom"/>
  <outline>
    <contour>
      <point x="95" y="0" type="line" identifier="7pTDcYsqam"/>
      <point x="175" y="0" type="line" identifier="AAAjikLcVB"/>
      <point x="175" y="84" type="line" identifier="W4eIMZ7c39"/>
      <point x="179" y="84" type="line" identifier="5enqweRDpP"/>
      <point x="212" y="21" identifier="PE3EnYOEC5"/>
      <point x="266" y="-12" identifier="3tVt0TDEXi"/>
      <point x="338" y="-12" type="curve" smooth="yes" identifier="CGbmI5faEI"/>
      <point x="464" y="-12" identifier="9Qo2e2Vpe0"/>
      <point x="540" y="89" identifier="tCgNL45Eh1"/>
      <point x="540" y="258" type="curve" smooth="yes" identifier="fjrbvoYudb"/>
      <point x="540" y="427" identifier="TzCBf1aGEl"/>
      <point x="464" y="528" identifier="jcyEABzusw"/>
      <point x="338" y="528" type="curve" smooth="yes" identifier="N3gAAbyxXO"/>
      <point x="266" y="528" identifier="A7d2KpP2Mk"/>
      <point x="212" y="495" identifier="tpXHJcajSJ"/>
      <point x="179" y="432" type="curve" identifier="OTpLZ2Jvdl"/>
      <point x="175" y="432" type="line" identifier="GlhPVTVHok"/>
      <point x="175" y="740" type="line" identifier="04DTWTNI30"/>
      <point x="95" y="740" type="line" identifier="vFO0GFMzRg"/>
    </contour>
    <contour>
      <point x="307" y="59" type="curve" smooth="yes" identifier="Y6JDgATLLV"/>
      <point x="236" y="59" identifier="cbBgr7AVyM"/>
      <point x="175" y="96" identifier="jijxm0dPmh"/>
      <point x="175" y="165" type="curve" identifier="N4AgbnskAM"/>
      <point x="175" y="351" type="line" identifier="gNp7CwxEBw"/>
      <point x="175" y="420" identifier="1JwbCrHUcp"/>
      <point x="236" y="457" identifier="qerECTNpau"/>
      <point x="307" y="457" type="curve" smooth="yes" identifier="HSyRGOCI3c"/>
      <point x="400" y="457" identifier="ILJvFzYid0"/>
      <point x="454" y="395" identifier="OlUgXalHrj"/>
      <point x="454" y="302" type="curve" smooth="yes" identifier="qodBdDPiCR"/>
      <point x="454" y="214" type="line" smooth="yes" identifier="oEy0x7JSgI"/>
      <point x="454" y="121" identifier="XS6BCLprus"/>
      <point x="400" y="59" identifier="PjQg9f2I29"/>
    </contour>
  </outline>
</glyph>
<glyph name="c" format="2">
  <advance width="600"/>
  <unicode hex="0063"/>
  <anchor x="303.0" y="0.0" name="bottom"/>
  <anchor x="313.0" y="516.0" name="top"/>
  <outline>
    <contour>
      <point x="318" y="-12" type="curve" smooth="yes" identifier="YKIkwzm0LV"/>
      <point x="421" y="-12" identifier="dHY86Slm96"/>
      <point x="486" y="39" identifier="jrn9s8v6wH"/>
      <point x="516" y="108" type="curve" identifier="ZhGlONDXmE"/>
      <point x="459" y="147" type="line" identifier="nqE6DaWI8S"/>
      <point x="433" y="91" identifier="K0S1j6Gw81"/>
      <point x="388" y="57" identifier="YPwEmDjNc6"/>
      <point x="319" y="57" type="curve" smooth="yes" identifier="y4HrVZBpSB"/>
      <point x="222" y="57" identifier="qPMB1eAFJP"/>
      <point x="170" y="123" identifier="5gNZwc8jyf"/>
      <point x="170" y="214" type="curve" smooth="yes" identifier="wThg18lOfu"/>
      <point x="170" y="302" type="line" smooth="yes" identifier="QFT0Gb7kDT"/>
      <point x="170" y="393" identifier="69uGXtfmeB"/>
      <point x="223" y="459" identifier="Ja8Pw0r9X4"/>
      <point x="317" y="459" type="curve" smooth="yes" identifier="7WRw463vG8"/>
      <point x="381" y="459" identifier="ZpUjuxzITh"/>
      <point x="425" y="428" identifier="CGKDd5MAum"/>
      <point x="444" y="375" type="curve" identifier="TlZ1dcIdH3"/>
      <point x="508" y="409" type="line" identifier="YtVoQxJJJe"/>
      <point x="479" y="479" identifier="K0LAxcCLPv"/>
      <point x="417" y="528" identifier="rZ9TbQ0stD"/>
      <point x="317" y="528" type="curve" smooth="yes" identifier="bMfiXLyQiU"/>
      <point x="171" y="528" identifier="pZDMI6zotI"/>
      <point x="84" y="422" identifier="9qK4zOm23p"/>
      <point x="84" y="258" type="curve" smooth="yes" identifier="yNLiRKF868"/>
      <point x="84" y="95" identifier="trtBrPJod3"/>
      <point x="170" y="-12" identifier="3nL0XYIo8o"/>
    </contour>
  </outline>
</glyph>
<glyph name="d" format="2">
  <advance width="600"/>
  <unicode hex="0064"/>
  <anchor x="282.0" y="0.0" name="bottom"/>
  <anchor x="567.0" y="740.0" name="topright"/>
  <outline>
    <contour>
      <point x="425" y="0" type="line" identifier="fVlFGYyfAZ"/>
      <point x="505" y="0" type="line" identifier="iCTQjFn8ji"/>
      <point x="505" y="740" type="line" identifier="IMIAq6QiJr"/>
      <point x="425" y="740" type="line" identifier="NzA8JQ3lHw"/>
      <point x="425" y="432" type="line" identifier="y1WIJMBYCB"/>
      <point x="421" y="432" type="line" identifier="wLNWquKOuS"/>
      <point x="388" y="495" identifier="8q4yJaoVFH"/>
      <point x="334" y="528" identifier="6gShOM1O2w"/>
      <point x="262" y="528" type="curve" smooth="yes" identifier="nRBy3Numvg"/>
      <point x="136" y="528" identifier="QZofeUvenN"/>
      <point x="60" y="427" identifier="wbMRyp2GQq"/>
      <point x="60" y="258" type="curve" smooth="yes" identifier="zLGQ2xEJZ0"/>
      <point x="60" y="89" identifier="0pCd3poZti"/>
      <point x="136" y="-12" identifier="q3vupVlZJu"/>
      <point x="262" y="-12" type="curve" smooth="yes" identifier="JahvCqrUfF"/>
      <point x="334" y="-12" identifier="4QF1koXCLf"/>
      <point x="388" y="21" identifier="LF9gbPm4v0"/>
      <point x="421" y="84" type="curve" identifier="Epng8Er5x9"/>
      <point x="425" y="84" type="line" identifier="WlOWOHqIAc"/>
    </contour>
    <contour>
      <point x="293" y="59" type="curve" smooth="yes" identifier="h3AeKSp2zW"/>
      <point x="200" y="59" identifier="GdvJhuw8Y1"/>
      <point x="146" y="121" identifier="s8rALyaFtl"/>
      <point x="146" y="214" type="curve" smooth="yes" identifier="NKNFObzJsH"/>
      <point x="146" y="302" type="line" smooth="yes" identifier="rY0Fz5HoYR"/>
      <point x="146" y="395" identifier="1rAlkhdNEC"/>
      <point x="200" y="457" identifier="LBy9i3J6mX"/>
      <point x="293" y="457" type="curve" smooth="yes" identifier="JLGdJQRz16"/>
      <point x="364" y="457" identifier="D6L2wVTtHi"/>
      <point x="425" y="420" identifier="dd2V5mVHMz"/>
      <point x="425" y="351" type="curve" identifier="jmxATAioet"/>
      <point x="425" y="165" type="line" identifier="PIi39EK8Ox"/>
      <point x="425" y="96" identifier="SVZgnA0p7H"/>
      <point x="364" y="59" identifier="4uMlPzEwbS"/>
    </contour>
  </outline>
</glyph>
<glyph name="e" format="2">
  <advance width="600"/>
  <unicode hex="0065"/>
  <anchor x="309.0" y="0.0" name="bottom"/>
  <anchor x="391.0" y="0.0" name="bottomright"/>
  <anchor x="302.0" y="516.0" name="top"/>
  <outline>
    <contour>
      <point x="309" y="-12" type="curve" smooth="yes" identifier="8BjQhYK0ON"/>
      <point x="411" y="-12" identifier="T9u2NEccnP"/>
      <point x="485" y="38" identifier="xtJ2eE58Ms"/>
      <point x="516" y="107" type="curve" identifier="m1k9w7nNYC"/>
      <point x="457" y="147" type="line" identifier="Xw5qJjO41l"/>
      <point x="430" y="91" identifier="xM3Rcb2MCU"/>
      <point x="378" y="57" identifier="MOpeIfqQyY"/>
      <point x="309" y="57" type="curve" smooth="yes" identifier="v8hOyLtZnE"/>
      <point x="212" y="57" identifier="5FeT04T4ui"/>
      <point x="151" y="123" identifier="uRbr26O6Wa"/>
      <point x="151" y="214" type="curve" smooth="yes" identifier="IZhxsNOEum"/>
      <point x="151" y="238" type="line" identifier="4dYAqrpf4O"/>
      <point x="533" y="238" type="line" identifier="gm2SPEDyyS"/>
      <point x="533" y="276" type="line" smooth="yes" identifier="zmW1JVrqZa"/>
      <point x="533" y="422" identifier="sjkA8bBCt4"/>
      <point x="443" y="528" identifier="tvuuXSm71V"/>
      <point x="304" y="528" type="curve" smooth="yes" identifier="atItrpCVJH"/>
      <point x="164" y="528" identifier="VBB4O1AtsK"/>
      <point x="67" y="422" identifier="kny9csNqVe"/>
      <point x="67" y="257" type="curve" smooth="yes" identifier="tLDcJ4rEpG"/>
      <point x="67" y="94" identifier="uREEF5T9i5"/>
      <point x="161" y="-12" identifier="duY6soxgWf"/>
    </contour>
    <contour>
      <point x="304" y="462" type="curve" smooth="yes" identifier="cdq0fvniHs"/>
      <point x="389" y="462" identifier="zNASqsZ7g6"/>
      <point x="447" y="400" identifier="Seq7L80MQZ"/>
      <point x="447" y="309" type="curve" smooth="yes" identifier="4DmnV0QBZQ"/>
      <point x="447" y="298" type="line" identifier="eEcDLXWqOs"/>
      <point x="151" y="298" type="line" identifier="hnig2DYvzK"/>
      <point x="151" y="305" type="line" smooth="yes" identifier="lq1u9TTZER"/>
      <point x="151" y="395" identifier="OYxrPR3LXX"/>
      <point x="216" y="462" identifier="lSSJV3xt7s"/>
    </contour>
  </outline>
</glyph>
<glyph name="f" format="2">
  <advance width="600"/>
  <unicode hex="0066"/>
  <anchor x="308.0" y="0.0" name="bottom"/>
  <outline>
    <contour>
      <point x="83" y="0" type="line" identifier="otcgU92ith"/>
      <point x="521" y="0" type="line" identifier="otRvGE8nJv"/>
      <point x="521" y="68" type="line" identifier="HLrE7FVcpx"/>
      <point x="337" y="68" type="line" identifier="lcGVJtigNU"/>
      <point x="337" y="448" type="line" identifier="Ydfy1Hfowt"/>
      <point x="544" y="448" type="line" identifier="aOKUFoIt3G"/>
      <point x="544" y="516" type="line" identifier="dNvvFbIo0R"/>
      <point x="337" y="516" type="line" identifier="EHCemfvKyo"/>
      <point x="337" y="672" type="line" identifier="XUsxnw8qjL"/>
      <point x="544" y="672" type="line" identifier="kKUDiCVTw3"/>
      <point x="544" y="740" type="line" identifier="UyblJrqanV"/>
      <point x="371" y="740" type="line" smooth="yes" identifier="6PCWcFwKKX"/>
      <point x="293" y="740" identifier="nK7Ug8DwmR"/>
      <point x="257" y="691" identifier="MduDAhKhJc"/>
      <point x="257" y="622" type="curve" smooth="yes" identifier="IHQUy17SBk"/>
      <point x="257" y="516" type="line" identifier="d9vGkHRCT8"/>
      <point x="73" y="516" type="line" identifier="Boki7HJ6W9"/>
      <point x="73" y="448" type="line" identifier="vBhZPD46Lx"/>
      <point x="257" y="448" type="line" identifier="HL9G0dUWM0"/>
      <point x="257" y="68" type="line" identifier="RtwHAz6nnM"/>
      <point x="83" y="68" type="line" identifier="wDSJn8ViRZ"/>
    </contour>
  </outline>
</glyph>
<glyph name="g" format="2">
  <advance width="600"/>
  <unicode hex="0067"/>
  <anchor x="297.0" y="516.0" name="top"/>
  <outline>
    <contour>
      <point x="561" y="-59" type="curve" smooth="yes" identifier="9auWwRX76D"/>
      <point x="561" y="25" identifier="5Exdz9BpUK"/>
      <point x="504" y="79" identifier="YHjkv1zeAD"/>
      <point x="371" y="79" type="curve" smooth="yes" identifier="7ZqxW8q8tZ"/>
      <point x="257" y="79" type="line" smooth="yes" identifier="9TQAW5Eeos"/>
      <point x="208" y="79" identifier="z7y6nYJ9eM"/>
      <point x="174" y="86" identifier="xo9Eamiiz1"/>
      <point x="174" y="117" type="curve" smooth="yes" identifier="LWP0KMJv0S"/>
      <point x="174" y="152" identifier="qGjeEZ1kk9"/>
      <point x="217" y="170" identifier="YdPaOhmv0T"/>
      <point x="248" y="176" type="curve" identifier="1kncK3sBjj"/>
      <point x="264" y="173" identifier="7jCRRcraEc"/>
      <point x="280" y="172" identifier="2hD2KYZH0N"/>
      <point x="297" y="172" type="curve" smooth="yes" identifier="JAPwo6MVJy"/>
      <point x="418" y="172" identifier="xgEXHESwtF"/>
      <point x="498" y="245" identifier="pu4DM0tgtl"/>
      <point x="498" y="350" type="curve" smooth="yes" identifier="irFLcJzFcF"/>
      <point x="498" y="404" identifier="U1PL1NPJSj"/>
      <point x="477" y="449" identifier="6bxcrpv4rY"/>
      <point x="440" y="481" type="curve" identifier="AxIaAkVaIE"/>
      <point x="440" y="516" type="line" identifier="nR44u9YmkK"/>
      <point x="556" y="516" type="line" identifier="BE62xo2nxn"/>
      <point x="556" y="586" type="line" identifier="VDmSvJzl5j"/>
      <point x="461" y="586" type="line" smooth="yes" identifier="jif7R89J8s"/>
      <point x="416" y="586" identifier="3vrDVSdalB"/>
      <point x="399" y="556" identifier="MjCBlMkysp"/>
      <point x="399" y="516" type="curve" smooth="yes" identifier="7AaVNCF8md"/>
      <point x="399" y="507" type="line" identifier="D8dBQuCSFv"/>
      <point x="370" y="521" identifier="9zEZfpUqXd"/>
      <point x="336" y="528" identifier="Tmtq6j1EOV"/>
      <point x="297" y="528" type="curve" smooth="yes" identifier="JhDjn79Bu1"/>
      <point x="176" y="528" identifier="QfpqMG5D3V"/>
      <point x="97" y="455" identifier="nrcIbH16Wg"/>
      <point x="97" y="350" type="curve" smooth="yes" identifier="MlsmFchMvE"/>
      <point x="97" y="277" identifier="7o4Kq49r6M"/>
      <point x="135" y="220" identifier="sdunTV9vYV"/>
      <point x="198" y="192" type="curve" identifier="5PVveeTURn"/>
      <point x="198" y="188" type="line" identifier="FLYhSZXCdW"/>
      <point x="145" y="175" identifier="2AmO0YepNQ"/>
      <point x="105" y="151" identifier="QL2CYamuP3"/>
      <point x="105" y="98" type="curve" smooth="yes" identifier="Dj8RUp6ilA"/>
      <point x="105" y="63" identifier="DlIoqNu2Yh"/>
      <point x="122" y="41" identifier="qPlkPLuuYc"/>
      <point x="151" y="27" type="curve" identifier="CqwFyuO27Q"/>
      <point x="151" y="15" type="line" identifier="5syOziFSvU"/>
      <point x="98" y="1" identifier="gl5Wjtkf4b"/>
      <point x="67" y="-29" identifier="8bGfbryhYR"/>
      <point x="67" y="-84" type="curve" smooth="yes" identifier="RvgYH3E3KW"/>
      <point x="67" y="-166" identifier="yfUUYqdqdx"/>
      <point x="135" y="-212" identifier="1dd48CJTru"/>
      <point x="301" y="-212" type="curve" smooth="yes" identifier="jyTQiQRIPh"/>
      <point x="473" y="-212" identifier="brV9DlIXFX"/>
      <point x="561" y="-163" identifier="ayycMwEPuf"/>
    </contour>
    <contour>
      <point x="486" y="-63" type="curve" smooth="yes" identifier="XPXepcOLgq"/>
      <point x="486" y="-119" identifier="Y0aT4Jbe2M"/>
      <point x="431" y="-148" identifier="BBVLdiaP0N"/>
      <point x="338" y="-148" type="curve" smooth="yes" identifier="MLIieLGTFa"/>
      <point x="260" y="-148" type="line" smooth="yes" identifier="JqstnAEXXr"/>
      <point x="176" y="-148" identifier="uF2Le83e8o"/>
      <point x="143" y="-110" identifier="efvf7FqVla"/>
      <point x="143" y="-65" type="curve" smooth="yes" identifier="KZxisQ9vsG"/>
      <point x="143" y="-32" identifier="BoXp64tBwh"/>
      <point x="161" y="-9" identifier="g1vOdkN4cN"/>
      <point x="195" y="5" type="curve" identifier="lcxttFTQyZ"/>
      <point x="374" y="5" type="line" smooth="yes" identifier="MQKKcYIgmD"/>
      <point x="457" y="5" identifier="nOBHsRuIXB"/>
      <point x="486" y="-22" identifier="nUNC8RzQGW"/>
    </contour>
    <contour>
      <point x="297" y="234" type="curve" smooth="yes" identifier="EWVF8ukFnJ"/>
      <point x="218" y="234" identifier="k42A97U2EV"/>
      <point x="181" y="275" identifier="Nb6Ne5RHxI"/>
      <point x="181" y="336" type="curve" smooth="yes" identifier="45D84yP20B"/>
      <point x="181" y="365" type="line" smooth="yes" identifier="kzQjuaZpTF"/>
      <point x="181" y="426" identifier="2AH1OO1HHq"/>
      <point x="218" y="466" identifier="LoPMLz0sm6"/>
      <point x="297" y="466" type="curve" smooth="yes" identifier="fei7sxRiJ3"/>
      <point x="377" y="466" identifier="KBRQKxdpiC"/>
      <point x="414" y="426" identifier="syyqkeAiRq"/>
      <point x="414" y="365" type="curve" smooth="yes" identifier="HkFdyCeb1i"/>
      <point x="414" y="336" type="line" smooth="yes" identifier="PbnnpaLX4f"/>
      <point x="414" y="275" identifier="spsjVlo4cu"/>
      <point x="377" y="234" identifier="oEoQ7Xfu5e"/>
    </contour>
  </outline>
</glyph>
<glyph name="h" format="2">
  <advance width="600"/>
  <unicode hex="0068"/>
  <anchor x="303.0" y="0.0" name="bottom"/>
  <anchor x="138.0" y="698.0" name="top"/>
  <outline>
    <contour>
      <point x="98" y="0" type="line" identifier="4v1fHJUR1K"/>
      <point x="178" y="0" type="line" identifier="QAmI6kmpYf"/>
      <point x="178" y="358" type="line" identifier="gEkXGkGQtP"/>
      <point x="178" y="426" identifier="kq8TYkvF9u"/>
      <point x="242" y="457" identifier="p5oTTpaigZ"/>
      <point x="306" y="457" type="curve" smooth="yes" identifier="KQ6ODBEEP2"/>
      <point x="385" y="457" identifier="ErzThLh6Ne"/>
      <point x="428" y="411" identifier="f9MFOGwVod"/>
      <point x="428" y="317" type="curve" smooth="yes" identifier="XbBNzjqafA"/>
      <point x="428" y="0" type="line" identifier="a6BqSzKnxM"/>
      <point x="508" y="0" type="line" identifier="akmjnUiEKP"/>
      <point x="508" y="331" type="line" smooth="yes" identifier="PJRkCfC9ec"/>
      <point x="508" y="456" identifier="zMhM6z3CVu"/>
      <point x="437" y="528" identifier="BBCxjS8eaX"/>
      <point x="329" y="528" type="curve" smooth="yes" identifier="TtzFryJlub"/>
      <point x="244" y="528" identifier="ZXdbiQx3qI"/>
      <point x="204" y="483" identifier="KwkaksSYSF"/>
      <point x="182" y="432" type="curve" identifier="Xqzdu3mNpR"/>
      <point x="178" y="432" type="line" identifier="AZo2gR6EmN"/>
      <point x="178" y="740" type="line" identifier="g0WAaGY9Ry"/>
      <point x="98" y="740" type="line" identifier="8Sf3e7475L"/>
    </contour>
  </outline>
</glyph>
<glyph name="i" format="2">
  <advance width="600"/>
  <unicode hex="0069"/>
  <anchor x="332.0" y="0.0" name="bottom"/>
  <anchor x="546.0" y="0.0" name="bottomright"/>
  <outline>
    <contour>
      <point x="332" y="630" type="curve" smooth="yes" identifier="9wvpub5hV6"/>
      <point x="378" y="630" identifier="ZdBpGZshrh"/>
      <point x="395" y="652" identifier="wYs2rCtmro"/>
      <point x="395" y="681" type="curve" smooth="yes" identifier="Poq69EN7NA"/>
      <point x="395" y="697" type="line" smooth="yes" identifier="UJcj92VS18"/>
      <point x="395" y="726" identifier="cAApJomWOS"/>
      <point x="378" y="748" identifier="IK0oZlX1Ge"/>
      <point x="332" y="748" type="curve" smooth="yes" identifier="Cn7czvi0oI"/>
      <point x="286" y="748" identifier="MRa0Yvcsl8"/>
      <point x="269" y="726" identifier="a55riI5Hle"/>
      <point x="269" y="697" type="curve" smooth="yes" identifier="R001ugvQXt"/>
      <point x="269" y="681" type="line" smooth="yes" identifier="BJVMdbxwGf"/>
      <point x="269" y="652" identifier="IlQvsvEXGt"/>
      <point x="286" y="630" identifier="UmKe54pddX"/>
    </contour>
    <contour>
      <point x="106" y="0" type="line" identifier="HWBUxy1n5Z"/>
      <point x="546" y="0" type="line" identifier="pzOVx90c5X"/>
      <point x="546" y="68" type="line" identifier="b5qYBPuvJV"/>
      <point x="372" y="68" type="line" identifier="TY9wKDAjHC"/>
      <point x="372" y="516" type="line" identifier="WaKcCDhXLp"/>
      <point x="106" y="516" type="line" identifier="Sh8RbtzyFF"/>
      <point x="106" y="448" type="line" identifier="aHs0l35J6V"/>
      <point x="292" y="448" type="line" identifier="zYmleAidoi"/>
      <point x="292" y="68" type="line" identifier="g6qeP7m58s"/>
      <point x="106" y="68" type="line" identifier="ezSDq9on2b"/>
    </contour>
  </outline>
</glyph>
<glyph name="j" format="2">
  <advance width="600"/>
  <unicode hex="006A"/>
  <outline>
    <contour>
      <point x="102" y="-200" type="line" identifier="ud8zT9UVTj"/>
      <point x="318" y="-200" type="line" smooth="yes" identifier="efAyEySbRU"/>
      <point x="396" y="-200" identifier="doyOlx8XRw"/>
      <point x="432" y="-151" identifier="Rztft1xaGx"/>
      <point x="432" y="-82" type="curve" smooth="yes" identifier="MYj4fTwl1p"/>
      <point x="432" y="516" type="line" identifier="DNWkGRF9oC"/>
      <point x="93" y="516" type="line" identifier="TElus1fXv6"/>
      <point x="93" y="448" type="line" identifier="W5fqFbEpvz"/>
      <point x="352" y="448" type="line" identifier="uOeLlg84Rj"/>
      <point x="352" y="-132" type="line" identifier="pzZGBmoad7"/>
      <point x="102" y="-132" type="line" identifier="Q1MySqnFLE"/>
    </contour>
    <contour>
      <point x="392" y="630" type="curve" smooth="yes" identifier="qAb30Bp4Oq"/>
      <point x="438" y="630" identifier="zHurUqW3b2"/>
      <point x="455" y="652" identifier="q44OqUfhLl"/>
      <point x="455" y="681" type="curve" smooth="yes" identifier="x6TkUrI3uP"/>
      <point x="455" y="697" type="line" smooth="yes" identifier="5k1l2nLIjw"/>
      <point x="455" y="726" identifier="x89nvUBgni"/>
      <point x="438" y="748" identifier="UrDOXr8DpZ"/>
      <point x="392" y="748" type="curve" smooth="yes" identifier="0frxnqEP4V"/>
      <point x="346" y="748" identifier="Ok94izxoX0"/>
      <point x="329" y="726" identifier="ITn8ExUIzc"/>
      <point x="329" y="697" type="curve" smooth="yes" identifier="0BD64WergB"/>
      <point x="329" y="681" type="line" smooth="yes" identifier="DvCCWLHtYR"/>
      <point x="329" y="652" identifier="ijNtoMr14l"/>
      <point x="346" y="630" identifier="0RvWtjbIkR"/>
    </contour>
  </outline>
</glyph>
<glyph name="k" format="2">
  <advance width="600"/>
  <unicode hex="006B"/>
  <anchor x="323.0" y="0.0" name="bottom"/>
  <outline>
    <contour>
      <point x="105" y="0" type="line" identifier="9KUvdk9V9c"/>
      <point x="185" y="0" type="line" identifier="9bUEIcseCE"/>
      <point x="185" y="187" type="line" identifier="apcfMsCPFD"/>
      <point x="274" y="268" type="line" identifier="qKkpgey45l"/>
      <point x="475" y="0" type="line" identifier="dw7c2daE4n"/>
      <point x="574" y="0" type="line" identifier="MiXCHtWILh"/>
      <point x="335" y="314" type="line" identifier="l2hYtYwGFd"/>
      <point x="549" y="516" type="line" identifier="sUA5bceqUm"/>
      <point x="451" y="516" type="line" identifier="lcv7GXgmcK"/>
      <point x="279" y="358" type="line" identifier="U4jMqG7sOF"/>
      <point x="189" y="273" type="line" identifier="9fEvtiGslN"/>
      <point x="185" y="273" type="line" identifier="k8LbsnzleZ"/>
      <point x="185" y="740" type="line" identifier="PDS9EqVp3z"/>
      <point x="105" y="740" type="line" identifier="j0bQtcPzGk"/>
    </contour>
  </outline>
</glyph>
<glyph name="l" format="2">
  <advance width="600"/>
  <unicode hex="006C"/>
  <anchor x="300.0" y="0.0" name="bottom"/>
  <anchor x="300.0" y="698.0" name="top"/>
  <anchor x="426.0" y="740.0" name="topright"/>
  <outline>
    <contour>
      <point x="80" y="0" type="line" identifier="pY5RGA67n9"/>
      <point x="520" y="0" type="line" identifier="hPyUjces71"/>
      <point x="520" y="68" type="line" identifier="kDqO41TgJ0"/>
      <point x="340" y="68" type="line" identifier="w4PqWwEA5V"/>
      <point x="340" y="740" type="line" identifier="mnYPfIS8m8"/>
      <point x="80" y="740" type="line" identifier="P11C3bxEK7"/>
      <point x="80" y="672" type="line" identifier="JINL6GCsi5"/>
      <point x="260" y="672" type="line" identifier="ASszZjYdSV"/>
      <point x="260" y="68" type="line" identifier="wQuXr4HmDb"/>
      <point x="80" y="68" type="line" identifier="JK6WxrTeBI"/>
    </contour>
  </outline>
</glyph>
<glyph name="m" format="2">
  <advance width="600"/>
  <unicode hex="006D"/>
  <anchor x="300.0" y="0.0" name="bottom"/>
  <anchor x="300.0" y="516.0" name="top"/>
  <outline>
    <contour>
      <point x="128" y="0" type="line" identifier="zgSiYq6ftD"/>
      <point x="128" y="379" type="line" identifier="jgfIFZvAXq"/>
      <point x="128" y="434" identifier="70IqDYnXun"/>
      <point x="158" y="462" identifier="iEcWaVpln6"/>
      <point x="201" y="462" type="curve" smooth="yes" identifier="rKEZRVQ9bg"/>
      <point x="248" y="462" identifier="ah5H0OzAUz"/>
      <point x="263" y="433" identifier="I0EJapw1iA"/>
      <point x="263" y="345" type="curve" smooth="yes" identifier="dUS30hjBkt"/>
      <point x="263" y="0" type="line" identifier="ObKFZLniWR"/>
      <point x="337" y="0" type="line" identifier="72ZQleKKH3"/>
      <point x="337" y="379" type="line" identifier="z5tQjt6VdF"/>
      <point x="337" y="434" identifier="p944ju5iJ9"/>
      <point x="367" y="462" identifier="lKoasPHb1p"/>
      <point x="409" y="462" type="curve" smooth="yes" identifier="95jSTYc0Vy"/>
      <point x="457" y="462" identifier="5VHBrhCXtV"/>
      <point x="472" y="433" identifier="eLj5rdhaIb"/>
      <point x="472" y="345" type="curve" smooth="yes" identifier="93E5JHEkDA"/>
      <point x="472" y="0" type="line" identifier="HAol2ZZc7n"/>
      <point x="546" y="0" type="line" identifier="g8IhrSSluK"/>
      <point x="546" y="358" type="line" smooth="yes" identifier="BcKFsnE3E1"/>
      <point x="546" y="467" identifier="wgrmJMflOt"/>
      <point x="524" y="528" identifier="SAJnFi8hdZ"/>
      <point x="440" y="528" type="curve" smooth="yes" identifier="PYFh35Li2P"/>
      <point x="379" y="528" identifier="ly8ODhxa22"/>
      <point x="347" y="494" identifier="hcTCQS4qhW"/>
      <point x="328" y="447" type="curve" identifier="vmsTq79Wk5"/>
      <point x="325" y="447" type="line" identifier="2uFf7TGtcH"/>
      <point x="319" y="495" identifier="9LGhyBkOR3"/>
      <point x="290" y="528" identifier="1Vjl5whvyv"/>
      <point x="231" y="528" type="curve" smooth="yes" identifier="kRr6mVC1Fp"/>
      <point x="174" y="528" identifier="DOZcvU9dmt"/>
      <point x="148" y="496" identifier="Hcdt2bjt1r"/>
      <point x="132" y="456" type="curve" identifier="rl45SPU7JB"/>
      <point x="128" y="456" type="line" identifier="VMB7msJ6V4"/>
      <point x="128" y="516" type="line" identifier="58UQ22vzOf"/>
      <point x="54" y="516" type="line" identifier="1CxcrmEEof"/>
      <point x="54" y="0" type="line" identifier="FwhFRGMXWA"/>
    </contour>
  </outline>
</glyph>
<glyph name="n" format="2">
  <advance width="600"/>
  <unicode hex="006E"/>
  <anchor x="303.0" y="0.0" name="bottom"/>
  <anchor x="303.0" y="516.0" name="top"/>
  <outline>
    <contour>
      <point x="178" y="0" type="line" identifier="zjExNclJQh"/>
      <point x="178" y="358" type="line" identifier="tSA3APtxWj"/>
      <point x="178" y="426" identifier="KTsMLL41yP"/>
      <point x="242" y="457" identifier="NJ9V0VKF71"/>
      <point x="306" y="457" type="curve" smooth="yes" identifier="2NUSqB2XHb"/>
      <point x="385" y="457" identifier="7jKAB9CkUW"/>
      <point x="428" y="411" identifier="lPJEfZiCp9"/>
      <point x="428" y="317" type="curve" smooth="yes" identifier="um6rRlBx1d"/>
      <point x="428" y="0" type="line" identifier="etdrB1kbHD"/>
      <point x="508" y="0" type="line" identifier="tf14uzr7sn"/>
      <point x="508" y="331" type="line" smooth="yes" identifier="UXOJa6cj3q"/>
      <point x="508" y="456" identifier="N2HwmBJceT"/>
      <point x="437" y="528" identifier="SsgW5qb5GH"/>
      <point x="329" y="528" type="curve" smooth="yes" identifier="KTc5VNW14S"/>
      <point x="244" y="528" identifier="jUaFkdt8R4"/>
      <point x="204" y="483" identifier="PNlwrKKqEG"/>
      <point x="182" y="432" type="curve" identifier="dnlVwssO7Y"/>
      <point x="178" y="432" type="line" identifier="VhqABPXlkI"/>
      <point x="178" y="516" type="line" identifier="7eJjEJK6w4"/>
      <point x="98" y="516" type="line" identifier="lSPLtSuYaV"/>
      <point x="98" y="0" type="line" identifier="Z76pKaAOpx"/>
    </contour>
  </outline>
</glyph>
<glyph name="o" format="2">
  <advance width="600"/>
  <unicode hex="006F"/>
  <anchor x="300.0" y="0.0" name="bottom"/>
  <anchor x="300.0" y="516.0" name="top"/>
  <outline>
    <contour>
      <point x="300" y="-12" type="curve" smooth="yes" identifier="tR1CYHDCZJ"/>
      <point x="445" y="-12" identifier="hjdJSxLrBW"/>
      <point x="534" y="94" identifier="I7q15Glzwz"/>
      <point x="534" y="258" type="curve" smooth="yes" identifier="Zsdy1Wb3UK"/>
      <point x="534" y="422" identifier="baLfTpFfOA"/>
      <point x="445" y="528" identifier="fv3b4KBwHS"/>
      <point x="300" y="528" type="curve" smooth="yes" identifier="lwlBmQp79q"/>
      <point x="155" y="528" identifier="UlYwTMFBfi"/>
      <point x="66" y="422" identifier="2i3h4DwMbZ"/>
      <point x="66" y="258" type="curve" smooth="yes" identifier="dzRc8Dn7tA"/>
      <point x="66" y="94" identifier="dy0Tcwyxsa"/>
      <point x="155" y="-12" identifier="OW4xJ8soC9"/>
    </contour>
    <contour>
      <point x="300" y="57" type="curve" smooth="yes" identifier="gMfGIqulFE"/>
      <point x="211" y="57" identifier="uZPXVrDtkf"/>
      <point x="151" y="110" identifier="PyXsfOMoiv"/>
      <point x="151" y="221" type="curve" smooth="yes" identifier="thWlbgUWBX"/>
      <point x="151" y="295" type="line" smooth="yes" identifier="xJcr0Nhs1d"/>
      <point x="151" y="406" identifier="Iq8VTF2L3v"/>
      <point x="211" y="459" identifier="CBes4mHzGU"/>
      <point x="300" y="459" type="curve" smooth="yes" identifier="OHDzBG26mY"/>
      <point x="389" y="459" identifier="hDmVXbCe07"/>
      <point x="449" y="406" identifier="FgChjvDNT5"/>
      <point x="449" y="295" type="curve" smooth="yes" identifier="A2xhQrACxF"/>
      <point x="449" y="221" type="line" smooth="yes" identifier="ddu45siDpv"/>
      <point x="449" y="110" identifier="cSsb7vLhqm"/>
      <point x="389" y="57" identifier="la1Xzz5BnN"/>
    </contour>
  </outline>
</glyph>
<glyph name="p" format="2">
  <advance width="600"/>
  <unicode hex="0070"/>
  <anchor x="317.0" y="516.0" name="top"/>
  <outline>
    <contour>
      <point x="95" y="-200" type="line" identifier="92coztILb2"/>
      <point x="175" y="-200" type="line" identifier="bu21RYUxx5"/>
      <point x="175" y="84" type="line" identifier="sSGjXTLlnm"/>
      <point x="179" y="84" type="line" identifier="AVMlJkcul5"/>
      <point x="212" y="21" identifier="2bfLUNprff"/>
      <point x="266" y="-12" identifier="IlCkHWPtQ1"/>
      <point x="338" y="-12" type="curve" smooth="yes" identifier="ZLtyc65Bbn"/>
      <point x="464" y="-12" identifier="ufY71a5j5F"/>
      <point x="540" y="89" identifier="8sXsHPTwVC"/>
      <point x="540" y="258" type="curve" smooth="yes" identifier="PQrvfiubuj"/>
      <point x="540" y="427" identifier="GjrnUsdpOQ"/>
      <point x="464" y="528" identifier="uZxzS2p4Iz"/>
      <point x="338" y="528" type="curve" smooth="yes" identifier="AX9EWcM7Q0"/>
      <point x="266" y="528" identifier="7WphTx9U1F"/>
      <point x="212" y="495" identifier="RgpRGCUJ3P"/>
      <point x="179" y="432" type="curve" identifier="ap9pt76XAS"/>
      <point x="175" y="432" type="line" identifier="bE0JLc8a85"/>
      <point x="175" y="516" type="line" identifier="VVD3eWnGhY"/>
      <point x="95" y="516" type="line" identifier="A859CCiiZw"/>
    </contour>
    <contour>
      <point x="307" y="59" type="curve" smooth="yes" identifier="TH7v6hf0jz"/>
      <point x="236" y="59" identifier="S6QGJDrZrX"/>
      <point x="175" y="96" identifier="rGmMKQt1o0"/>
      <point x="175" y="165" type="curve" identifier="BQT6HZDr6a"/>
      <point x="175" y="351" type="line" identifier="RD242LeHAk"/>
      <point x="175" y="420" identifier="x0q3mBB1eY"/>
      <point x="236" y="457" identifier="WNCdd52Eh9"/>
      <point x="307" y="457" type="curve" smooth="yes" identifier="Lt8LvOtpd8"/>
      <point x="400" y="457" identifier="gTOjoQZx8F"/>
      <point x="454" y="395" identifier="fd94m1i2Ph"/>
      <point x="454" y="302" type="curve" smooth="yes" identifier="U5hoaw9Ux7"/>
      <point x="454" y="214" type="line" smooth="yes" identifier="bktssX9BAH"/>
      <point x="454" y="121" identifier="gHTKSMajBp"/>
      <point x="400" y="59" identifier="d3y8fYZEKw"/>
    </contour>
  </outline>
</glyph>
<glyph name="q" format="2">
  <advance width="600"/>
  <unicode hex="0071"/>
  <anchor x="282.0" y="516.0" name="top"/>
  <outline>
    <contour>
      <point x="425" y="-200" type="line" identifier="ncgf6Sh71a"/>
      <point x="505" y="-200" type="line" identifier="fjNCO5Ymsg"/>
      <point x="505" y="516" type="line" identifier="t1kyurY6Xb"/>
      <point x="425" y="516" type="line" identifier="KWh97Ql57L"/>
      <point x="425" y="432" type="line" identifier="VpPavXG3ZB"/>
      <point x="421" y="432" type="line" identifier="TYIpIadAv1"/>
      <point x="388" y="495" identifier="Gl0671CBoC"/>
      <point x="334" y="528" identifier="207isYn6lo"/>
      <point x="262" y="528" type="curve" smooth="yes" identifier="cKqhi88WVS"/>
      <point x="136" y="528" identifier="wogQaYQOoe"/>
      <point x="60" y="427" identifier="vLCRDrPqiB"/>
      <point x="60" y="258" type="curve" smooth="yes" identifier="LF0VRfqoCO"/>
      <point x="60" y="89" identifier="QDhPHb7ztD"/>
      <point x="136" y="-12" identifier="dXlzhGLw2G"/>
      <point x="262" y="-12" type="curve" smooth="yes" identifier="gcXOk8a0SK"/>
      <point x="334" y="-12" identifier="CgJKskTRkW"/>
      <point x="388" y="21" identifier="UXami57RW4"/>
      <point x="421" y="84" type="curve" identifier="3t9AE3cSxs"/>
      <point x="425" y="84" type="line" identifier="9H71sf0UQ3"/>
    </contour>
    <contour>
      <point x="293" y="59" type="curve" smooth="yes" identifier="RjQRKGXTL1"/>
      <point x="200" y="59" identifier="uBQ5YPTyL9"/>
      <point x="146" y="121" identifier="7ayr0y6UC7"/>
      <point x="146" y="214" type="curve" smooth="yes" identifier="jgG3ZuWF1s"/>
      <point x="146" y="302" type="line" smooth="yes" identifier="YKUG6falCU"/>
      <point x="146" y="395" identifier="49hN0XgX7P"/>
      <point x="200" y="457" identifier="rpdhjLTool"/>
      <point x="293" y="457" type="curve" smooth="yes" identifier="GkL4CEhlSJ"/>
      <point x="364" y="457" identifier="55fw0f6Hpr"/>
      <point x="425" y="420" identifier="cWhoXjY5XR"/>
      <point x="425" y="351" type="curve" identifier="OljO30J6rK"/>
      <point x="425" y="165" type="line" identifier="Jy4eOiHDfs"/>
      <point x="425" y="96" identifier="dtxIMYJwAH"/>
      <point x="364" y="59" identifier="lDWr4KM8Vs"/>
    </contour>
  </outline>
</glyph>
<glyph name="r" format="2">
  <advance width="600"/>
  <unicode hex="0072"/>
  <anchor x="268.0" y="0.0" name="bottom"/>
  <anchor x="353.0" y="516.0" name="top"/>
  <outline>
    <contour>
      <point x="77" y="0" type="line" identifier="aVYHIn6GKW"/>
      <point x="469" y="0" type="line" identifier="MgVbOSzWfE"/>
      <point x="469" y="68" type="line" identifier="OvzOGEdIGH"/>
      <point x="308" y="68" type="line" identifier="4MiXqxNSz4"/>
      <point x="308" y="291" type="line" smooth="yes" identifier="hd19BPGrjV"/>
      <point x="308" y="371" identifier="0gNd7TE99i"/>
      <point x="361" y="436" identifier="xeOHlH8GwH"/>
      <point x="462" y="436" type="curve" smooth="yes" identifier="SIS8P4pnyA"/>
      <point x="559" y="436" type="line" identifier="duyjDGO1UF"/>
      <point x="559" y="516" type="line" identifier="zeKROZoyXQ"/>
      <point x="487" y="516" type="line" smooth="yes" identifier="eJ2SErTgWx"/>
      <point x="379" y="516" identifier="ODh3DnIRYm"/>
      <point x="333" y="454" identifier="1zKa9RK1E9"/>
      <point x="313" y="386" type="curve" identifier="KAW7nvEmsM"/>
      <point x="308" y="386" type="line" identifier="XhwC4gTl82"/>
      <point x="308" y="516" type="line" identifier="WY58rlOvXy"/>
      <point x="77" y="516" type="line" identifier="sDLPQ1L4XY"/>
      <point x="77" y="448" type="line" identifier="KU0QYQXfuA"/>
      <point x="228" y="448" type="line" identifier="Jw6ZRnpw7Y"/>
      <point x="228" y="68" type="line" identifier="YQ0Xd8vfg3"/>
      <point x="77" y="68" type="line" identifier="G18M7J0W9y"/>
    </contour>
  </outline>
</glyph>
<glyph name="s" format="2">
  <advance width="600"/>
  <unicode hex="0073"/>
  <anchor x="294.0" y="0.0" name="bottom"/>
  <anchor x="298.0" y="516.0" name="top"/>
  <outline>
    <contour>
      <point x="306" y="-12" type="curve" smooth="yes" identifier="xPOBPjcEzj"/>
      <point x="438" y="-12" identifier="YvnPnGGdI3"/>
      <point x="524" y="47" identifier="lUsfvEgInp"/>
      <point x="524" y="149" type="curve" smooth="yes" identifier="RquQyv7iSX"/>
      <point x="524" y="261" identifier="KV8kzKkRft"/>
      <point x="421" y="281" identifier="9ITFbgxRNK"/>
      <point x="347" y="292" type="curve" smooth="yes" identifier="8fB8UeXJ5J"/>
      <point x="266" y="304" type="line" smooth="yes" identifier="AQ0HO4DMTg"/>
      <point x="220" y="311" identifier="vdU8r7P63k"/>
      <point x="175" y="325" identifier="OpDC8WwRI1"/>
      <point x="175" y="379" type="curve" smooth="yes" identifier="FyWiDKlY44"/>
      <point x="175" y="432" identifier="6qhJOzEzyh"/>
      <point x="220" y="461" identifier="aVDSg2LajW"/>
      <point x="301" y="461" type="curve" smooth="yes" identifier="qdSXd0BFaF"/>
      <point x="392" y="461" identifier="EMqfiFnvEH"/>
      <point x="438" y="425" identifier="FeJk1lkGCL"/>
      <point x="462" y="396" type="curve" identifier="udtDb0vyAo"/>
      <point x="514" y="445" type="line" identifier="6FET8Sg0EM"/>
      <point x="465" y="497" identifier="YeBfNVR8fL"/>
      <point x="397" y="528" identifier="azUOppcUj3"/>
      <point x="304" y="528" type="curve" smooth="yes" identifier="sK9yV56BZO"/>
      <point x="184" y="528" identifier="qRsi8ZfmM0"/>
      <point x="96" y="477" identifier="AAO2WfX6hF"/>
      <point x="96" y="374" type="curve" smooth="yes" identifier="iWwKDX0Y0C"/>
      <point x="96" y="262" identifier="AMZaT4xWch"/>
      <point x="200" y="242" identifier="CjFfGihXyY"/>
      <point x="273" y="231" type="curve" smooth="yes" identifier="rBs5bCxHJY"/>
      <point x="354" y="219" type="line" smooth="yes" identifier="z2dfc3vnxw"/>
      <point x="401" y="212" identifier="mDb0s2eTKJ"/>
      <point x="445" y="198" identifier="eaXHRz7FUY"/>
      <point x="445" y="144" type="curve" smooth="yes" identifier="wLi6u6Hiev"/>
      <point x="445" y="83" identifier="PBm3V3yO1C"/>
      <point x="388" y="55" identifier="i8GGgwrFG8"/>
      <point x="308" y="55" type="curve" smooth="yes" identifier="TaDDXqpSQQ"/>
      <point x="226" y="55" identifier="y9Mp0M0Nqo"/>
      <point x="170" y="84" identifier="ZbCSEeAcIb"/>
      <point x="121" y="136" type="curve" identifier="pL2x4kyCpF"/>
      <point x="67" y="89" type="line" identifier="TmOmOcPXb4"/>
      <point x="121" y="28" identifier="QAKdVJ8JmF"/>
      <point x="198" y="-12" identifier="mrQBxvrWCF"/>
    </contour>
  </outline>
</glyph>
<glyph name="t" format="2">
  <advance width="600"/>
  <unicode hex="0074"/>
  <anchor x="375.0" y="0.0" name="bottom"/>
  <anchor x="387.0" y="760.0" name="topright"/>
  <outline>
    <contour>
      <point x="526" y="0" type="line" identifier="7iIZy9yMEO"/>
      <point x="526" y="68" type="line" identifier="jLbSajUmzo"/>
      <point x="291" y="68" type="line" identifier="xsjcRtBUtt"/>
      <point x="291" y="448" type="line" identifier="GFLXnCDbEQ"/>
      <point x="526" y="448" type="line" identifier="s8NFF938uX"/>
      <point x="526" y="516" type="line" identifier="8gXbNeAWRC"/>
      <point x="291" y="516" type="line" identifier="JQe6PG5Z3r"/>
      <point x="291" y="698" type="line" identifier="MLkqgxdqhj"/>
      <point x="214" y="698" type="line" identifier="mFmnpfodJ1"/>
      <point x="214" y="563" type="line" smooth="yes" identifier="2t0qyV27tT"/>
      <point x="214" y="528" identifier="HBwnYZjEMR"/>
      <point x="201" y="516" identifier="DiczficXug"/>
      <point x="167" y="516" type="curve" smooth="yes" identifier="Vqk39XTxrF"/>
      <point x="39" y="516" type="line" identifier="HHdBa0V256"/>
      <point x="39" y="448" type="line" identifier="ArlBmRrGI3"/>
      <point x="211" y="448" type="line" identifier="Ktf3yXKOGA"/>
      <point x="211" y="118" type="line" smooth="yes" identifier="CTirtskk9N"/>
      <point x="211" y="49" identifier="09RYl8VyHc"/>
      <point x="247" y="0" identifier="y0I2aTFINc"/>
      <point x="325" y="0" type="curve" smooth="yes" identifier="Qi7jc2Wmvq"/>
    </contour>
  </outline>
</glyph>
<glyph name="u" format="2">
  <advance width="600"/>
  <unicode hex="0075"/>
  <anchor x="297.0" y="0.0" name="bottom"/>
  <anchor x="502.0" y="0.0" name="bottomright"/>
  <anchor x="297.0" y="516.0" name="top"/>
  <outline>
    <contour>
      <point x="422" y="0" type="line" identifier="kDsxiRMZ2Z"/>
      <point x="502" y="0" type="line" identifier="Xlory2fmbl"/>
      <point x="502" y="516" type="line" identifier="sUxB5zh77M"/>
      <point x="422" y="516" type="line" identifier="oBNZPs9LmT"/>
      <point x="422" y="158" type="line" identifier="rR5rWJf6BN"/>
      <point x="422" y="90" identifier="nsXdQPD7bC"/>
      <point x="358" y="59" identifier="UD51UHq8Oc"/>
      <point x="294" y="59" type="curve" smooth="yes" identifier="pnFmRtm5q0"/>
      <point x="215" y="59" identifier="jTsV6UMQZu"/>
      <point x="172" y="105" identifier="wUkK4ZkOO8"/>
      <point x="172" y="199" type="curve" smooth="yes" identifier="dqW72tQOyy"/>
      <point x="172" y="516" type="line" identifier="OlqCjeaeQU"/>
      <point x="92" y="516" type="line" identifier="mxSu6ef20h"/>
      <point x="92" y="185" type="line" smooth="yes" identifier="hIPINZJ7Qr"/>
      <point x="92" y="60" identifier="MKuRtUGj46"/>
      <point x="163" y="-12" identifier="OKNhXnDYxi"/>
      <point x="271" y="-12" type="curve" smooth="yes" identifier="ZopVZ8slik"/>
      <point x="356" y="-12" identifier="U8R9Jih3gC"/>
      <point x="396" y="33" identifier="AS9qgYLrrk"/>
      <point x="418" y="84" type="curve" identifier="AEAtqh2Igh"/>
      <point x="422" y="84" type="line" identifier="b5XaToSoMJ"/>
    </contour>
  </outline>
</glyph>
<glyph name="v" format="2">
  <advance width="600"/>
  <unicode hex="0076"/>
  <anchor x="300.0" y="0.0" name="bottom"/>
  <anchor x="300.0" y="516.0" name="top"/>
  <outline>
    <contour>
      <point x="351" y="0" type="line" identifier="XIRuqTqXKX"/>
      <point x="536" y="516" type="line" identifier="iZENY8JMDO"/>
      <point x="457" y="516" type="line" identifier="Mxd5mfp85T"/>
      <point x="383" y="300" type="line" identifier="mZxdtbjvlr"/>
      <point x="303" y="67" type="line" identifier="vipKMkliLI"/>
      <point x="299" y="67" type="line" identifier="FTlMnz2Z9n"/>
      <point x="219" y="300" type="line" identifier="qd131qbxif"/>
      <point x="145" y="516" type="line" identifier="Lg6lfrxxIu"/>
      <point x="64" y="516" type="line" identifier="TdZR9hSLX0"/>
      <point x="249" y="0" type="line" identifier="ytOpWLjXcz"/>
    </contour>
  </outline>
</glyph>
<glyph name="w" format="2">
  <advance width="600"/>
  <unicode hex="0077"/>
  <anchor x="300.0" y="0.0" name="bottom"/>
  <anchor x="300.0" y="516.0" name="top"/>
  <outline>
    <contour>
      <point x="109" y="0" type="line" identifier="2OWVzwDRrU"/>
      <point x="213" y="0" type="line" identifier="swBP8HLQIs"/>
      <point x="297" y="432" type="line" identifier="y1FJtC9jrq"/>
      <point x="305" y="432" type="line" identifier="WnCa3h6DjF"/>
      <point x="387" y="0" type="line" identifier="GIurfz1xwk"/>
      <point x="491" y="0" type="line" identifier="4TYmFtuE3W"/>
      <point x="570" y="516" type="line" identifier="XjYLwc6XZH"/>
      <point x="501" y="516" type="line" identifier="eEisk1HIq0"/>
      <point x="442" y="70" type="line" identifier="GwNEsVGf6b"/>
      <point x="433" y="70" type="line" identifier="Ky20FCsK7T"/>
      <point x="345" y="516" type="line" identifier="L0kPLhX9Or"/>
      <point x="257" y="516" type="line" identifier="qhfmqfqLy8"/>
      <point x="169" y="70" type="line" identifier="u0kjm3SBsA"/>
      <point x="160" y="70" type="line" identifier="5ps7HSood8"/>
      <point x="101" y="516" type="line" identifier="AvKYYN23Rn"/>
      <point x="30" y="516" type="line" identifier="OVQoBJSHot"/>
    </contour>
  </outline>
</glyph>
<glyph name="x" format="2">
  <advance width="600"/>
  <unicode hex="0078"/>
  <anchor x="300.0" y="0.0" name="bottom"/>
  <anchor x="300.0" y="516.0" name="top"/>
  <outline>
    <contour>
      <point x="153" y="0" type="line" identifier="dTU1v9GYMn"/>
      <point x="237" y="121" type="line" identifier="nInVt6LO4P"/>
      <point x="294" y="203" type="line" identifier="boTmmP8Fj7"/>
      <point x="298" y="203" type="line" identifier="IXqqMheP1X"/>
      <point x="357" y="121" type="line" identifier="Ny0yaYpJgK"/>
      <point x="444" y="0" type="line" identifier="V2MWrwzcbr"/>
      <point x="540" y="0" type="line" identifier="gvtrLc0ICR"/>
      <point x="346" y="263" type="line" identifier="i3Le0JsuBW"/>
      <point x="535" y="516" type="line" identifier="PkttzTyHcc"/>
      <point x="443" y="516" type="line" identifier="KulZBpoCZX"/>
      <point x="366" y="407" type="line" identifier="KVrbb7d42u"/>
      <point x="306" y="321" type="line" identifier="CKIjP9xEce"/>
      <point x="302" y="321" type="line" identifier="Thhmqyibk7"/>
      <point x="240" y="407" type="line" identifier="7Fap6mVOis"/>
      <point x="162" y="516" type="line" identifier="xkPby0I00H"/>
      <point x="66" y="516" type="line" identifier="hJZHJOVI7z"/>
      <point x="253" y="262" type="line" identifier="Aax3ypIZdo"/>
      <point x="61" y="0" type="line" identifier="4ssbv7B07B"/>
    </contour>
  </outline>
</glyph>
<glyph name="y" format="2">
  <advance width="600"/>
  <unicode hex="0079"/>
  <anchor x="460.0" y="0.0" name="bottom"/>
  <anchor x="300.0" y="516.0" name="top"/>
  <outline>
    <contour>
      <point x="380" y="300" type="line" identifier="2x1r4JATsT"/>
      <point x="303" y="104" type="line" identifier="sMMtbtqABj"/>
      <point x="299" y="104" type="line" identifier="xyz2clEhTv"/>
      <point x="222" y="300" type="line" identifier="vi2X8Gmqki"/>
      <point x="135" y="516" type="line" identifier="9rl61ejA4m"/>
      <point x="53" y="516" type="line" identifier="c70NoGYMkS"/>
      <point x="261" y="10" type="line" identifier="XSQn92ilWQ"/>
      <point x="203" y="-132" type="line" identifier="zkTQGzGszk"/>
      <point x="83" y="-132" type="line" identifier="ONfaNvNSDo"/>
      <point x="83" y="-200" type="line" identifier="3UT6pCwBdk"/>
      <point x="159" y="-200" type="line" smooth="yes" identifier="6IRJiFQ78m"/>
      <point x="237" y="-200" identifier="n4mY2b8Loe"/>
      <point x="267" y="-172" identifier="eF6EguW0kM"/>
      <point x="291" y="-113" type="curve" smooth="yes" identifier="Lbvaie53dC"/>
      <point x="547" y="516" type="line" identifier="TR8pLHdc00"/>
      <point x="467" y="516" type="line" identifier="OD8MZVOEk0"/>
    </contour>
  </outline>
</glyph>
<glyph name="z" format="2">
  <advance width="600"/>
  <unicode hex="007A"/>
  <anchor x="300.0" y="0.0" name="bottom"/>
  <anchor x="300.0" y="516.0" name="top"/>
  <outline>
    <contour>
      <point x="515" y="0" type="line" identifier="F99SKUcwrA"/>
      <point x="515" y="68" type="line" identifier="5qN9oNG0jf"/>
      <point x="172" y="68" type="line" identifier="wiPRShkPwd"/>
      <point x="505" y="439" type="line" identifier="Xz2mbyNGKj"/>
      <point x="505" y="516" type="line" identifier="M1KWKXgRsv"/>
      <point x="96" y="516" type="line" identifier="RThFH3UGYG"/>
      <point x="96" y="448" type="line" identifier="qIE6Un8LoX"/>
      <point x="418" y="448" type="line" identifier="JQYNbWXUqK"/>
      <point x="85" y="77" type="line" identifier="ar94zNzuit"/>
      <point x="85" y="0" type="line" identifier="ZOnfDhtfdo"/>
    </contour>
  </outline>
</glyph>
<glyph name="braceleft" format="2">
  <advance width="600"/>
  <unicode hex="007B"/>
  <outline>
    <contour>
      <point x="495" y="-138" type="line" identifier="1sTCQDqUYw"/>
      <point x="495" y="-76" type="line" identifier="mR5GLNO3Uq"/>
      <point x="304" y="-76" type="line" identifier="CMFeojdfhp"/>
      <point x="304" y="1" type="line" smooth="yes" identifier="lnxD8F6UbU"/>
      <point x="304" y="56" identifier="ltr8uRwtG9"/>
      <point x="323" y="79" identifier="A5EN498xI4"/>
      <point x="344" y="107" type="curve" smooth="yes" identifier="ShQ6T9fthD"/>
      <point x="366" y="136" identifier="eerU6UDWfw"/>
      <point x="391" y="166" identifier="AU7MgMvS9j"/>
      <point x="391" y="208" type="curve" smooth="yes" identifier="MXLPwIVIae"/>
      <point x="391" y="263" identifier="G4AmWKMEK2"/>
      <point x="348" y="300" identifier="QiGA1vOjbn"/>
      <point x="281" y="309" type="curve" identifier="42MzvYrEa3"/>
      <point x="281" y="313" type="line" identifier="zzP6NeLrcM"/>
      <point x="348" y="322" identifier="ZbhZzXeoeI"/>
      <point x="391" y="359" identifier="1dD2ua9dFz"/>
      <point x="391" y="414" type="curve" smooth="yes" identifier="QHVIsO2hTn"/>
      <point x="391" y="456" identifier="fhQZKgKtZG"/>
      <point x="366" y="486" identifier="aj2Sw67mYo"/>
      <point x="344" y="515" type="curve" smooth="yes" identifier="qQ5A15xsmI"/>
      <point x="323" y="543" identifier="F0IeFBAvwL"/>
      <point x="304" y="566" identifier="J2YpUpSjEy"/>
      <point x="304" y="621" type="curve" smooth="yes" identifier="mIfcsciBmM"/>
      <point x="304" y="698" type="line" identifier="dnu0xhtPtn"/>
      <point x="495" y="698" type="line" identifier="tx4QrF4aoA"/>
      <point x="495" y="760" type="line" identifier="1l5DoTv5Qd"/>
      <point x="319" y="760" type="line" smooth="yes" identifier="3o9yGIgHyB"/>
      <point x="264" y="760" identifier="34CAMcLmwx"/>
      <point x="235" y="724" identifier="s3PpE5wHVX"/>
      <point x="235" y="678" type="curve" smooth="yes" identifier="zOm6uUoopx"/>
      <point x="235" y="615" type="line" smooth="yes" identifier="o7G8RECxST"/>
      <point x="235" y="543" identifier="gVUti39392"/>
      <point x="267" y="510" identifier="1xwgsluamF"/>
      <point x="291" y="480" type="curve" smooth="yes" identifier="2XbTJmuKz4"/>
      <point x="313" y="453" identifier="yVyrnWVAVO"/>
      <point x="321" y="436" identifier="wtBFEWxNuU"/>
      <point x="321" y="415" type="curve" smooth="yes" identifier="pq1W1BJLfO"/>
      <point x="321" y="365" identifier="zkEWpNOSfc"/>
      <point x="273" y="342" identifier="K7NB55mPUm"/>
      <point x="183" y="342" type="curve" smooth="yes" identifier="j89CL4maAY"/>
      <point x="105" y="342" type="line" identifier="hhRWhbNGQz"/>
      <point x="105" y="280" type="line" identifier="jzr3qrCAlM"/>
      <point x="183" y="280" type="line" smooth="yes" identifier="ozZ6JKCYna"/>
      <point x="273" y="280" identifier="M1HuiCs84d"/>
      <point x="321" y="257" identifier="ltQQfLyr4L"/>
      <point x="321" y="207" type="curve" smooth="yes" identifier="iU9sYZw9re"/>
      <point x="321" y="186" identifier="0Y06LNkZ4W"/>
      <point x="313" y="169" identifier="2QoiSNNaEE"/>
      <point x="291" y="142" type="curve" smooth="yes" identifier="vr5L6B3KRM"/>
      <point x="267" y="112" identifier="QYDe4EUVXI"/>
      <point x="235" y="79" identifier="pMQWAjqplH"/>
      <point x="235" y="7" type="curve" smooth="yes" identifier="LPI9IWuji4"/>
      <point x="235" y="-56" type="line" smooth="yes" identifier="s97kZblqQ0"/>
      <point x="235" y="-102" identifier="3Z9ezsEMMk"/>
      <point x="264" y="-138" identifier="WaQhD5J4ds"/>
      <point x="319" y="-138" type="curve" smooth="yes" identifier="5sLlJMiFgH"/>
    </contour>
  </outline>
</glyph>
<glyph name="bar" format="2">
  <advance width="600"/>
  <unicode hex="007C"/>
  <outline>
    <contour>
      <point x="335" y="-138" type="line" identifier="iAK1zvnlIG"/>
      <point x="335" y="760" type="line" identifier="Lh1To5q6kC"/>
      <point x="265" y="760" type="line" identifier="fQVulzBMOG"/>
      <point x="265" y="-138" type="line" identifier="S9uq6h4s3Y"/>
    </contour>
  </outline>
</glyph>
<glyph name="braceright" format="2">
  <advance width="600"/>
  <unicode hex="007D"/>
  <outline>
    <contour>
      <point x="105" y="760" type="line" identifier="0bMfPcnCgx"/>
      <point x="105" y="698" type="line" identifier="kz0M1FGNiO"/>
      <point x="296" y="698" type="line" identifier="CInXk7cDyY"/>
      <point x="296" y="621" type="line" smooth="yes" identifier="2xsJsgfFMZ"/>
      <point x="296" y="566" identifier="KpBIAZzNtE"/>
      <point x="277" y="543" identifier="bhW2rqJUV4"/>
      <point x="256" y="515" type="curve" smooth="yes" identifier="s1KVf4GS4t"/>
      <point x="234" y="486" identifier="V4PW9z16Ln"/>
      <point x="209" y="456" identifier="tiFBqOhYYm"/>
      <point x="209" y="414" type="curve" smooth="yes" identifier="1829Csk2nc"/>
      <point x="209" y="359" identifier="v2AzfnyTIW"/>
      <point x="252" y="322" identifier="0RVRoFLZG2"/>
      <point x="319" y="313" type="curve" identifier="o0tBu26FQE"/>
      <point x="319" y="309" type="line" identifier="XjUOuLO4Ov"/>
      <point x="252" y="300" identifier="og4SqEHm4u"/>
      <point x="209" y="263" identifier="NfpfjFshlS"/>
      <point x="209" y="208" type="curve" smooth="yes" identifier="DOLgpIab5O"/>
      <point x="209" y="166" identifier="xE4mGKasRP"/>
      <point x="234" y="136" identifier="IMeCnFGtSh"/>
      <point x="256" y="107" type="curve" smooth="yes" identifier="vcVHa1aoYw"/>
      <point x="277" y="79" identifier="r3iUSszBbT"/>
      <point x="296" y="56" identifier="cQqOK5E4YN"/>
      <point x="296" y="1" type="curve" smooth="yes" identifier="qEsWkWERdd"/>
      <point x="296" y="-76" type="line" identifier="EM4rF5XqRd"/>
      <point x="105" y="-76" type="line" identifier="W7XOiGl0RF"/>
      <point x="105" y="-138" type="line" identifier="ywYL1Zmv98"/>
      <point x="281" y="-138" type="line" smooth="yes" identifier="H4jOqRf5ye"/>
      <point x="336" y="-138" identifier="97P9GrMmoU"/>
      <point x="365" y="-102" identifier="3GpbPxEY9A"/>
      <point x="365" y="-56" type="curve" smooth="yes" identifier="KKOCXIxFA9"/>
      <point x="365" y="7" type="line" smooth="yes" identifier="vuQLKhQ3gM"/>
      <point x="365" y="79" identifier="0JLXwurfTy"/>
      <point x="333" y="112" identifier="3QjuW5rXAv"/>
      <point x="309" y="142" type="curve" smooth="yes" identifier="vRnZUHZRyy"/>
      <point x="287" y="169" identifier="8D0qmKbXGQ"/>
      <point x="279" y="186" identifier="Fuhn2x5uKh"/>
      <point x="279" y="207" type="curve" smooth="yes" identifier="FRU7YkQmNJ"/>
      <point x="279" y="257" identifier="TqCZj5NmjC"/>
      <point x="327" y="280" identifier="MfqkSRwRAA"/>
      <point x="417" y="280" type="curve" smooth="yes" identifier="rSxzQbA7B9"/>
      <point x="495" y="280" type="line" identifier="T2IyaA75Q1"/>
      <point x="495" y="342" type="line" identifier="WtzTx9XO1w"/>
      <point x="417" y="342" type="line" smooth="yes" identifier="kg03R52iOg"/>
      <point x="327" y="342" identifier="6J0efkfuKW"/>
      <point x="279" y="365" identifier="r2L0WSVBHK"/>
      <point x="279" y="415" type="curve" smooth="yes" identifier="Z1yF0lisTa"/>
      <point x="279" y="436" identifier="qYP5VijY8K"/>
      <point x="287" y="453" identifier="e7UiqzjuVK"/>
      <point x="309" y="480" type="curve" smooth="yes" identifier="yfwNRaF6eA"/>
      <point x="333" y="510" identifier="Z9lJQZ0ubR"/>
      <point x="365" y="543" identifier="7nr1bvssRC"/>
      <point x="365" y="615" type="curve" smooth="yes" identifier="CewINA2vy0"/>
      <point x="365" y="678" type="line" smooth="yes" identifier="04Oxa6vi2h"/>
      <point x="365" y="724" identifier="O4k6w7ETAb"/>
      <point x="336" y="760" identifier="dhLe4Xj0nC"/>
      <point x="281" y="760" type="curve" smooth="yes" identifier="c5vyUxE7Jp"/>
    </contour>
  </outline>
</glyph>
<glyph name="asciitilde" format="2">
  <advance width="600"/>
  <unicode hex="007E"/>
  <outline>
    <contour>
      <point x="402" y="197" type="curve" smooth="yes" identifier="W8I0rdbSjB"/>
      <point x="491" y="197" identifier="a4ILFVvH9c"/>
      <point x="530" y="290" identifier="w023oAXjkk"/>
      <point x="548" y="389" type="curve" identifier="cRTwmEefEE"/>
      <point x="487" y="403" type="line" identifier="cjQP1fPnNZ"/>
      <point x="472" y="342" identifier="VOoVla7GBY"/>
      <point x="457" y="264" identifier="IR6IMFK6h5"/>
      <point x="403" y="264" type="curve" smooth="yes" identifier="EO3BM6nPYm"/>
      <point x="369" y="264" identifier="5LV6JclU2U"/>
      <point x="341" y="309" identifier="XVbUvRzoRD"/>
      <point x="312" y="343" type="curve" smooth="yes" identifier="vzCgPdHHHI"/>
      <point x="282" y="379" identifier="2VWqCg4MMh"/>
      <point x="249" y="413" identifier="4e9xJa1iGK"/>
      <point x="198" y="413" type="curve" smooth="yes" identifier="48QLEbLUVw"/>
      <point x="108" y="413" identifier="vTuc3f7xrc"/>
      <point x="70" y="320" identifier="r8rcfaJi49"/>
      <point x="52" y="221" type="curve" identifier="2jckyJy28j"/>
      <point x="113" y="207" type="line" identifier="vJR9wQsG2F"/>
      <point x="128" y="268" identifier="8Mpz0hxkFi"/>
      <point x="143" y="346" identifier="gwD2Sz5RC1"/>
      <point x="197" y="346" type="curve" smooth="yes" identifier="oU3lTKdCI5"/>
      <point x="231" y="346" identifier="G3IQDxtjYx"/>
      <point x="259" y="301" identifier="Znw1a7fQCg"/>
      <point x="288" y="267" type="curve" smooth="yes" identifier="zBpRxLDf8b"/>
      <point x="318" y="231" identifier="k0EZKFn8YE"/>
      <point x="351" y="197" identifier="14Kml4HnpG"/>
    </contour>
  </outline>
</glyph>
<glyph name="exclamdown" format="2">
  <advance width="600"/>
  <unicode hex="00A1"/>
  <outline>
    <contour>
      <point x="344" y="-182" type="line" identifier="EZKzHdYfhj"/>
      <point x="344" y="21" type="line" identifier="IEF5OurYxg"/>
      <point x="316" y="283" type="line" identifier="vDfqZRXEMO"/>
      <point x="284" y="283" type="line" identifier="jQZrjr7HYa"/>
      <point x="256" y="21" type="line" identifier="tS4MhTREac"/>
      <point x="256" y="-182" type="line" identifier="fYyKFe48L5"/>
    </contour>
    <contour>
      <point x="300" y="387" type="curve" identifier="ecHfr1Gcy6"/>
      <point x="354" y="387" identifier="BAl2uppgi2"/>
      <point x="374" y="413" identifier="DmlQrzsYGn"/>
      <point x="374" y="447" type="curve" smooth="yes" identifier="EAAHFVFiRQ"/>
      <point x="374" y="465" type="line" smooth="yes" identifier="xtVB8XvVj7"/>
      <point x="374" y="499" identifier="VLSBdNuG0S"/>
      <point x="354" y="525" identifier="J5mPHRjdCD"/>
      <point x="300" y="525" type="curve" smooth="yes" identifier="nUaYhS3sAS"/>
      <point x="246" y="525" identifier="UzpSW5Mo1k"/>
      <point x="226" y="499" identifier="xtymKUjNI1"/>
      <point x="226" y="465" type="curve" smooth="yes" identifier="My8mq92iKp"/>
      <point x="226" y="447" type="line" smooth="yes" identifier="GFv67QufU6"/>
      <point x="226" y="413" identifier="VGCtXrfoWi"/>
      <point x="246" y="387" identifier="03Klx7Ryk8"/>
    </contour>
  </outline>
</glyph>
<glyph name="cent" format="2">
  <advance width="600"/>
  <unicode hex="00A2"/>
  <outline>
    <contour>
      <point x="341" y="-114" type="line" identifier="achkojzJKd"/>
      <point x="341" y="-11" type="line" identifier="w8vKQlZf7n"/>
      <point x="431" y="-4" identifier="67J8rR0Wob"/>
      <point x="488" y="44" identifier="Wlj0mRYTKN"/>
      <point x="516" y="108" type="curve" identifier="68dHh80CFb"/>
      <point x="459" y="147" type="line" identifier="gBj0kXoN43"/>
      <point x="436" y="97" identifier="9sqNDhNnGP"/>
      <point x="397" y="64" identifier="uL7jOcuoCH"/>
      <point x="340" y="58" type="curve" identifier="b80F1XBtUi"/>
      <point x="340" y="458" type="line" identifier="S2w7FEpfrt"/>
      <point x="392" y="451" identifier="GLs8VmAGfT"/>
      <point x="427" y="421" identifier="SUgl6Q9qca"/>
      <point x="444" y="375" type="curve" identifier="RmCvp2ptpn"/>
      <point x="508" y="409" type="line" identifier="87T1s5ZvMn"/>
      <point x="481" y="473" identifier="Qk0JVzBIXs"/>
      <point x="427" y="520" identifier="DFxMRbcE7L"/>
      <point x="341" y="527" type="curve" identifier="c0wYiHV8uw"/>
      <point x="341" y="630" type="line" identifier="VtDguvoSVj"/>
      <point x="279" y="630" type="line" identifier="hYLFAuDfJR"/>
      <point x="279" y="525" type="line" identifier="SmzbV8JmDk"/>
      <point x="156" y="508" identifier="JewqM2Rpi8"/>
      <point x="84" y="407" identifier="qbcuF36BVr"/>
      <point x="84" y="258" type="curve" smooth="yes" identifier="KqAfziBgbu"/>
      <point x="84" y="110" identifier="vY9yAFu2s8"/>
      <point x="155" y="8" identifier="MdRyfAITxa"/>
      <point x="279" y="-9" type="curve" identifier="yHVUCuQTwb"/>
      <point x="279" y="-114" type="line" identifier="OlFmkwLIvm"/>
    </contour>
    <contour>
      <point x="170" y="214" type="curve" smooth="yes" identifier="qpIkR2p6ns"/>
      <point x="170" y="302" type="line" smooth="yes" identifier="KQ4AzuLCUj"/>
      <point x="170" y="380" identifier="360da68mJY"/>
      <point x="209" y="440" identifier="mcrJmQgzy1"/>
      <point x="280" y="455" type="curve" identifier="CeOSLsU9TN"/>
      <point x="280" y="61" type="line" identifier="E0bmWzRtAK"/>
      <point x="208" y="76" identifier="5NTTsQ4ldk"/>
      <point x="170" y="136" identifier="BHUNk3H8fR"/>
    </contour>
  </outline>
</glyph>
<glyph name="sterling" format="2">
  <advance width="600"/>
  <unicode hex="00A3"/>
  <outline>
    <contour>
      <point x="538" y="0" type="line" identifier="GTfuKfbFa9"/>
      <point x="538" y="80" type="line" identifier="XA0lLbGqkb"/>
      <point x="154" y="80" type="line" identifier="mjW5xCQtuG"/>
      <point x="154" y="85" type="line" identifier="YxJGORUGqH"/>
      <point x="192" y="110" identifier="gNjxmcW3wB"/>
      <point x="236" y="165" identifier="jJL2VGMx9j"/>
      <point x="236" y="247" type="curve" smooth="yes" identifier="9CXI7RKrHU"/>
      <point x="236" y="261" identifier="NQuRHXY35h"/>
      <point x="235" y="273" identifier="eICVtjs85W"/>
      <point x="233" y="286" type="curve" identifier="tJlV1wJhYt"/>
      <point x="415" y="286" type="line" identifier="M3xo6vsnBF"/>
      <point x="415" y="355" type="line" identifier="kZ7BBB0naO"/>
      <point x="214" y="355" type="line" identifier="qIL7vYpWbU"/>
      <point x="200" y="397" identifier="79CNYfVOVF"/>
      <point x="184" y="440" identifier="P59KQIFTvK"/>
      <point x="184" y="494" type="curve" smooth="yes" identifier="wiovcdvizo"/>
      <point x="184" y="596" identifier="lT4OShrb0x"/>
      <point x="240" y="637" identifier="yYPnfwt1sr"/>
      <point x="327" y="637" type="curve" smooth="yes" identifier="sclGgUaTws"/>
      <point x="403" y="637" identifier="dCZjHVaCyR"/>
      <point x="450" y="605" identifier="xpIXeQpI8F"/>
      <point x="487" y="551" type="curve" identifier="9mGvnaxq6a"/>
      <point x="550" y="596" type="line" identifier="CAACuncKpz"/>
      <point x="506" y="664" identifier="OmFqHGjgOa"/>
      <point x="438" y="710" identifier="yThvVsbipP"/>
      <point x="332" y="710" type="curve" smooth="yes" identifier="WVwfTIVBXq"/>
      <point x="187" y="710" identifier="f8gTyazb0s"/>
      <point x="98" y="623" identifier="YSEnXFNj0K"/>
      <point x="98" y="499" type="curve" smooth="yes" identifier="e3AqTUxYb6"/>
      <point x="98" y="444" identifier="T2Kvzhd7JJ"/>
      <point x="115" y="400" identifier="sc9ugIqGXJ"/>
      <point x="130" y="355" type="curve" identifier="A65Re7luLw"/>
      <point x="52" y="355" type="line" identifier="C7DmxLdC2M"/>
      <point x="52" y="286" type="line" identifier="NPVuO8Iem3"/>
      <point x="149" y="286" type="line" identifier="zjjiYr9S9T"/>
      <point x="152" y="270" identifier="a2mmL9QPEN"/>
      <point x="154" y="254" identifier="WNnJ7vakJX"/>
      <point x="154" y="237" type="curve" smooth="yes" identifier="ZyHuQ2YV3v"/>
      <point x="154" y="175" identifier="j2OnhEu6ML"/>
      <point x="131" y="128" identifier="G8w4BKxC6n"/>
      <point x="75" y="105" type="curve" identifier="l0Ir02OWjV"/>
      <point x="75" y="0" type="line" identifier="RIOnQ79erh"/>
    </contour>
  </outline>
</glyph>
<glyph name="currency" format="2">
  <advance width="600"/>
  <unicode hex="00A4"/>
  <guideline x="0.0" y="119.0" angle="0.0" identifier="6GPH0ucnhm"/>
  <guideline x="96.0" y="0.0" angle="90.0" identifier="pLUy36N6TU"/>
  <outline>
    <contour>
      <point x="300" y="119" type="curve" smooth="yes" identifier="khuRPzOUcw"/>
      <point x="335" y="119" identifier="8P9Nqo7L0s"/>
      <point x="367" y="126" identifier="Jhmu9Yedm9"/>
      <point x="394" y="139" type="curve" identifier="Rhhz7Tn4tJ"/>
      <point x="463" y="21" type="line" identifier="Xl1XLer2e3"/>
      <point x="524" y="56" type="line" identifier="V6YZv6WTdl"/>
      <point x="450" y="182" type="line" identifier="ov9r74k0JW"/>
      <point x="485" y="222" identifier="XYsAZfaEfj"/>
      <point x="504" y="279" identifier="OBIzJhO5P1"/>
      <point x="504" y="349" type="curve" smooth="yes" identifier="h7W14Gu7OP"/>
      <point x="504" y="418" identifier="xCzkXxdWC6"/>
      <point x="485" y="476" identifier="dq1iuVxMRN"/>
      <point x="450" y="516" type="curve" identifier="7xky373jdc"/>
      <point x="524" y="642" type="line" identifier="Q95NzRRIId"/>
      <point x="463" y="677" type="line" identifier="fYDaOlUhmD"/>
      <point x="394" y="559" type="line" identifier="blSy2pcQVH"/>
      <point x="367" y="572" identifier="e66lqtcQ3g"/>
      <point x="335" y="579" identifier="FAqmvNzwFb"/>
      <point x="300" y="579" type="curve" smooth="yes" identifier="NbbJuFwmhJ"/>
      <point x="265" y="579" identifier="NqlqfBXfVG"/>
      <point x="233" y="572" identifier="RRo91unCs1"/>
      <point x="206" y="559" type="curve" identifier="3rb0V5VR7R"/>
      <point x="137" y="677" type="line" identifier="zDEch1Lrsd"/>
      <point x="76" y="642" type="line" identifier="K66t0lctfl"/>
      <point x="150" y="516" type="line" identifier="EqrWvHvyRc"/>
      <point x="115" y="476" identifier="HGhy4VOpZ5"/>
      <point x="96" y="418" identifier="NsXqeH0hPy"/>
      <point x="96" y="349" type="curve" smooth="yes" identifier="mUvG7V8ehs"/>
      <point x="96" y="279" identifier="ntG08nBHCR"/>
      <point x="115" y="222" identifier="b1yJsHXqQV"/>
      <point x="150" y="182" type="curve" identifier="51YKx7PzDe"/>
      <point x="76" y="56" type="line" identifier="VexZDFbwBA"/>
      <point x="137" y="21" type="line" identifier="pMSKZQoGLO"/>
      <point x="206" y="139" type="line" identifier="roy6eDWwmn"/>
      <point x="233" y="126" identifier="clKB3wPLhT"/>
      <point x="265" y="119" identifier="wPCRQeCcuy"/>
    </contour>
    <contour>
      <point x="300" y="186" type="curve" smooth="yes" identifier="eVog6mQTl3"/>
      <point x="229" y="186" identifier="5AC1CXnN2K"/>
      <point x="181" y="229" identifier="Pwp2dSWF92"/>
      <point x="181" y="317" type="curve" smooth="yes" identifier="TReu7EMHQv"/>
      <point x="181" y="381" type="line" smooth="yes" identifier="uPAs4neYLO"/>
      <point x="181" y="469" identifier="1GmuYtnxD9"/>
      <point x="229" y="512" identifier="7oVguerpzV"/>
      <point x="300" y="512" type="curve" smooth="yes" identifier="3qPQzUzyV0"/>
      <point x="371" y="512" identifier="WHxxlBr9zj"/>
      <point x="419" y="469" identifier="MgMMniPK4p"/>
      <point x="419" y="381" type="curve" smooth="yes" identifier="IJDyF6R1AX"/>
      <point x="419" y="317" type="line" smooth="yes" identifier="0ENhwcO8XU"/>
      <point x="419" y="229" identifier="k1P0zeCcyR"/>
      <point x="371" y="186" identifier="xTCVXkq892"/>
    </contour>
  </outline>
</glyph>
<glyph name="yen" format="2">
  <advance width="600"/>
  <unicode hex="00A5"/>
  <outline>
    <contour>
      <point x="75" y="0" type="line" identifier="vPvHMJ05hH"/>
      <point x="525" y="0" type="line" identifier="msJ0goZZLv"/>
      <point x="525" y="69" type="line" identifier="kdv34LirEd"/>
      <point x="340" y="69" type="line" identifier="6SwrnqHrSu"/>
      <point x="340" y="255" type="line" identifier="7QcsYo3pWj"/>
      <point x="525" y="255" type="line" identifier="XccRu6qpBX"/>
      <point x="525" y="324" type="line" identifier="NJkz8bzwXN"/>
      <point x="384" y="324" type="line" identifier="ADOUVR3OlS"/>
      <point x="578" y="698" type="line" identifier="vDXVyFZVOa"/>
      <point x="487" y="698" type="line" identifier="l4FJUodIOC"/>
      <point x="303" y="324" type="line" identifier="JIydFQHzf2"/>
      <point x="299" y="324" type="line" identifier="DZs4W7yAT1"/>
      <point x="115" y="698" type="line" identifier="qJuBpDe1xc"/>
      <point x="22" y="698" type="line" identifier="2l4BdIoIYB"/>
      <point x="216" y="324" type="line" identifier="cyXMMd8IiA"/>
      <point x="75" y="324" type="line" identifier="SRicZhRohS"/>
      <point x="75" y="255" type="line" identifier="i10t3X84MW"/>
      <point x="260" y="255" type="line" identifier="JInxGHQDXt"/>
      <point x="260" y="69" type="line" identifier="57palRdJd4"/>
      <point x="75" y="69" type="line" identifier="3MXrKMVYNO"/>
    </contour>
  </outline>
</glyph>
<glyph name="brokenbar" format="2">
  <advance width="600"/>
  <unicode hex="00A6"/>
  <outline>
    <contour>
      <point x="335" y="401" type="line" identifier="gci6F4zHDi"/>
      <point x="335" y="760" type="line" identifier="9wfBVLfQ8R"/>
      <point x="265" y="760" type="line" identifier="Lg1gS1u0Zw"/>
      <point x="265" y="401" type="line" identifier="efFv6UGaJE"/>
    </contour>
    <contour>
      <point x="335" y="-138" type="line" identifier="B2gGle6bZv"/>
      <point x="335" y="221" type="line" identifier="iPWFdD1OvN"/>
      <point x="265" y="221" type="line" identifier="TLziPQEwND"/>
      <point x="265" y="-138" type="line" identifier="TcZs2239Hl"/>
    </contour>
  </outline>
</glyph>
<glyph name="section" format="2">
  <advance width="600"/>
  <unicode hex="00A7"/>
  <outline>
    <contour>
      <point x="487" y="3" type="curve" smooth="yes" identifier="VsimUK9Euu"/>
      <point x="487" y="56" identifier="ogrMZwyr1t"/>
      <point x="463" y="103" identifier="PpLjkQ4f7u"/>
      <point x="411" y="135" type="curve" identifier="Wg1gZ0xyde"/>
      <point x="411" y="140" type="line" identifier="6WvU2pHXwz"/>
      <point x="482" y="168" identifier="foBzA31fVy"/>
      <point x="523" y="219" identifier="gFKI23Bm2j"/>
      <point x="523" y="283" type="curve" smooth="yes" identifier="qb7kcfCt2r"/>
      <point x="523" y="351" identifier="pfwjYyLoHn"/>
      <point x="476" y="407" identifier="dXNmBXqiYs"/>
      <point x="366" y="438" type="curve" smooth="yes" identifier="aaAfHNqEgf"/>
      <point x="302" y="456" type="line" smooth="yes" identifier="nvz7p1MTZY"/>
      <point x="235" y="475" identifier="0nrEPuMPv6"/>
      <point x="196" y="503" identifier="RwYRS6uE51"/>
      <point x="196" y="553" type="curve" smooth="yes" identifier="J2dLpFMJM4"/>
      <point x="196" y="607" identifier="Uw40tBQCsH"/>
      <point x="241" y="641" identifier="draJsIoWIP"/>
      <point x="317" y="641" type="curve" smooth="yes" identifier="2zDqGhJthc"/>
      <point x="368" y="641" identifier="6DNkl9dFB5"/>
      <point x="409" y="625" identifier="aFvii7RZvu"/>
      <point x="441" y="598" type="curve" identifier="ffjAelGQ0o"/>
      <point x="488" y="654" type="line" identifier="GvMuma3sk6"/>
      <point x="441" y="694" identifier="kiJLMRihrP"/>
      <point x="379" y="710" identifier="GL2XsIC0bn"/>
      <point x="318" y="710" type="curve" smooth="yes" identifier="Q7XVdeX6vJ"/>
      <point x="198" y="710" identifier="4UkrieGoUR"/>
      <point x="117" y="648" identifier="SWCyU7CzyK"/>
      <point x="117" y="552" type="curve" smooth="yes" identifier="N0FBNRVoje"/>
      <point x="117" y="499" identifier="dhqftGzVWl"/>
      <point x="141" y="452" identifier="lHHNVw3emE"/>
      <point x="193" y="420" type="curve" identifier="nWy0CaG0Gy"/>
      <point x="193" y="415" type="line" identifier="Lp6GWTBSHl"/>
      <point x="122" y="387" identifier="GcLOjtssqf"/>
      <point x="81" y="336" identifier="3iLXORNf8l"/>
      <point x="81" y="272" type="curve" smooth="yes" identifier="9EGZoqwZJ7"/>
      <point x="81" y="204" identifier="pjXiiGDQmc"/>
      <point x="128" y="148" identifier="VSuL1hSpnB"/>
      <point x="238" y="117" type="curve" smooth="yes" identifier="BA8l6u2zYv"/>
      <point x="302" y="99" type="line" smooth="yes" identifier="J4UEjdpNbH"/>
      <point x="369" y="80" identifier="WG7kNKYj7q"/>
      <point x="408" y="52" identifier="sl4B5tellw"/>
      <point x="408" y="2" type="curve" smooth="yes" identifier="65kB9OySx4"/>
      <point x="408" y="-52" identifier="E5vrOU7X7O"/>
      <point x="363" y="-86" identifier="Nm0pvyypHD"/>
      <point x="287" y="-86" type="curve" smooth="yes" identifier="ZA86wM612r"/>
      <point x="236" y="-86" identifier="KaMCIMGh1l"/>
      <point x="195" y="-70" identifier="dN8mgTypV5"/>
      <point x="163" y="-43" type="curve" identifier="3nfKPpC5PS"/>
      <point x="116" y="-99" type="line" identifier="hTloMsjl6e"/>
      <point x="163" y="-139" identifier="c5XXh7DxbA"/>
      <point x="225" y="-155" identifier="nctftBBS27"/>
      <point x="286" y="-155" type="curve" smooth="yes" identifier="wNVoqKdMbw"/>
      <point x="406" y="-155" identifier="IrVegA44HZ"/>
      <point x="487" y="-93" identifier="E0HECb4ceW"/>
    </contour>
    <contour>
      <point x="444" y="263" type="curve" smooth="yes" identifier="3LpFqA9G4Y"/>
      <point x="444" y="216" identifier="24FvIfCq6k"/>
      <point x="418" y="180" identifier="1oCeqBIVNF"/>
      <point x="377" y="152" type="curve" identifier="LM8S67qtBD"/>
      <point x="367" y="156" identifier="JcRWyx2MaB"/>
      <point x="355" y="160" identifier="D0vUeJfJyE"/>
      <point x="343" y="163" type="curve" smooth="yes" identifier="aacs3ziTHF"/>
      <point x="280" y="180" type="line" smooth="yes" identifier="Ar9Bduu9mF"/>
      <point x="198" y="202" identifier="B0RKsxGCWx"/>
      <point x="160" y="235" identifier="MfoBYHrMrd"/>
      <point x="160" y="292" type="curve" smooth="yes" identifier="ENv8MlBQfl"/>
      <point x="160" y="339" identifier="VpCIA6yTrH"/>
      <point x="186" y="375" identifier="vThpZuUiZd"/>
      <point x="227" y="403" type="curve" identifier="8i4Q3c6279"/>
      <point x="237" y="399" identifier="d4GaFduUO8"/>
      <point x="249" y="395" identifier="TacD8y1JV4"/>
      <point x="261" y="392" type="curve" smooth="yes" identifier="k39zRgpVzn"/>
      <point x="324" y="375" type="line" smooth="yes" identifier="UIe2fwqrew"/>
      <point x="406" y="353" identifier="6qR6KP9akp"/>
      <point x="444" y="320" identifier="SfYXpkBrwp"/>
    </contour>
  </outline>
</glyph>
<glyph name="dieresis" format="2">
  <advance width="600"/>
  <unicode hex="00A8"/>
  <anchor x="300.0" y="516.0" name="_top"/>
  <outline>
    <contour>
      <point x="207" y="618" type="curve" smooth="yes" identifier="rjsvCWUmqn"/>
      <point x="248" y="618" identifier="D8G9oBwFDT"/>
      <point x="264" y="638" identifier="Jxd9D6onQt"/>
      <point x="264" y="664" type="curve" smooth="yes" identifier="yAMwUJjumD"/>
      <point x="264" y="678" type="line" smooth="yes" identifier="mNBfSQ2Wzx"/>
      <point x="264" y="704" identifier="zz1iEqKXwE"/>
      <point x="248" y="724" identifier="LsqfiLbOMB"/>
      <point x="207" y="724" type="curve" smooth="yes" identifier="qvdUAYr3aI"/>
      <point x="166" y="724" identifier="rYDvPuDG0O"/>
      <point x="150" y="704" identifier="hHTvZlZs4D"/>
      <point x="150" y="678" type="curve" smooth="yes" identifier="xg0tkzeXwg"/>
      <point x="150" y="664" type="line" smooth="yes" identifier="tXtNR7MLJ2"/>
      <point x="150" y="638" identifier="lusHk2Np8j"/>
      <point x="166" y="618" identifier="2IMAg1NCQu"/>
    </contour>
    <contour>
      <point x="393" y="618" type="curve" smooth="yes" identifier="cXhLkZg3je"/>
      <point x="434" y="618" identifier="u84pzb08wq"/>
      <point x="450" y="638" identifier="L1Pa67aGjT"/>
      <point x="450" y="664" type="curve" smooth="yes" identifier="e3ft9zCy0s"/>
      <point x="450" y="678" type="line" smooth="yes" identifier="0idCVvOOtM"/>
      <point x="450" y="704" identifier="AWb057XQtB"/>
      <point x="434" y="724" identifier="WawDc3aEzU"/>
      <point x="393" y="724" type="curve" smooth="yes" identifier="vf8CkaWdVE"/>
      <point x="352" y="724" identifier="kpN99sw4h4"/>
      <point x="336" y="704" identifier="5nW40dM7Fa"/>
      <point x="336" y="678" type="curve" smooth="yes" identifier="8yrBWajCQA"/>
      <point x="336" y="664" type="line" smooth="yes" identifier="wy0k2hIY3d"/>
      <point x="336" y="638" identifier="8VVVnAebgp"/>
      <point x="352" y="618" identifier="tkAcCrAXpq"/>
    </contour>
  </outline>
</glyph>
<glyph name="copyright" format="2">
  <advance width="600"/>
  <unicode hex="00A9"/>
  <outline>
    <contour>
      <point x="300" y="18" type="curve" smooth="yes" identifier="GcGFbySXPA"/>
      <point x="467" y="18" identifier="DzOJCgdzpA"/>
      <point x="600" y="145" identifier="BWBshkRXuD"/>
      <point x="600" y="349" type="curve" smooth="yes" identifier="mjRANencaF"/>
      <point x="600" y="553" identifier="vIOydrmoSZ"/>
      <point x="467" y="680" identifier="fRYyBAt2hW"/>
      <point x="300" y="680" type="curve" smooth="yes" identifier="IYWGxfDr8W"/>
      <point x="133" y="680" identifier="M3n1aapUj6"/>
      <point x="0" y="553" identifier="Izq6aAf0xA"/>
      <point x="0" y="349" type="curve" smooth="yes" identifier="VLWXllLxn8"/>
      <point x="0" y="145" identifier="nIXlsRyLuH"/>
      <point x="133" y="18" identifier="8fJjo4hiHC"/>
    </contour>
    <contour>
      <point x="300" y="73" type="curve" smooth="yes" identifier="7aA1vlJ6dT"/>
      <point x="163" y="73" identifier="vbfB2JS542"/>
      <point x="63" y="182" identifier="6Jsw0aRRRF"/>
      <point x="63" y="319" type="curve" smooth="yes" identifier="tjLpjkPWe4"/>
      <point x="63" y="379" type="line" smooth="yes" identifier="T5BYa4XEKN"/>
      <point x="63" y="516" identifier="GDHxD5jduJ"/>
      <point x="163" y="625" identifier="0cFbymMXAc"/>
      <point x="300" y="625" type="curve" smooth="yes" identifier="uQXpoEGAaN"/>
      <point x="437" y="625" identifier="DlxsiMScaT"/>
      <point x="537" y="516" identifier="KMihJjupEp"/>
      <point x="537" y="379" type="curve" smooth="yes" identifier="7flXqaHKXs"/>
      <point x="537" y="319" type="line" smooth="yes" identifier="Nk06t0G9J6"/>
      <point x="537" y="182" identifier="AILMGCVaOC"/>
      <point x="437" y="73" identifier="G5xSBL6Ovg"/>
    </contour>
    <contour>
      <point x="305" y="171" type="curve" smooth="yes" identifier="TIancKwIYz"/>
      <point x="370" y="171" identifier="Fy7cGDyfEV"/>
      <point x="414" y="205" identifier="oAEOMg16hE"/>
      <point x="436" y="252" type="curve" identifier="vkKLFYYilw"/>
      <point x="386" y="283" type="line" identifier="08mtpAWhDK"/>
      <point x="368" y="250" identifier="qTJXokX1RC"/>
      <point x="346" y="228" identifier="KSCQcsVX1V"/>
      <point x="306" y="228" type="curve" smooth="yes" identifier="bIAsHINDxr"/>
      <point x="252" y="228" identifier="f9JtY5aN10"/>
      <point x="223" y="266" identifier="YWPxcAnH9e"/>
      <point x="223" y="321" type="curve" smooth="yes" identifier="wyvOaq1BKe"/>
      <point x="223" y="378" type="line" smooth="yes" identifier="yW5PXUCPeJ"/>
      <point x="223" y="432" identifier="KOlvrWMksL"/>
      <point x="253" y="470" identifier="jYXAPBUzJU"/>
      <point x="305" y="470" type="curve" smooth="yes" identifier="6Lbm1FaXUx"/>
      <point x="342" y="470" identifier="pIawqh30rG"/>
      <point x="364" y="450" identifier="7ptMG6ZzR7"/>
      <point x="378" y="418" type="curve" identifier="rF1tOVB0Rr"/>
      <point x="431" y="447" type="line" identifier="YRqRDIbjD0"/>
      <point x="409" y="495" identifier="OHENQljvmD"/>
      <point x="368" y="527" identifier="FlH4p0WFzY"/>
      <point x="305" y="527" type="curve" smooth="yes" identifier="aE2pwlH8Cu"/>
      <point x="209" y="527" identifier="p1qERkzjrW"/>
      <point x="151" y="458" identifier="5ExI5RxEJ9"/>
      <point x="151" y="349" type="curve" smooth="yes" identifier="CCyeb9cZMo"/>
      <point x="151" y="241" identifier="KBMR9F7nZ9"/>
      <point x="208" y="171" identifier="lDHgvMRcVN"/>
    </contour>
  </outline>
</glyph>
<glyph name="ordfeminine" format="2">
  <advance width="600"/>
  <unicode hex="00AA"/>
  <outline>
    <contour>
      <point x="463" y="357" type="line" identifier="Hqq52Osjug"/>
      <point x="463" y="413" type="line" identifier="maoOvKDxve"/>
      <point x="425" y="413" type="line" identifier="0UiFaHoBlP"/>
      <point x="425" y="583" type="line" smooth="yes" identifier="GhucCqVcNr"/>
      <point x="425" y="664" identifier="B30pr21OpH"/>
      <point x="373" y="710" identifier="STCN6itOjC"/>
      <point x="288" y="710" type="curve" smooth="yes" identifier="sGZyrFKACn"/>
      <point x="214" y="710" identifier="4IJRwNRIo3"/>
      <point x="170" y="674" identifier="dvH3Py3FPD"/>
      <point x="150" y="640" type="curve" identifier="2W1AV8xzNM"/>
      <point x="192" y="606" type="line" identifier="Ce3OPJ1WJ3"/>
      <point x="207" y="636" identifier="leAgzTostB"/>
      <point x="239" y="658" identifier="PxVkyrUwp4"/>
      <point x="285" y="658" type="curve" smooth="yes" identifier="F5MENwF47a"/>
      <point x="335" y="658" identifier="pYy0U5RCgT"/>
      <point x="362" y="633" identifier="a09UiooPZC"/>
      <point x="362" y="580" type="curve" smooth="yes" identifier="JocbXtk0nl"/>
      <point x="362" y="552" type="line" identifier="gAVcriSr2P"/>
      <point x="289" y="552" type="line" smooth="yes" identifier="j2qw36yDTE"/>
      <point x="193" y="552" identifier="EdpAL3attZ"/>
      <point x="138" y="519" identifier="KUB6TqlJo4"/>
      <point x="138" y="448" type="curve" smooth="yes" identifier="5gA11e08o2"/>
      <point x="138" y="389" identifier="c8TbcLkWQ0"/>
      <point x="177" y="349" identifier="UhBa0isQQq"/>
      <point x="249" y="349" type="curve" smooth="yes" identifier="Z5BMftb8Yw"/>
      <point x="311" y="349" identifier="kc1slQOJfB"/>
      <point x="347" y="379" identifier="Uu67iLIcPE"/>
      <point x="362" y="410" type="curve" identifier="zvVeGB4sxM"/>
      <point x="366" y="410" type="line" identifier="w23DZGgbHO"/>
      <point x="368" y="377" identifier="u1eqYL9fvt"/>
      <point x="385" y="357" identifier="3fS78BmibK"/>
      <point x="429" y="357" type="curve" smooth="yes" identifier="mAaCneQlSf"/>
    </contour>
    <contour>
      <point x="362" y="506" type="line" identifier="DYvISMamJM"/>
      <point x="362" y="465" type="line" smooth="yes" identifier="epugq7mDhX"/>
      <point x="362" y="425" identifier="awfzYHd3JZ"/>
      <point x="315" y="400" identifier="t0QKW3CsVs"/>
      <point x="262" y="400" type="curve" smooth="yes" identifier="Rl8FrabwhT"/>
      <point x="222" y="400" identifier="TvTactyiaV"/>
      <point x="201" y="415" identifier="WiZNcozblB"/>
      <point x="201" y="449" type="curve" smooth="yes" identifier="u66vScbCzl"/>
      <point x="201" y="459" type="line" smooth="yes" identifier="LtF7bVAwOp"/>
      <point x="201" y="490" identifier="ghGVFwDwik"/>
      <point x="232" y="506" identifier="sj7LVSCBKm"/>
      <point x="287" y="506" type="curve" smooth="yes" identifier="BREUFNJeDw"/>
    </contour>
  </outline>
</glyph>
<glyph name="logicalnot" format="2">
  <advance width="600"/>
  <unicode hex="00AC"/>
  <outline>
    <contour>
      <point x="522" y="78" type="line" identifier="pSh0b0BSRo"/>
      <point x="522" y="339" type="line" identifier="AjIs9uQYrh"/>
      <point x="62" y="339" type="line" identifier="0jTmwatR1F"/>
      <point x="62" y="271" type="line" identifier="TNGTN2HAuO"/>
      <point x="453" y="271" type="line" identifier="iWntVwSaPy"/>
      <point x="453" y="78" type="line" identifier="phl0TtFHCl"/>
    </contour>
  </outline>
</glyph>
<glyph name="registered" format="2">
  <advance width="600"/>
  <unicode hex="00AE"/>
  <outline>
    <contour>
      <point x="300" y="346" type="curve" smooth="yes" identifier="ko8FwnYS0T"/>
      <point x="402" y="346" identifier="NoBmXQXR7i"/>
      <point x="483" y="424" identifier="NpkFkJU656"/>
      <point x="483" y="528" type="curve" smooth="yes" identifier="GWbV84xjkK"/>
      <point x="483" y="632" identifier="i6CoOisGO7"/>
      <point x="402" y="710" identifier="sqzGFuoGXq"/>
      <point x="300" y="710" type="curve" smooth="yes" identifier="J6LgJgzAg0"/>
      <point x="198" y="710" identifier="8dorKfRRbU"/>
      <point x="117" y="632" identifier="HL91S17FJc"/>
      <point x="117" y="528" type="curve" smooth="yes" identifier="xfTCmtX3Rv"/>
      <point x="117" y="424" identifier="rVgoVTLohA"/>
      <point x="198" y="346" identifier="k0h3JM5E9R"/>
    </contour>
    <contour>
      <point x="300" y="387" type="curve" smooth="yes" identifier="wmTnDltX0a"/>
      <point x="223" y="387" identifier="eXki7wrejv"/>
      <point x="165" y="439" identifier="OSxk7Z4Er4"/>
      <point x="165" y="518" type="curve" smooth="yes" identifier="iC1DB3DFp6"/>
      <point x="165" y="538" type="line" smooth="yes" identifier="FOcT9PNHij"/>
      <point x="165" y="617" identifier="UVs0USjFce"/>
      <point x="223" y="669" identifier="8lZQmRQg9N"/>
      <point x="300" y="669" type="curve" smooth="yes" identifier="MUQOLQZdJu"/>
      <point x="377" y="669" identifier="6WO9tL1RKG"/>
      <point x="435" y="617" identifier="U9APcaRFfY"/>
      <point x="435" y="538" type="curve" smooth="yes" identifier="8TbU0GuhQh"/>
      <point x="435" y="518" type="line" smooth="yes" identifier="UOuGhgETur"/>
      <point x="435" y="439" identifier="Oh3b1eFPz4"/>
      <point x="377" y="387" identifier="Hvkj3ZHUvh"/>
    </contour>
    <contour>
      <point x="270" y="506" type="line" identifier="QSR2ZyIKDr"/>
      <point x="299" y="506" type="line" identifier="UjUYRnt1hV"/>
      <point x="338" y="436" type="line" identifier="a4FAvx1ftf"/>
      <point x="383" y="436" type="line" identifier="20cQhhPG0I"/>
      <point x="337" y="512" type="line" identifier="04wVQ1eP5w"/>
      <point x="360" y="520" identifier="eOBJsqLBPN"/>
      <point x="374" y="539" identifier="bEpQSLRC8Q"/>
      <point x="374" y="564" type="curve" smooth="yes" identifier="PNRyFjt7BQ"/>
      <point x="374" y="599" identifier="3i0IiBNj2q"/>
      <point x="352" y="621" identifier="ECT3gizfry"/>
      <point x="315" y="621" type="curve" smooth="yes" identifier="u2b1rl0qb7"/>
      <point x="230" y="621" type="line" identifier="0QRrnAbGCS"/>
      <point x="230" y="436" type="line" identifier="B9ODUBpjF1"/>
      <point x="270" y="436" type="line" identifier="egRgHjaizc"/>
    </contour>
    <contour>
      <point x="270" y="535" type="line" identifier="pBzzo4ramq"/>
      <point x="270" y="590" type="line" identifier="z01KIfo9pY"/>
      <point x="306" y="590" type="line" smooth="yes" identifier="lQkIIBfkvt"/>
      <point x="322" y="590" identifier="G01f4vurrA"/>
      <point x="332" y="581" identifier="J4mRCXHpeW"/>
      <point x="332" y="566" type="curve" smooth="yes" identifier="7ihKeUwYuV"/>
      <point x="332" y="559" type="line" smooth="yes" identifier="8DLdMWNs6X"/>
      <point x="332" y="544" identifier="mbNHfy2Sgw"/>
      <point x="322" y="535" identifier="NWaWHqcCSr"/>
      <point x="306" y="535" type="curve" smooth="yes" identifier="72nlb9Jc5F"/>
    </contour>
  </outline>
</glyph>
<glyph name="macron" format="2">
  <advance width="600"/>
  <unicode hex="00AF"/>
  <anchor x="300.0" y="516.0" name="_top"/>
  <outline>
    <contour>
      <point x="160" y="637" type="line" identifier="qATq7JfMxm"/>
      <point x="440" y="637" type="line" identifier="fJYus3e7wS"/>
      <point x="440" y="705" type="line" identifier="HWLIZdY1PH"/>
      <point x="160" y="705" type="line" identifier="mnbW6idUll"/>
    </contour>
  </outline>
</glyph>
<glyph name="degree" format="2">
  <advance width="600"/>
  <unicode hex="00B0"/>
  <outline>
    <contour>
      <point x="300" y="368" type="curve" smooth="yes" identifier="0s248PpYsk"/>
      <point x="396" y="368" identifier="PnrJugnUNC"/>
      <point x="471" y="442" identifier="Wn1TH5KnxQ"/>
      <point x="471" y="539" type="curve" smooth="yes" identifier="P0VZMCeg1t"/>
      <point x="471" y="636" identifier="YLYC4TWw1r"/>
      <point x="396" y="710" identifier="iABD3he5pD"/>
      <point x="300" y="710" type="curve" smooth="yes" identifier="qNlzESeQTx"/>
      <point x="204" y="710" identifier="ZIgDOkXjX1"/>
      <point x="129" y="636" identifier="BweKNabSDF"/>
      <point x="129" y="539" type="curve" smooth="yes" identifier="3Sx6lvNusq"/>
      <point x="129" y="442" identifier="KRgun6xWrD"/>
      <point x="204" y="368" identifier="C7ZIr7Frvq"/>
    </contour>
    <contour>
      <point x="300" y="432" type="curve" smooth="yes" identifier="SD3GZQmif4"/>
      <point x="239" y="432" identifier="KmleT6mER2"/>
      <point x="199" y="479" identifier="P8VvDEyspZ"/>
      <point x="199" y="539" type="curve" smooth="yes" identifier="REOv98P3Js"/>
      <point x="199" y="599" identifier="RFdApFul4O"/>
      <point x="239" y="646" identifier="ALFpcM2ToY"/>
      <point x="300" y="646" type="curve" smooth="yes" identifier="N9QSKV32eu"/>
      <point x="361" y="646" identifier="1jmXqqQXjy"/>
      <point x="401" y="599" identifier="jVNIz7qrlh"/>
      <point x="401" y="539" type="curve" smooth="yes" identifier="ThbzLCUQF2"/>
      <point x="401" y="479" identifier="iz5mD6eEM3"/>
      <point x="361" y="432" identifier="QCMueK9zDh"/>
    </contour>
  </outline>
</glyph>
<glyph name="plusminus" format="2">
  <advance width="600"/>
  <unicode hex="00B1"/>
  <outline>
    <contour>
      <point x="338" y="152" type="line" identifier="FtILkc8mxj"/>
      <point x="338" y="351" type="line" identifier="dUuYN63uGv"/>
      <point x="538" y="351" type="line" identifier="PaMdPJozov"/>
      <point x="538" y="419" type="line" identifier="5NSApBYS7b"/>
      <point x="338" y="419" type="line" identifier="LvQfb1I3u0"/>
      <point x="338" y="618" type="line" identifier="vznIEbcR9u"/>
      <point x="262" y="618" type="line" identifier="TcuTkpfyLV"/>
      <point x="262" y="419" type="line" identifier="BdUYKZZUJw"/>
      <point x="62" y="419" type="line" identifier="OFQJrd2Nd1"/>
      <point x="62" y="351" type="line" identifier="lBmP1mvjSQ"/>
      <point x="262" y="351" type="line" identifier="IrLncykUWt"/>
      <point x="262" y="152" type="line" identifier="qrqtxcf7Bb"/>
    </contour>
    <contour>
      <point x="538" y="0" type="line" identifier="Zkt7rVdGLt"/>
      <point x="538" y="68" type="line" identifier="sLynk9xyek"/>
      <point x="62" y="68" type="line" identifier="ohO4LnfRw0"/>
      <point x="62" y="0" type="line" identifier="atinD5XW4Y"/>
    </contour>
  </outline>
</glyph>
<glyph name="twosuperior" format="2">
  <advance width="600"/>
  <unicode hex="00B2"/>
  <outline>
    <contour>
      <point x="438" y="379" type="line" identifier="XxMonQALGZ"/>
      <point x="233" y="379" type="line" identifier="qE8P9Rmkfj"/>
      <point x="330" y="454" type="line" smooth="yes" identifier="7tXukpyaDt"/>
      <point x="386" y="497" identifier="moBsBCBaNj"/>
      <point x="425" y="537" identifier="oZsuZMnU0b"/>
      <point x="425" y="595" type="curve" smooth="yes" identifier="Hkd3swAE0g"/>
      <point x="425" y="659" identifier="22BxACE5mt"/>
      <point x="379" y="704" identifier="vOl1ZtrhmH"/>
      <point x="297" y="704" type="curve" smooth="yes" identifier="BwgVQ5nM4V"/>
      <point x="217" y="704" identifier="O6vPWMms6P"/>
      <point x="177" y="661" identifier="OZK2KBeGQx"/>
      <point x="161" y="614" type="curve" identifier="QhWMnjAxhK"/>
      <point x="215" y="594" type="line" identifier="AOp9TINIbz"/>
      <point x="226" y="626" identifier="UXYEsCfq1M"/>
      <point x="247" y="652" identifier="N5fntgKeZr"/>
      <point x="293" y="652" type="curve" smooth="yes" identifier="AD8cuB0G4n"/>
      <point x="335" y="652" identifier="slcPWKBT2V"/>
      <point x="358" y="629" identifier="DKQjXHIYkc"/>
      <point x="358" y="595" type="curve" smooth="yes" identifier="pNcum517rX"/>
      <point x="358" y="589" type="line" smooth="yes" identifier="HZCudCOC7k"/>
      <point x="358" y="553" identifier="NqrqggEI7o"/>
      <point x="335" y="523" identifier="gc39tG7YZ6"/>
      <point x="296" y="491" type="curve" smooth="yes" identifier="v9tSt72k5q"/>
      <point x="166" y="386" type="line" identifier="oX8nv6HaZz"/>
      <point x="166" y="329" type="line" identifier="C5BWbylHnQ"/>
      <point x="438" y="329" type="line" identifier="bHI3fvOpP2"/>
    </contour>
  </outline>
</glyph>
<glyph name="threesuperior" format="2">
  <advance width="600"/>
  <unicode hex="00B3"/>
  <outline>
    <contour>
      <point x="242" y="546" type="line" identifier="M3LBHp9jm1"/>
      <point x="242" y="495" type="line" identifier="hPfZyrEE2B"/>
      <point x="287" y="495" type="line" smooth="yes" identifier="rKAyY4VK4k"/>
      <point x="337" y="495" identifier="CZxsBwysgl"/>
      <point x="364" y="478" identifier="A08eTxZtCH"/>
      <point x="364" y="440" type="curve" smooth="yes" identifier="chxS4Fn9Ww"/>
      <point x="364" y="434" type="line" smooth="yes" identifier="NVogk4m8qy"/>
      <point x="364" y="396" identifier="iuHBdLWNTJ"/>
      <point x="337" y="373" identifier="1GWhMy4Gv9"/>
      <point x="287" y="373" type="curve" smooth="yes" identifier="SSUh3vQpZW"/>
      <point x="241" y="373" identifier="2pl7D7W6rp"/>
      <point x="217" y="394" identifier="PKN7iFiedV"/>
      <point x="198" y="423" type="curve" identifier="eP1KP1IDDz"/>
      <point x="151" y="389" type="line" identifier="IN28n9MPZQ"/>
      <point x="176" y="355" identifier="08ZUKwAUTM"/>
      <point x="214" y="323" identifier="l8ZH6IFt55"/>
      <point x="287" y="323" type="curve" smooth="yes" identifier="mcLfMvaD74"/>
      <point x="374" y="323" identifier="9BzDj3gXxa"/>
      <point x="430" y="366" identifier="JhAUHYvKsa"/>
      <point x="430" y="431" type="curve" smooth="yes" identifier="2EnkNgXInQ"/>
      <point x="430" y="484" identifier="uqP5WDtlNY"/>
      <point x="391" y="513" identifier="QafV7HgnSl"/>
      <point x="346" y="521" type="curve" identifier="6dn18h1Ino"/>
      <point x="346" y="524" type="line" identifier="1ET3VAppUD"/>
      <point x="388" y="533" identifier="SLdhqpnrey"/>
      <point x="424" y="561" identifier="iDSP4Yu4dk"/>
      <point x="424" y="609" type="curve" smooth="yes" identifier="C4FdNTcpb5"/>
      <point x="424" y="669" identifier="SNRQsxvb97"/>
      <point x="369" y="704" identifier="vVDUsi6Xbx"/>
      <point x="294" y="704" type="curve" smooth="yes" identifier="REq1TFSCWE"/>
      <point x="228" y="704" identifier="BBlYNVJqMD"/>
      <point x="189" y="676" identifier="2zLEa08BWh"/>
      <point x="166" y="643" type="curve" identifier="MJAPGE3DEB"/>
      <point x="209" y="609" type="line" identifier="dJSUAukyt4"/>
      <point x="227" y="637" identifier="OWLSjHvqr9"/>
      <point x="253" y="654" identifier="6DVteu9iVJ"/>
      <point x="292" y="654" type="curve" smooth="yes" identifier="fhwywiFcfz"/>
      <point x="332" y="654" identifier="jXtgpDDKYI"/>
      <point x="357" y="635" identifier="SNZvKBgyin"/>
      <point x="357" y="602" type="curve" smooth="yes" identifier="1TDgap1gLa"/>
      <point x="357" y="598" type="line" smooth="yes" identifier="hpoHsFbR9m"/>
      <point x="357" y="568" identifier="Z51qnICSbN"/>
      <point x="333" y="546" identifier="lLwIvPYGiG"/>
      <point x="282" y="546" type="curve" smooth="yes" identifier="5NBU0lqvjr"/>
    </contour>
  </outline>
</glyph>
<glyph name="acute" format="2">
  <advance width="600"/>
  <unicode hex="00B4"/>
  <anchor x="300.0" y="516.0" name="_top"/>
  <outline>
    <contour>
      <point x="413" y="744" type="line" identifier="Ko1Iv2GKpi"/>
      <point x="340" y="779" type="line" identifier="Bw03OxIyvb"/>
      <point x="255" y="609" type="line" identifier="U4bD4biDSN"/>
      <point x="307" y="585" type="line" identifier="K4kIElmQfC"/>
    </contour>
  </outline>
</glyph>
<glyph name="mu" format="2">
  <advance width="600"/>
  <unicode hex="00B5"/>
  <outline>
    <contour>
      <point x="178" y="-200" type="line" identifier="hyF3sOhW3z"/>
      <point x="178" y="-44" type="line" identifier="a56XE53HhF"/>
      <point x="171" y="40" type="line" identifier="7atulOHtc4"/>
      <point x="175" y="40" type="line" identifier="SVUb7foKe0"/>
      <point x="194" y="5" identifier="c0pVzyebBi"/>
      <point x="227" y="-12" identifier="ghaFVaSSN3"/>
      <point x="278" y="-12" type="curve" smooth="yes" identifier="7Q2TOzO8Mh"/>
      <point x="358" y="-12" identifier="SQJbDk5h7f"/>
      <point x="395" y="31" identifier="qeTxhnYq62"/>
      <point x="418" y="84" type="curve" identifier="igh2QvCfP5"/>
      <point x="422" y="84" type="line" identifier="ExbzzMsRMS"/>
      <point x="422" y="0" type="line" identifier="nsn1ftj1VO"/>
      <point x="502" y="0" type="line" identifier="NhpKW81kq0"/>
      <point x="502" y="516" type="line" identifier="k8iIySVC6c"/>
      <point x="422" y="516" type="line" identifier="NXqdig0Kuk"/>
      <point x="422" y="158" type="line" smooth="yes" identifier="bw08KGk3ST"/>
      <point x="422" y="90" identifier="GdBaIAbdcQ"/>
      <point x="361" y="59" identifier="FY2Nf3HmHr"/>
      <point x="297" y="59" type="curve" smooth="yes" identifier="GUjyjGq1B4"/>
      <point x="219" y="59" identifier="p6xSdID4wT"/>
      <point x="178" y="105" identifier="4pzk5QszgY"/>
      <point x="178" y="199" type="curve" smooth="yes" identifier="RSVXYRgJ2W"/>
      <point x="178" y="516" type="line" identifier="CNgxuqH2AU"/>
      <point x="98" y="516" type="line" identifier="ywkaqKkBHR"/>
      <point x="98" y="-200" type="line" identifier="irffFiJ5jB"/>
    </contour>
  </outline>
</glyph>
<glyph name="paragraph" format="2">
  <advance width="600"/>
  <unicode hex="00B6"/>
  <outline>
    <contour>
      <point x="270" y="-149" type="line" identifier="q0AcOWde8M"/>
      <point x="342" y="-149" type="line" identifier="etH4bPSdqq"/>
      <point x="342" y="634" type="line" identifier="F9XCBxJ5Xd"/>
      <point x="432" y="634" type="line" identifier="nzkMmyx8iI"/>
      <point x="432" y="-149" type="line" identifier="GllBtQdFhl"/>
      <point x="504" y="-149" type="line" identifier="lbHX7iEOBK"/>
      <point x="504" y="698" type="line" identifier="Cx5jLAGaig"/>
      <point x="270" y="698" type="line" smooth="yes" identifier="UlRRVmQK5y"/>
      <point x="146" y="698" identifier="89g3r5gH4t"/>
      <point x="45" y="603" identifier="6RPEVBZNYO"/>
      <point x="45" y="472" type="curve" smooth="yes" identifier="grNv1cE4o6"/>
      <point x="45" y="341" identifier="ratrXzYV86"/>
      <point x="146" y="246" identifier="gr7kdM5AQO"/>
      <point x="270" y="246" type="curve" identifier="sVcT0cRClQ"/>
    </contour>
  </outline>
</glyph>
<glyph name="periodcentered" format="2">
  <advance width="600"/>
  <unicode hex="00B7"/>
  <outline>
    <contour>
      <point x="300" y="235" type="curve" smooth="yes" identifier="PcviKmVLzG"/>
      <point x="354" y="235" identifier="oCETNor8IM"/>
      <point x="374" y="261" identifier="9rtTIF2bOV"/>
      <point x="374" y="295" type="curve" smooth="yes" identifier="dcZd5qdmiz"/>
      <point x="374" y="313" type="line" smooth="yes" identifier="QKK2SuskHR"/>
      <point x="374" y="347" identifier="lk1WZZk3z5"/>
      <point x="354" y="373" identifier="6t7QOgt9S6"/>
      <point x="300" y="373" type="curve" smooth="yes" identifier="fO4ecEAGiQ"/>
      <point x="246" y="373" identifier="zTIaTL3VTK"/>
      <point x="226" y="347" identifier="Gfo6xc0J4b"/>
      <point x="226" y="313" type="curve" smooth="yes" identifier="XpehYFyYOM"/>
      <point x="226" y="295" type="line" smooth="yes" identifier="OAmYMYn3Ro"/>
      <point x="226" y="261" identifier="lz8p9Q8Uvs"/>
      <point x="246" y="235" identifier="US65kxYPDR"/>
    </contour>
  </outline>
</glyph>
<glyph name="cedilla" format="2">
  <advance width="600"/>
  <unicode hex="00B8"/>
  <anchor x="300.0" y="0.0" name="_bottom"/>
  <outline>
    <contour>
      <point x="312" y="-207" type="curve" smooth="yes" identifier="zeA1DFbqRL"/>
      <point x="371" y="-207" identifier="1aGkyXiEgD"/>
      <point x="423" y="-181" identifier="enuL7HnDrj"/>
      <point x="423" y="-124" type="curve" smooth="yes" identifier="a6MuSnjFWA"/>
      <point x="423" y="-81" identifier="Z6Wi8E2Pwo"/>
      <point x="394" y="-58" identifier="h0FNhIaVrl"/>
      <point x="355" y="-58" type="curve" smooth="yes" identifier="aFvgr4L7Ef"/>
      <point x="343" y="-58" identifier="mdpiKYegRC"/>
      <point x="329" y="-60" identifier="85nj4YMv36"/>
      <point x="316" y="-64" type="curve" identifier="SKKPnfcf4I"/>
      <point x="313" y="-61" type="line" identifier="dqcRyeNkcY"/>
      <point x="329" y="20" type="line" identifier="pWyO8Kou7w"/>
      <point x="279" y="20" type="line" identifier="2RHxGf6VrK"/>
      <point x="260" y="-77" type="line" identifier="Qdgje7I6ba"/>
      <point x="288" y="-81" type="line" smooth="yes" identifier="YEMEhPCihr"/>
      <point x="344" y="-89" identifier="curJDtjU4X"/>
      <point x="356" y="-104" identifier="DUxuXobVZR"/>
      <point x="356" y="-122" type="curve" smooth="yes" identifier="wWplaFyAxC"/>
      <point x="356" y="-143" identifier="dwg0ZFdRXV"/>
      <point x="337" y="-153" identifier="S7ywd3xIZM"/>
      <point x="312" y="-153" type="curve" smooth="yes" identifier="4qKFGk09CW"/>
      <point x="283" y="-153" identifier="yzpuGG83bj"/>
      <point x="263" y="-140" identifier="iXILsaMwnR"/>
      <point x="251" y="-125" type="curve" identifier="nF601vSZf7"/>
      <point x="213" y="-166" type="line" identifier="gICI7PXarr"/>
      <point x="227" y="-185" identifier="wVF72hsmOE"/>
      <point x="258" y="-207" identifier="ydNfrpkNdL"/>
    </contour>
  </outline>
</glyph>
<glyph name="onesuperior" format="2">
  <advance width="600"/>
  <unicode hex="00B9"/>
  <guideline x="176.0" y="0.0" angle="90.0" identifier="HUKMJlPUyP"/>
  <outline>
    <contour>
      <point x="446" y="329" type="line" identifier="k3fVyUfeWe"/>
      <point x="446" y="379" type="line" identifier="AthV0sWbIp"/>
      <point x="348" y="379" type="line" identifier="8jECV5txAA"/>
      <point x="348" y="698" type="line" identifier="309C0JLwq3"/>
      <point x="255" y="698" type="line" identifier="CueFA7HFsu"/>
      <point x="153" y="595" type="line" identifier="wovL7B3WG9"/>
      <point x="189" y="558" type="line" identifier="58j3xZAj3h"/>
      <point x="279" y="647" type="line" identifier="UMJQgxxSx7"/>
      <point x="285" y="647" type="line" identifier="8paCVAxTnI"/>
      <point x="285" y="379" type="line" identifier="Wn4Lfc07q5"/>
      <point x="176" y="379" type="line" identifier="67Uz40yfMt"/>
      <point x="176" y="329" type="line" identifier="1TYguqZ5yr"/>
    </contour>
  </outline>
</glyph>
<glyph name="ordmasculine" format="2">
  <advance width="600"/>
  <unicode hex="00BA"/>
  <outline>
    <contour>
      <point x="300" y="349" type="curve" smooth="yes" identifier="3Se3jqO9PW"/>
      <point x="400" y="349" identifier="JsOAUFgjaK"/>
      <point x="460" y="418" identifier="AL2r49aAix"/>
      <point x="460" y="530" type="curve" smooth="yes" identifier="zncVhIQ5Md"/>
      <point x="460" y="641" identifier="wKvqvL6L6x"/>
      <point x="400" y="710" identifier="xIsGIghGtd"/>
      <point x="300" y="710" type="curve" smooth="yes" identifier="5pzo4oriiu"/>
      <point x="200" y="710" identifier="HVFMYrVA9y"/>
      <point x="140" y="641" identifier="GKVIk3cVOv"/>
      <point x="140" y="530" type="curve" identifier="fc6nm5T9hA"/>
      <point x="140" y="418" identifier="pal9Dq2bem"/>
      <point x="199" y="349" identifier="0KxI9AHSzR"/>
    </contour>
    <contour>
      <point x="300" y="402" type="curve" smooth="yes" identifier="XCB6VYSJbb"/>
      <point x="240" y="402" identifier="vPJRaSCcYh"/>
      <point x="209" y="443" identifier="wQOALEPSQp"/>
      <point x="209" y="500" type="curve" smooth="yes" identifier="81L8XxX2Nr"/>
      <point x="209" y="559" type="line" smooth="yes" identifier="WTqIDeFY8e"/>
      <point x="209" y="616" identifier="334IabAsg3"/>
      <point x="240" y="657" identifier="vLxrpvRsJR"/>
      <point x="300" y="657" type="curve" smooth="yes" identifier="tRn9sRr6fj"/>
      <point x="360" y="657" identifier="ZBt9Ja7dwx"/>
      <point x="391" y="616" identifier="epRr1DrrZz"/>
      <point x="391" y="559" type="curve" smooth="yes" identifier="ut2bPZwDOI"/>
      <point x="391" y="500" type="line" smooth="yes" identifier="VsLJ2MYNf3"/>
      <point x="391" y="443" identifier="JYrNAYzxom"/>
      <point x="360" y="402" identifier="QtDXa3bMj0"/>
    </contour>
  </outline>
</glyph>
